M48
; DRILL file {KiCad 5.1.5+dfsg1-2+b1} date Thu 03 Dec 2020 05:45:58 AM EST
; FORMAT={-:-/ absolute / inch / decimal}
; #@! TF.CreationDate,2020-12-03T05:45:58-05:00
; #@! TF.GenerationSoftware,Kicad,Pcbnew,5.1.5+dfsg1-2+b1
FMAT,2
INCH
T1C0.0157
T2C0.0236
T3C0.0315
T4C0.0354
T5C0.0394
T6C0.0472
T7C0.0591
T8C0.0669
T9C0.1575
%
G90
G05
T1
X0.7Y-4.25
X0.75Y-3.3689
X0.9Y-6.275
X1.125Y-3.425
X1.225Y-2.6482
X1.225Y-7.025
X1.25Y0.65
X1.3Y-5.55
X1.35Y0.025
X1.437Y-6.05
X1.5Y-3.475
X1.55Y-0.15
X1.6Y0.35
X1.6018Y-4.1482
X1.65Y0.475
X1.6504Y-6.4681
X1.8Y-1.65
X1.875Y-3.525
X2.075Y0.875
X2.0884Y-5.7384
X2.25Y-3.575
X2.4Y-6.275
X3.0Y-3.625
X3.15Y-5.55
X3.25Y-6.8
X3.375Y-3.675
X3.4745Y-4.8995
X3.4768Y-0.3982
X3.5Y-7.025
X3.5884Y-5.7384
X3.65Y1.15
X3.65Y0.975
X3.675Y0.875
X3.75Y-3.725
X3.9Y-5.65
X3.9Y-6.4681
X4.125Y0.5
X4.125Y-3.375
X4.2Y2.5
X4.25Y-5.55
X4.45Y-6.05
X4.5Y-3.425
X4.6018Y-4.1482
X4.65Y-6.275
X4.725Y-5.875
X4.875Y-3.475
X5.075Y2.15
X5.075Y-5.65
X5.25Y-3.525
X5.4634Y-5.7384
X5.5Y1.15
X5.9Y-6.05
X6.0Y-3.575
X6.15Y-6.275
X6.375Y-3.625
X6.5Y-5.55
X6.75Y-3.675
X6.8518Y-1.8982
X6.8518Y-4.1482
X6.9287Y-5.65
X7.125Y-3.725
X7.3384Y-5.7384
T2
X2.175Y1.15
X2.25Y1.075
T3
X0.9531Y1.9
X1.15Y1.9
X6.95Y1.4
X6.95Y1.1
X6.65Y2.3
X6.65Y2.0
X6.75Y2.3
X6.75Y2.0
X6.85Y2.3
X6.85Y2.0
X6.95Y2.3
X6.95Y2.0
X0.95Y1.75
X1.25Y1.75
X0.65Y1.5
X0.65Y1.2
X0.75Y1.5
X0.75Y1.2
X0.85Y1.5
X0.85Y1.2
X0.95Y1.5
X0.95Y1.2
X1.05Y1.5
X1.05Y1.2
X1.15Y1.5
X1.15Y1.2
X1.25Y1.5
X1.25Y1.2
X1.35Y1.5
X1.35Y1.2
X1.45Y1.5
X1.45Y1.2
X1.55Y1.5
X1.55Y1.2
X1.65Y1.5
X1.65Y1.2
X1.75Y1.5
X1.75Y1.2
X6.3281Y2.525
X6.525Y2.525
X5.625Y1.65
X5.8219Y1.65
X6.85Y1.65
X7.0469Y1.65
X5.25Y3.3
X5.25Y3.1031
X7.1Y1.2969
X7.1Y1.1
T4
X6.375Y0.4
X6.475Y0.4
X0.75Y-2.6
X0.85Y-2.6
X4.875Y0.4
X4.975Y0.4
X1.125Y0.4
X1.225Y0.4
X7.125Y-6.35
X7.225Y-6.35
X3.0Y-7.1
X3.1Y-7.1
X4.875Y-6.35
X4.975Y-6.35
X3.375Y-1.85
X3.475Y-1.85
X2.25Y-2.6
X2.35Y-2.6
X5.25Y-7.1
X5.35Y-7.1
X4.125Y0.4
X4.225Y0.4
X0.75Y-4.85
X0.85Y-4.85
X3.0Y-2.6
X3.1Y-2.6
X2.25Y-4.85
X2.35Y-4.85
X4.5Y-2.6
X4.6Y-2.6
X5.25Y-2.6
X5.35Y-2.6
X1.125Y-6.35
X1.225Y-6.35
X0.75Y-7.1
X0.85Y-7.1
X3.75Y-7.1
X3.85Y-7.1
X6.75Y-7.1
X6.85Y-7.1
X2.25Y-7.1
X2.35Y-7.1
X3.375Y-4.1
X3.475Y-4.1
X4.5Y-0.35
X4.6Y-0.35
X1.125Y-1.85
X1.225Y-1.85
X1.875Y-1.85
X1.975Y-1.85
X3.375Y0.4
X3.475Y0.4
X6.75Y-4.85
X6.85Y-4.85
X3.0Y-0.35
X3.1Y-0.35
X6.375Y-6.35
X6.475Y-6.35
X6.75Y-0.35
X6.85Y-0.35
X0.75Y-0.35
X0.85Y-0.35
X2.25Y-0.35
X2.35Y-0.35
X6.375Y-1.85
X6.475Y-1.85
X3.75Y-2.6
X3.85Y-2.6
X4.125Y-1.85
X4.225Y-1.85
X6.0Y-0.35
X6.1Y-0.35
X7.125Y0.4
X7.225Y0.4
X6.0Y-2.6
X6.1Y-2.6
X1.875Y0.4
X1.975Y0.4
X6.375Y-4.1
X6.475Y-4.1
X1.125Y-4.1
X1.225Y-4.1
X4.125Y-6.35
X4.225Y-6.35
X1.5Y-0.35
X1.6Y-0.35
X6.0Y-7.1
X6.1Y-7.1
X1.5Y-2.6
X1.6Y-2.6
X3.75Y-0.35
X3.85Y-0.35
X4.875Y-1.85
X4.975Y-1.85
X7.125Y-1.85
X7.225Y-1.85
X3.375Y-6.35
X3.475Y-6.35
X5.25Y-0.35
X5.35Y-0.35
X3.75Y-4.85
X3.85Y-4.85
X3.0Y-4.85
X3.1Y-4.85
X4.875Y-4.1
X4.975Y-4.1
X6.0Y-4.85
X6.1Y-4.85
X5.25Y-4.85
X5.35Y-4.85
X1.5Y-7.1
X1.6Y-7.1
X4.5Y-4.85
X4.6Y-4.85
X4.125Y-4.1
X4.225Y-4.1
X1.5Y-4.85
X1.6Y-4.85
X1.875Y-4.1
X1.975Y-4.1
X7.125Y-4.1
X7.225Y-4.1
X4.5Y-7.1
X4.6Y-7.1
X1.875Y-6.35
X1.975Y-6.35
X6.75Y-2.6
X6.85Y-2.6
T5
X2.9Y2.95
X2.9Y2.85
X2.9Y2.75
X2.9Y2.65
X2.9Y2.55
X2.9Y2.45
X2.9Y2.35
X2.9Y2.25
X2.9Y2.05
X2.9Y1.95
X2.9Y1.85
X2.9Y1.75
X2.9Y1.65
X2.9Y1.55
X4.8Y3.3098
X4.8Y3.2098
X4.8Y3.1098
X4.8Y3.0098
X4.8Y2.9098
X4.8Y2.8098
X4.8Y2.7098
X4.8Y2.6098
X4.8Y2.5098
X4.8Y2.4098
X4.8Y2.25
X4.8Y2.15
X4.8Y2.05
X4.8Y1.95
X4.8Y1.85
X4.8Y1.75
X4.8Y1.65
X4.8Y1.55
X6.85Y2.45
X6.65Y1.85
X6.75Y1.85
X6.85Y1.85
X2.65Y3.0
X6.7516Y3.3
X6.85Y3.3
X6.6Y1.125
X7.35Y2.225
X7.35Y2.125
X7.4Y1.75
X7.4Y1.65
X7.4Y1.55
X6.35Y2.3
X7.3Y3.1
X7.4Y3.1
X2.65Y2.85
X2.65Y2.75
X2.65Y2.65
X2.65Y2.55
X7.3016Y3.3
X7.4Y3.3
X6.95Y2.45
X5.05Y3.1
X2.65Y1.95
X2.65Y1.85
X2.65Y1.75
X2.65Y1.65
X2.65Y1.55
X6.35Y2.2
X5.625Y1.5
X5.725Y1.5
X5.825Y1.5
X5.925Y1.5
X6.025Y1.5
X6.125Y1.5
X6.225Y1.5
X5.45Y3.0
X5.55Y3.0
X5.65Y3.0
X5.75Y3.0
X5.85Y3.0
X5.95Y3.0
X6.05Y3.0
X6.35Y2.1
X5.05Y2.9
X5.05Y2.8
X5.05Y2.7
T6
X7.2Y2.7
X7.4953Y2.7
X6.5547Y2.85
X6.85Y2.85
T7
X7.025Y-6.05
X7.275Y-5.95
X6.65Y-6.8
X6.9Y-6.7
X4.775Y-6.05
X5.025Y-5.95
X0.65Y-6.8
X0.9Y-6.7
X3.275Y-6.05
X3.525Y-5.95
X5.9Y-6.8
X6.15Y-6.7
X2.15Y-6.8
X2.4Y-6.7
X6.275Y-6.05
X6.525Y-5.95
X1.025Y-6.05
X1.275Y-5.95
X4.025Y-6.05
X4.275Y-5.95
X1.775Y-6.05
X2.025Y-5.95
X3.65Y-6.8
X3.9Y-6.7
X4.4Y-6.8
X4.65Y-6.7
X5.15Y-6.8
X5.4Y-6.7
X1.4Y-6.8
X1.65Y-6.7
X2.9Y-6.8
X3.15Y-6.7
T8
X1.35Y-6.9
X1.75Y-6.9
X2.85Y-6.9
X3.25Y-6.9
X6.975Y-6.15
X7.375Y-6.15
X6.6Y-6.9
X7.0Y-6.9
X4.725Y-6.15
X5.125Y-6.15
X0.6Y-6.9
X1.0Y-6.9
X3.225Y-6.15
X3.625Y-6.15
X5.85Y-6.9
X6.25Y-6.9
X2.1Y-6.9
X2.5Y-6.9
X6.225Y-6.15
X6.625Y-6.15
X0.975Y-6.15
X1.375Y-6.15
X3.975Y-6.15
X4.375Y-6.15
X1.725Y-6.15
X2.125Y-6.15
X3.6Y-6.9
X4.0Y-6.9
X4.35Y-6.9
X4.75Y-6.9
X5.1Y-6.9
X5.5Y-6.9
T9
X0.8Y-6.9
X3.425Y-6.15
X6.05Y-6.9
X2.3Y-6.9
X6.425Y-6.15
X1.175Y-6.15
X4.175Y-6.15
X1.925Y-6.15
X3.8Y-6.9
X4.55Y-6.9
X5.3Y-6.9
X1.55Y-6.9
X3.05Y-6.9
X7.175Y-6.15
X6.8Y-6.9
X4.925Y-6.15
T0
M30
