G04 #@! TF.GenerationSoftware,KiCad,Pcbnew,5.1.5+dfsg1-2+b1*
G04 #@! TF.CreationDate,2020-12-03T05:46:07-05:00*
G04 #@! TF.ProjectId,Circuit,43697263-7569-4742-9e6b-696361645f70,rev?*
G04 #@! TF.SameCoordinates,Original*
G04 #@! TF.FileFunction,Legend,Bot*
G04 #@! TF.FilePolarity,Positive*
%FSLAX46Y46*%
G04 Gerber Fmt 4.6, Leading zero omitted, Abs format (unit mm)*
G04 Created by KiCad (PCBNEW 5.1.5+dfsg1-2+b1) date 2020-12-03 05:46:07*
%MOMM*%
%LPD*%
G04 APERTURE LIST*
%ADD10C,0.150000*%
%ADD11C,0.120000*%
G04 APERTURE END LIST*
D10*
X78565952Y-133437380D02*
X78565952Y-134151666D01*
X78518333Y-134294523D01*
X78423095Y-134389761D01*
X78280238Y-134437380D01*
X78185000Y-134437380D01*
X79518333Y-134437380D02*
X79042142Y-134437380D01*
X79042142Y-133437380D01*
X80423095Y-134342142D02*
X80375476Y-134389761D01*
X80232619Y-134437380D01*
X80137380Y-134437380D01*
X79994523Y-134389761D01*
X79899285Y-134294523D01*
X79851666Y-134199285D01*
X79804047Y-134008809D01*
X79804047Y-133865952D01*
X79851666Y-133675476D01*
X79899285Y-133580238D01*
X79994523Y-133485000D01*
X80137380Y-133437380D01*
X80232619Y-133437380D01*
X80375476Y-133485000D01*
X80423095Y-133532619D01*
X81137380Y-133437380D02*
X81137380Y-134151666D01*
X81089761Y-134294523D01*
X80994523Y-134389761D01*
X80851666Y-134437380D01*
X80756428Y-134437380D01*
X82089761Y-134437380D02*
X81613571Y-134437380D01*
X81613571Y-133437380D01*
X82994523Y-134342142D02*
X82946904Y-134389761D01*
X82804047Y-134437380D01*
X82708809Y-134437380D01*
X82565952Y-134389761D01*
X82470714Y-134294523D01*
X82423095Y-134199285D01*
X82375476Y-134008809D01*
X82375476Y-133865952D01*
X82423095Y-133675476D01*
X82470714Y-133580238D01*
X82565952Y-133485000D01*
X82708809Y-133437380D01*
X82804047Y-133437380D01*
X82946904Y-133485000D01*
X82994523Y-133532619D01*
X83708809Y-133437380D02*
X83708809Y-134151666D01*
X83661190Y-134294523D01*
X83565952Y-134389761D01*
X83423095Y-134437380D01*
X83327857Y-134437380D01*
X84661190Y-134437380D02*
X84185000Y-134437380D01*
X84185000Y-133437380D01*
X85565952Y-134342142D02*
X85518333Y-134389761D01*
X85375476Y-134437380D01*
X85280238Y-134437380D01*
X85137380Y-134389761D01*
X85042142Y-134294523D01*
X84994523Y-134199285D01*
X84946904Y-134008809D01*
X84946904Y-133865952D01*
X84994523Y-133675476D01*
X85042142Y-133580238D01*
X85137380Y-133485000D01*
X85280238Y-133437380D01*
X85375476Y-133437380D01*
X85518333Y-133485000D01*
X85565952Y-133532619D01*
X86280238Y-133437380D02*
X86280238Y-134151666D01*
X86232619Y-134294523D01*
X86137380Y-134389761D01*
X85994523Y-134437380D01*
X85899285Y-134437380D01*
X87232619Y-134437380D02*
X86756428Y-134437380D01*
X86756428Y-133437380D01*
X88137380Y-134342142D02*
X88089761Y-134389761D01*
X87946904Y-134437380D01*
X87851666Y-134437380D01*
X87708809Y-134389761D01*
X87613571Y-134294523D01*
X87565952Y-134199285D01*
X87518333Y-134008809D01*
X87518333Y-133865952D01*
X87565952Y-133675476D01*
X87613571Y-133580238D01*
X87708809Y-133485000D01*
X87851666Y-133437380D01*
X87946904Y-133437380D01*
X88089761Y-133485000D01*
X88137380Y-133532619D01*
D11*
X111510000Y36700000D02*
X108970000Y34160000D01*
X122940000Y36700000D02*
X111510000Y36700000D01*
X124590000Y38350000D02*
X122940000Y36700000D01*
X124590000Y103000000D02*
X124590000Y38350000D01*
X115060000Y103000000D02*
X124590000Y103000000D01*
X115060000Y109350000D02*
X115060000Y103000000D01*
X103380000Y109350000D02*
X115060000Y109350000D01*
X103380000Y103000000D02*
X103380000Y109350000D01*
X83310000Y103000000D02*
X103380000Y103000000D01*
X83310000Y104900000D02*
X83310000Y103000000D01*
X74170000Y104900000D02*
X83310000Y104900000D01*
X74170000Y103000000D02*
X74170000Y104900000D01*
X70990000Y103000000D02*
X74170000Y103000000D01*
X70990000Y36700000D02*
X70990000Y103000000D01*
X73660000Y36700000D02*
X70990000Y36700000D01*
X76200000Y34160000D02*
X73660000Y36700000D01*
X108970000Y34160000D02*
X76200000Y34160000D01*
X20970000Y-168520000D02*
X28270000Y-168520000D01*
X20970000Y-164220000D02*
X28270000Y-164220000D01*
X20970000Y-168520000D02*
X20970000Y-164220000D01*
X30495000Y-149470000D02*
X37795000Y-149470000D01*
X30495000Y-145170000D02*
X37795000Y-145170000D01*
X30495000Y-149470000D02*
X30495000Y-145170000D01*
X40020000Y-168520000D02*
X40020000Y-164220000D01*
X40020000Y-164220000D02*
X47320000Y-164220000D01*
X40020000Y-168520000D02*
X47320000Y-168520000D01*
X49545000Y-149470000D02*
X56845000Y-149470000D01*
X49545000Y-145170000D02*
X56845000Y-145170000D01*
X49545000Y-149470000D02*
X49545000Y-145170000D01*
X59070000Y-168520000D02*
X66370000Y-168520000D01*
X59070000Y-164220000D02*
X66370000Y-164220000D01*
X59070000Y-168520000D02*
X59070000Y-164220000D01*
X78120000Y-168520000D02*
X85420000Y-168520000D01*
X78120000Y-164220000D02*
X85420000Y-164220000D01*
X78120000Y-168520000D02*
X78120000Y-164220000D01*
X97170000Y-168520000D02*
X97170000Y-164220000D01*
X97170000Y-164220000D02*
X104470000Y-164220000D01*
X97170000Y-168520000D02*
X104470000Y-168520000D01*
X87645000Y-149470000D02*
X87645000Y-145170000D01*
X87645000Y-145170000D02*
X94945000Y-145170000D01*
X87645000Y-149470000D02*
X94945000Y-149470000D01*
X116220000Y-168520000D02*
X116220000Y-164220000D01*
X116220000Y-164220000D02*
X123520000Y-164220000D01*
X116220000Y-168520000D02*
X123520000Y-168520000D01*
X106695000Y-149470000D02*
X113995000Y-149470000D01*
X106695000Y-145170000D02*
X113995000Y-145170000D01*
X106695000Y-149470000D02*
X106695000Y-145170000D01*
X125745000Y-149470000D02*
X125745000Y-145170000D01*
X125745000Y-145170000D02*
X133045000Y-145170000D01*
X125745000Y-149470000D02*
X133045000Y-149470000D01*
X135270000Y-168520000D02*
X135270000Y-164220000D01*
X135270000Y-164220000D02*
X142570000Y-164220000D01*
X135270000Y-168520000D02*
X142570000Y-168520000D01*
X154320000Y-168520000D02*
X154320000Y-164220000D01*
X154320000Y-164220000D02*
X161620000Y-164220000D01*
X154320000Y-168520000D02*
X161620000Y-168520000D01*
X163845000Y-149470000D02*
X163845000Y-145170000D01*
X163845000Y-145170000D02*
X171145000Y-145170000D01*
X163845000Y-149470000D02*
X171145000Y-149470000D01*
X173370000Y-168520000D02*
X180670000Y-168520000D01*
X173370000Y-164220000D02*
X180670000Y-164220000D01*
X173370000Y-168520000D02*
X173370000Y-164220000D01*
X182895000Y-149470000D02*
X190195000Y-149470000D01*
X182895000Y-145170000D02*
X190195000Y-145170000D01*
X182895000Y-149470000D02*
X182895000Y-145170000D01*
D10*
X70016666Y74374285D02*
X70016666Y73898095D01*
X70302380Y74469523D02*
X69302380Y74136190D01*
X70302380Y73802857D01*
X70302380Y72945714D02*
X70302380Y73517142D01*
X70302380Y73231428D02*
X69302380Y73231428D01*
X69445238Y73326666D01*
X69540476Y73421904D01*
X69588095Y73517142D01*
X26308095Y-169822380D02*
X26308095Y-168822380D01*
X26070000Y-168822380D01*
X25927142Y-168870000D01*
X25831904Y-168965238D01*
X25784285Y-169060476D01*
X25736666Y-169250952D01*
X25736666Y-169393809D01*
X25784285Y-169584285D01*
X25831904Y-169679523D01*
X25927142Y-169774761D01*
X26070000Y-169822380D01*
X26308095Y-169822380D01*
X24784285Y-169822380D02*
X25355714Y-169822380D01*
X25070000Y-169822380D02*
X25070000Y-168822380D01*
X25165238Y-168965238D01*
X25260476Y-169060476D01*
X25355714Y-169108095D01*
X35833095Y-150772380D02*
X35833095Y-149772380D01*
X35595000Y-149772380D01*
X35452142Y-149820000D01*
X35356904Y-149915238D01*
X35309285Y-150010476D01*
X35261666Y-150200952D01*
X35261666Y-150343809D01*
X35309285Y-150534285D01*
X35356904Y-150629523D01*
X35452142Y-150724761D01*
X35595000Y-150772380D01*
X35833095Y-150772380D01*
X34880714Y-149867619D02*
X34833095Y-149820000D01*
X34737857Y-149772380D01*
X34499761Y-149772380D01*
X34404523Y-149820000D01*
X34356904Y-149867619D01*
X34309285Y-149962857D01*
X34309285Y-150058095D01*
X34356904Y-150200952D01*
X34928333Y-150772380D01*
X34309285Y-150772380D01*
X45358095Y-169822380D02*
X45358095Y-168822380D01*
X45120000Y-168822380D01*
X44977142Y-168870000D01*
X44881904Y-168965238D01*
X44834285Y-169060476D01*
X44786666Y-169250952D01*
X44786666Y-169393809D01*
X44834285Y-169584285D01*
X44881904Y-169679523D01*
X44977142Y-169774761D01*
X45120000Y-169822380D01*
X45358095Y-169822380D01*
X44453333Y-168822380D02*
X43834285Y-168822380D01*
X44167619Y-169203333D01*
X44024761Y-169203333D01*
X43929523Y-169250952D01*
X43881904Y-169298571D01*
X43834285Y-169393809D01*
X43834285Y-169631904D01*
X43881904Y-169727142D01*
X43929523Y-169774761D01*
X44024761Y-169822380D01*
X44310476Y-169822380D01*
X44405714Y-169774761D01*
X44453333Y-169727142D01*
X54883095Y-150772380D02*
X54883095Y-149772380D01*
X54645000Y-149772380D01*
X54502142Y-149820000D01*
X54406904Y-149915238D01*
X54359285Y-150010476D01*
X54311666Y-150200952D01*
X54311666Y-150343809D01*
X54359285Y-150534285D01*
X54406904Y-150629523D01*
X54502142Y-150724761D01*
X54645000Y-150772380D01*
X54883095Y-150772380D01*
X53454523Y-150105714D02*
X53454523Y-150772380D01*
X53692619Y-149724761D02*
X53930714Y-150439047D01*
X53311666Y-150439047D01*
X64408095Y-169822380D02*
X64408095Y-168822380D01*
X64170000Y-168822380D01*
X64027142Y-168870000D01*
X63931904Y-168965238D01*
X63884285Y-169060476D01*
X63836666Y-169250952D01*
X63836666Y-169393809D01*
X63884285Y-169584285D01*
X63931904Y-169679523D01*
X64027142Y-169774761D01*
X64170000Y-169822380D01*
X64408095Y-169822380D01*
X62931904Y-168822380D02*
X63408095Y-168822380D01*
X63455714Y-169298571D01*
X63408095Y-169250952D01*
X63312857Y-169203333D01*
X63074761Y-169203333D01*
X62979523Y-169250952D01*
X62931904Y-169298571D01*
X62884285Y-169393809D01*
X62884285Y-169631904D01*
X62931904Y-169727142D01*
X62979523Y-169774761D01*
X63074761Y-169822380D01*
X63312857Y-169822380D01*
X63408095Y-169774761D01*
X63455714Y-169727142D01*
X83458095Y-169822380D02*
X83458095Y-168822380D01*
X83220000Y-168822380D01*
X83077142Y-168870000D01*
X82981904Y-168965238D01*
X82934285Y-169060476D01*
X82886666Y-169250952D01*
X82886666Y-169393809D01*
X82934285Y-169584285D01*
X82981904Y-169679523D01*
X83077142Y-169774761D01*
X83220000Y-169822380D01*
X83458095Y-169822380D01*
X82029523Y-168822380D02*
X82220000Y-168822380D01*
X82315238Y-168870000D01*
X82362857Y-168917619D01*
X82458095Y-169060476D01*
X82505714Y-169250952D01*
X82505714Y-169631904D01*
X82458095Y-169727142D01*
X82410476Y-169774761D01*
X82315238Y-169822380D01*
X82124761Y-169822380D01*
X82029523Y-169774761D01*
X81981904Y-169727142D01*
X81934285Y-169631904D01*
X81934285Y-169393809D01*
X81981904Y-169298571D01*
X82029523Y-169250952D01*
X82124761Y-169203333D01*
X82315238Y-169203333D01*
X82410476Y-169250952D01*
X82458095Y-169298571D01*
X82505714Y-169393809D01*
X102508095Y-169822380D02*
X102508095Y-168822380D01*
X102270000Y-168822380D01*
X102127142Y-168870000D01*
X102031904Y-168965238D01*
X101984285Y-169060476D01*
X101936666Y-169250952D01*
X101936666Y-169393809D01*
X101984285Y-169584285D01*
X102031904Y-169679523D01*
X102127142Y-169774761D01*
X102270000Y-169822380D01*
X102508095Y-169822380D01*
X101603333Y-168822380D02*
X100936666Y-168822380D01*
X101365238Y-169822380D01*
X92983095Y-150772380D02*
X92983095Y-149772380D01*
X92745000Y-149772380D01*
X92602142Y-149820000D01*
X92506904Y-149915238D01*
X92459285Y-150010476D01*
X92411666Y-150200952D01*
X92411666Y-150343809D01*
X92459285Y-150534285D01*
X92506904Y-150629523D01*
X92602142Y-150724761D01*
X92745000Y-150772380D01*
X92983095Y-150772380D01*
X91840238Y-150200952D02*
X91935476Y-150153333D01*
X91983095Y-150105714D01*
X92030714Y-150010476D01*
X92030714Y-149962857D01*
X91983095Y-149867619D01*
X91935476Y-149820000D01*
X91840238Y-149772380D01*
X91649761Y-149772380D01*
X91554523Y-149820000D01*
X91506904Y-149867619D01*
X91459285Y-149962857D01*
X91459285Y-150010476D01*
X91506904Y-150105714D01*
X91554523Y-150153333D01*
X91649761Y-150200952D01*
X91840238Y-150200952D01*
X91935476Y-150248571D01*
X91983095Y-150296190D01*
X92030714Y-150391428D01*
X92030714Y-150581904D01*
X91983095Y-150677142D01*
X91935476Y-150724761D01*
X91840238Y-150772380D01*
X91649761Y-150772380D01*
X91554523Y-150724761D01*
X91506904Y-150677142D01*
X91459285Y-150581904D01*
X91459285Y-150391428D01*
X91506904Y-150296190D01*
X91554523Y-150248571D01*
X91649761Y-150200952D01*
X121558095Y-169822380D02*
X121558095Y-168822380D01*
X121320000Y-168822380D01*
X121177142Y-168870000D01*
X121081904Y-168965238D01*
X121034285Y-169060476D01*
X120986666Y-169250952D01*
X120986666Y-169393809D01*
X121034285Y-169584285D01*
X121081904Y-169679523D01*
X121177142Y-169774761D01*
X121320000Y-169822380D01*
X121558095Y-169822380D01*
X120510476Y-169822380D02*
X120320000Y-169822380D01*
X120224761Y-169774761D01*
X120177142Y-169727142D01*
X120081904Y-169584285D01*
X120034285Y-169393809D01*
X120034285Y-169012857D01*
X120081904Y-168917619D01*
X120129523Y-168870000D01*
X120224761Y-168822380D01*
X120415238Y-168822380D01*
X120510476Y-168870000D01*
X120558095Y-168917619D01*
X120605714Y-169012857D01*
X120605714Y-169250952D01*
X120558095Y-169346190D01*
X120510476Y-169393809D01*
X120415238Y-169441428D01*
X120224761Y-169441428D01*
X120129523Y-169393809D01*
X120081904Y-169346190D01*
X120034285Y-169250952D01*
X112509285Y-150772380D02*
X112509285Y-149772380D01*
X112271190Y-149772380D01*
X112128333Y-149820000D01*
X112033095Y-149915238D01*
X111985476Y-150010476D01*
X111937857Y-150200952D01*
X111937857Y-150343809D01*
X111985476Y-150534285D01*
X112033095Y-150629523D01*
X112128333Y-150724761D01*
X112271190Y-150772380D01*
X112509285Y-150772380D01*
X110985476Y-150772380D02*
X111556904Y-150772380D01*
X111271190Y-150772380D02*
X111271190Y-149772380D01*
X111366428Y-149915238D01*
X111461666Y-150010476D01*
X111556904Y-150058095D01*
X110366428Y-149772380D02*
X110271190Y-149772380D01*
X110175952Y-149820000D01*
X110128333Y-149867619D01*
X110080714Y-149962857D01*
X110033095Y-150153333D01*
X110033095Y-150391428D01*
X110080714Y-150581904D01*
X110128333Y-150677142D01*
X110175952Y-150724761D01*
X110271190Y-150772380D01*
X110366428Y-150772380D01*
X110461666Y-150724761D01*
X110509285Y-150677142D01*
X110556904Y-150581904D01*
X110604523Y-150391428D01*
X110604523Y-150153333D01*
X110556904Y-149962857D01*
X110509285Y-149867619D01*
X110461666Y-149820000D01*
X110366428Y-149772380D01*
X131559285Y-150772380D02*
X131559285Y-149772380D01*
X131321190Y-149772380D01*
X131178333Y-149820000D01*
X131083095Y-149915238D01*
X131035476Y-150010476D01*
X130987857Y-150200952D01*
X130987857Y-150343809D01*
X131035476Y-150534285D01*
X131083095Y-150629523D01*
X131178333Y-150724761D01*
X131321190Y-150772380D01*
X131559285Y-150772380D01*
X130035476Y-150772380D02*
X130606904Y-150772380D01*
X130321190Y-150772380D02*
X130321190Y-149772380D01*
X130416428Y-149915238D01*
X130511666Y-150010476D01*
X130606904Y-150058095D01*
X129083095Y-150772380D02*
X129654523Y-150772380D01*
X129368809Y-150772380D02*
X129368809Y-149772380D01*
X129464047Y-149915238D01*
X129559285Y-150010476D01*
X129654523Y-150058095D01*
X141084285Y-169822380D02*
X141084285Y-168822380D01*
X140846190Y-168822380D01*
X140703333Y-168870000D01*
X140608095Y-168965238D01*
X140560476Y-169060476D01*
X140512857Y-169250952D01*
X140512857Y-169393809D01*
X140560476Y-169584285D01*
X140608095Y-169679523D01*
X140703333Y-169774761D01*
X140846190Y-169822380D01*
X141084285Y-169822380D01*
X139560476Y-169822380D02*
X140131904Y-169822380D01*
X139846190Y-169822380D02*
X139846190Y-168822380D01*
X139941428Y-168965238D01*
X140036666Y-169060476D01*
X140131904Y-169108095D01*
X139179523Y-168917619D02*
X139131904Y-168870000D01*
X139036666Y-168822380D01*
X138798571Y-168822380D01*
X138703333Y-168870000D01*
X138655714Y-168917619D01*
X138608095Y-169012857D01*
X138608095Y-169108095D01*
X138655714Y-169250952D01*
X139227142Y-169822380D01*
X138608095Y-169822380D01*
X160134285Y-169822380D02*
X160134285Y-168822380D01*
X159896190Y-168822380D01*
X159753333Y-168870000D01*
X159658095Y-168965238D01*
X159610476Y-169060476D01*
X159562857Y-169250952D01*
X159562857Y-169393809D01*
X159610476Y-169584285D01*
X159658095Y-169679523D01*
X159753333Y-169774761D01*
X159896190Y-169822380D01*
X160134285Y-169822380D01*
X158610476Y-169822380D02*
X159181904Y-169822380D01*
X158896190Y-169822380D02*
X158896190Y-168822380D01*
X158991428Y-168965238D01*
X159086666Y-169060476D01*
X159181904Y-169108095D01*
X158277142Y-168822380D02*
X157658095Y-168822380D01*
X157991428Y-169203333D01*
X157848571Y-169203333D01*
X157753333Y-169250952D01*
X157705714Y-169298571D01*
X157658095Y-169393809D01*
X157658095Y-169631904D01*
X157705714Y-169727142D01*
X157753333Y-169774761D01*
X157848571Y-169822380D01*
X158134285Y-169822380D01*
X158229523Y-169774761D01*
X158277142Y-169727142D01*
X169659285Y-150772380D02*
X169659285Y-149772380D01*
X169421190Y-149772380D01*
X169278333Y-149820000D01*
X169183095Y-149915238D01*
X169135476Y-150010476D01*
X169087857Y-150200952D01*
X169087857Y-150343809D01*
X169135476Y-150534285D01*
X169183095Y-150629523D01*
X169278333Y-150724761D01*
X169421190Y-150772380D01*
X169659285Y-150772380D01*
X168135476Y-150772380D02*
X168706904Y-150772380D01*
X168421190Y-150772380D02*
X168421190Y-149772380D01*
X168516428Y-149915238D01*
X168611666Y-150010476D01*
X168706904Y-150058095D01*
X167278333Y-150105714D02*
X167278333Y-150772380D01*
X167516428Y-149724761D02*
X167754523Y-150439047D01*
X167135476Y-150439047D01*
X179184285Y-169822380D02*
X179184285Y-168822380D01*
X178946190Y-168822380D01*
X178803333Y-168870000D01*
X178708095Y-168965238D01*
X178660476Y-169060476D01*
X178612857Y-169250952D01*
X178612857Y-169393809D01*
X178660476Y-169584285D01*
X178708095Y-169679523D01*
X178803333Y-169774761D01*
X178946190Y-169822380D01*
X179184285Y-169822380D01*
X177660476Y-169822380D02*
X178231904Y-169822380D01*
X177946190Y-169822380D02*
X177946190Y-168822380D01*
X178041428Y-168965238D01*
X178136666Y-169060476D01*
X178231904Y-169108095D01*
X176755714Y-168822380D02*
X177231904Y-168822380D01*
X177279523Y-169298571D01*
X177231904Y-169250952D01*
X177136666Y-169203333D01*
X176898571Y-169203333D01*
X176803333Y-169250952D01*
X176755714Y-169298571D01*
X176708095Y-169393809D01*
X176708095Y-169631904D01*
X176755714Y-169727142D01*
X176803333Y-169774761D01*
X176898571Y-169822380D01*
X177136666Y-169822380D01*
X177231904Y-169774761D01*
X177279523Y-169727142D01*
X188709285Y-150772380D02*
X188709285Y-149772380D01*
X188471190Y-149772380D01*
X188328333Y-149820000D01*
X188233095Y-149915238D01*
X188185476Y-150010476D01*
X188137857Y-150200952D01*
X188137857Y-150343809D01*
X188185476Y-150534285D01*
X188233095Y-150629523D01*
X188328333Y-150724761D01*
X188471190Y-150772380D01*
X188709285Y-150772380D01*
X187185476Y-150772380D02*
X187756904Y-150772380D01*
X187471190Y-150772380D02*
X187471190Y-149772380D01*
X187566428Y-149915238D01*
X187661666Y-150010476D01*
X187756904Y-150058095D01*
X186328333Y-149772380D02*
X186518809Y-149772380D01*
X186614047Y-149820000D01*
X186661666Y-149867619D01*
X186756904Y-150010476D01*
X186804523Y-150200952D01*
X186804523Y-150581904D01*
X186756904Y-150677142D01*
X186709285Y-150724761D01*
X186614047Y-150772380D01*
X186423571Y-150772380D01*
X186328333Y-150724761D01*
X186280714Y-150677142D01*
X186233095Y-150581904D01*
X186233095Y-150343809D01*
X186280714Y-150248571D01*
X186328333Y-150200952D01*
X186423571Y-150153333D01*
X186614047Y-150153333D01*
X186709285Y-150200952D01*
X186756904Y-150248571D01*
X186804523Y-150343809D01*
M02*
