G04 #@! TF.GenerationSoftware,KiCad,Pcbnew,5.1.5+dfsg1-2+b1*
G04 #@! TF.CreationDate,2020-12-03T05:46:07-05:00*
G04 #@! TF.ProjectId,Circuit,43697263-7569-4742-9e6b-696361645f70,rev?*
G04 #@! TF.SameCoordinates,Original*
G04 #@! TF.FileFunction,Legend,Top*
G04 #@! TF.FilePolarity,Positive*
%FSLAX46Y46*%
G04 Gerber Fmt 4.6, Leading zero omitted, Abs format (unit mm)*
G04 Created by KiCad (PCBNEW 5.1.5+dfsg1-2+b1) date 2020-12-03 05:46:07*
%MOMM*%
%LPD*%
G04 APERTURE LIST*
%ADD10C,0.150000*%
%ADD11C,0.120000*%
%ADD12C,0.300000*%
%ADD13C,0.100000*%
G04 APERTURE END LIST*
D10*
X17689285Y80472142D02*
X18189285Y80472142D01*
X18403571Y79686428D02*
X17689285Y79686428D01*
X17689285Y81186428D01*
X18403571Y81186428D01*
X19046428Y79686428D02*
X19046428Y81186428D01*
X19046428Y80615000D02*
X19189285Y80686428D01*
X19475000Y80686428D01*
X19617857Y80615000D01*
X19689285Y80543571D01*
X19760714Y80400714D01*
X19760714Y79972142D01*
X19689285Y79829285D01*
X19617857Y79757857D01*
X19475000Y79686428D01*
X19189285Y79686428D01*
X19046428Y79757857D01*
X20403571Y79686428D02*
X20403571Y80686428D01*
X20403571Y80400714D02*
X20475000Y80543571D01*
X20546428Y80615000D01*
X20689285Y80686428D01*
X20832142Y80686428D01*
X21975000Y79686428D02*
X21975000Y80472142D01*
X21903571Y80615000D01*
X21760714Y80686428D01*
X21475000Y80686428D01*
X21332142Y80615000D01*
X21975000Y79757857D02*
X21832142Y79686428D01*
X21475000Y79686428D01*
X21332142Y79757857D01*
X21260714Y79900714D01*
X21260714Y80043571D01*
X21332142Y80186428D01*
X21475000Y80257857D01*
X21832142Y80257857D01*
X21975000Y80329285D01*
X22689285Y79686428D02*
X22689285Y81186428D01*
X23332142Y79686428D02*
X23332142Y80472142D01*
X23260714Y80615000D01*
X23117857Y80686428D01*
X22903571Y80686428D01*
X22760714Y80615000D01*
X22689285Y80543571D01*
X24046428Y79686428D02*
X24046428Y80686428D01*
X24046428Y81186428D02*
X23975000Y81115000D01*
X24046428Y81043571D01*
X24117857Y81115000D01*
X24046428Y81186428D01*
X24046428Y81043571D01*
X24760714Y79686428D02*
X24760714Y80686428D01*
X24760714Y80543571D02*
X24832142Y80615000D01*
X24975000Y80686428D01*
X25189285Y80686428D01*
X25332142Y80615000D01*
X25403571Y80472142D01*
X25403571Y79686428D01*
X25403571Y80472142D02*
X25475000Y80615000D01*
X25617857Y80686428D01*
X25832142Y80686428D01*
X25975000Y80615000D01*
X26046428Y80472142D01*
X26046428Y79686428D01*
X26760714Y79686428D02*
X26760714Y80686428D01*
X26760714Y81186428D02*
X26689285Y81115000D01*
X26760714Y81043571D01*
X26832142Y81115000D01*
X26760714Y81186428D01*
X26760714Y81043571D01*
X19617857Y78072142D02*
X19117857Y78072142D01*
X19117857Y77286428D02*
X19117857Y78786428D01*
X19832142Y78786428D01*
X20403571Y77286428D02*
X20403571Y78286428D01*
X20403571Y78000714D02*
X20475000Y78143571D01*
X20546428Y78215000D01*
X20689285Y78286428D01*
X20832142Y78286428D01*
X21332142Y77286428D02*
X21332142Y78286428D01*
X21332142Y78786428D02*
X21260714Y78715000D01*
X21332142Y78643571D01*
X21403571Y78715000D01*
X21332142Y78786428D01*
X21332142Y78643571D01*
X22617857Y77357857D02*
X22475000Y77286428D01*
X22189285Y77286428D01*
X22046428Y77357857D01*
X21975000Y77500714D01*
X21975000Y78072142D01*
X22046428Y78215000D01*
X22189285Y78286428D01*
X22475000Y78286428D01*
X22617857Y78215000D01*
X22689285Y78072142D01*
X22689285Y77929285D01*
X21975000Y77786428D01*
X23975000Y77286428D02*
X23975000Y78786428D01*
X23975000Y77357857D02*
X23832142Y77286428D01*
X23546428Y77286428D01*
X23403571Y77357857D01*
X23332142Y77429285D01*
X23260714Y77572142D01*
X23260714Y78000714D01*
X23332142Y78143571D01*
X23403571Y78215000D01*
X23546428Y78286428D01*
X23832142Y78286428D01*
X23975000Y78215000D01*
X25332142Y77286428D02*
X25332142Y78072142D01*
X25260714Y78215000D01*
X25117857Y78286428D01*
X24832142Y78286428D01*
X24689285Y78215000D01*
X25332142Y77357857D02*
X25189285Y77286428D01*
X24832142Y77286428D01*
X24689285Y77357857D01*
X24617857Y77500714D01*
X24617857Y77643571D01*
X24689285Y77786428D01*
X24832142Y77857857D01*
X25189285Y77857857D01*
X25332142Y77929285D01*
X18296428Y74886428D02*
X18296428Y76386428D01*
X19010714Y75886428D02*
X19010714Y74886428D01*
X19010714Y75743571D02*
X19082142Y75815000D01*
X19225000Y75886428D01*
X19439285Y75886428D01*
X19582142Y75815000D01*
X19653571Y75672142D01*
X19653571Y74886428D01*
X21010714Y74886428D02*
X21010714Y76386428D01*
X21010714Y74957857D02*
X20867857Y74886428D01*
X20582142Y74886428D01*
X20439285Y74957857D01*
X20367857Y75029285D01*
X20296428Y75172142D01*
X20296428Y75600714D01*
X20367857Y75743571D01*
X20439285Y75815000D01*
X20582142Y75886428D01*
X20867857Y75886428D01*
X21010714Y75815000D01*
X21725000Y74886428D02*
X21725000Y75886428D01*
X21725000Y76386428D02*
X21653571Y76315000D01*
X21725000Y76243571D01*
X21796428Y76315000D01*
X21725000Y76386428D01*
X21725000Y76243571D01*
X23082142Y74957857D02*
X22939285Y74886428D01*
X22653571Y74886428D01*
X22510714Y74957857D01*
X22439285Y75029285D01*
X22367857Y75172142D01*
X22367857Y75600714D01*
X22439285Y75743571D01*
X22510714Y75815000D01*
X22653571Y75886428D01*
X22939285Y75886428D01*
X23082142Y75815000D01*
X23510714Y75886428D02*
X24082142Y75886428D01*
X23725000Y76386428D02*
X23725000Y75100714D01*
X23796428Y74957857D01*
X23939285Y74886428D01*
X24082142Y74886428D01*
X24796428Y74886428D02*
X24653571Y74957857D01*
X24582142Y75029285D01*
X24510714Y75172142D01*
X24510714Y75600714D01*
X24582142Y75743571D01*
X24653571Y75815000D01*
X24796428Y75886428D01*
X25010714Y75886428D01*
X25153571Y75815000D01*
X25225000Y75743571D01*
X25296428Y75600714D01*
X25296428Y75172142D01*
X25225000Y75029285D01*
X25153571Y74957857D01*
X25010714Y74886428D01*
X24796428Y74886428D01*
X25939285Y74886428D02*
X25939285Y75886428D01*
X25939285Y75600714D02*
X26010714Y75743571D01*
X26082142Y75815000D01*
X26225000Y75886428D01*
X26367857Y75886428D01*
X17546428Y72486428D02*
X17546428Y73986428D01*
X18046428Y72915000D01*
X18546428Y73986428D01*
X18546428Y72486428D01*
X19903571Y72486428D02*
X19903571Y73272142D01*
X19832142Y73415000D01*
X19689285Y73486428D01*
X19403571Y73486428D01*
X19260714Y73415000D01*
X19903571Y72557857D02*
X19760714Y72486428D01*
X19403571Y72486428D01*
X19260714Y72557857D01*
X19189285Y72700714D01*
X19189285Y72843571D01*
X19260714Y72986428D01*
X19403571Y73057857D01*
X19760714Y73057857D01*
X19903571Y73129285D01*
X20617857Y73486428D02*
X20617857Y72486428D01*
X20617857Y73343571D02*
X20689285Y73415000D01*
X20832142Y73486428D01*
X21046428Y73486428D01*
X21189285Y73415000D01*
X21260714Y73272142D01*
X21260714Y72486428D01*
X21975000Y72486428D02*
X21975000Y73486428D01*
X21975000Y73200714D02*
X22046428Y73343571D01*
X22117857Y73415000D01*
X22260714Y73486428D01*
X22403571Y73486428D01*
X22903571Y72486428D02*
X22903571Y73486428D01*
X22903571Y73986428D02*
X22832142Y73915000D01*
X22903571Y73843571D01*
X22975000Y73915000D01*
X22903571Y73986428D01*
X22903571Y73843571D01*
X24260714Y73486428D02*
X24260714Y71986428D01*
X24260714Y72557857D02*
X24117857Y72486428D01*
X23832142Y72486428D01*
X23689285Y72557857D01*
X23617857Y72629285D01*
X23546428Y72772142D01*
X23546428Y73200714D01*
X23617857Y73343571D01*
X23689285Y73415000D01*
X23832142Y73486428D01*
X24117857Y73486428D01*
X24260714Y73415000D01*
X25617857Y73486428D02*
X25617857Y72486428D01*
X24975000Y73486428D02*
X24975000Y72700714D01*
X25046428Y72557857D01*
X25189285Y72486428D01*
X25403571Y72486428D01*
X25546428Y72557857D01*
X25617857Y72629285D01*
X26903571Y72557857D02*
X26760714Y72486428D01*
X26475000Y72486428D01*
X26332142Y72557857D01*
X26260714Y72700714D01*
X26260714Y73272142D01*
X26332142Y73415000D01*
X26475000Y73486428D01*
X26760714Y73486428D01*
X26903571Y73415000D01*
X26975000Y73272142D01*
X26975000Y73129285D01*
X26260714Y72986428D01*
X21046428Y71586428D02*
X22046428Y70086428D01*
X22046428Y71586428D02*
X21046428Y70086428D01*
X23260714Y71086428D02*
X23260714Y70086428D01*
X22617857Y71086428D02*
X22617857Y70300714D01*
X22689285Y70157857D01*
X22832142Y70086428D01*
X23046428Y70086428D01*
X23189285Y70157857D01*
X23260714Y70229285D01*
X202382380Y-44910952D02*
X202430000Y-44958571D01*
X202477619Y-45053809D01*
X202477619Y-45291904D01*
X202430000Y-45387142D01*
X202382380Y-45434761D01*
X202287142Y-45482380D01*
X202191904Y-45482380D01*
X202049047Y-45434761D01*
X201477619Y-44863333D01*
X201477619Y-45482380D01*
X202477619Y-45815714D02*
X202477619Y-46482380D01*
X201477619Y-46053809D01*
X201477619Y-47387142D02*
X201477619Y-46815714D01*
X201477619Y-47101428D02*
X202477619Y-47101428D01*
X202334761Y-47006190D01*
X202239523Y-46910952D01*
X202191904Y-46815714D01*
X201572857Y-47815714D02*
X201525238Y-47863333D01*
X201477619Y-47815714D01*
X201525238Y-47768095D01*
X201572857Y-47815714D01*
X201477619Y-47815714D01*
X202477619Y-48196666D02*
X202477619Y-48863333D01*
X201477619Y-48434761D01*
X202049047Y-49387142D02*
X202096666Y-49291904D01*
X202144285Y-49244285D01*
X202239523Y-49196666D01*
X202287142Y-49196666D01*
X202382380Y-49244285D01*
X202430000Y-49291904D01*
X202477619Y-49387142D01*
X202477619Y-49577619D01*
X202430000Y-49672857D01*
X202382380Y-49720476D01*
X202287142Y-49768095D01*
X202239523Y-49768095D01*
X202144285Y-49720476D01*
X202096666Y-49672857D01*
X202049047Y-49577619D01*
X202049047Y-49387142D01*
X202001428Y-49291904D01*
X201953809Y-49244285D01*
X201858571Y-49196666D01*
X201668095Y-49196666D01*
X201572857Y-49244285D01*
X201525238Y-49291904D01*
X201477619Y-49387142D01*
X201477619Y-49577619D01*
X201525238Y-49672857D01*
X201572857Y-49720476D01*
X201668095Y-49768095D01*
X201858571Y-49768095D01*
X201953809Y-49720476D01*
X202001428Y-49672857D01*
X202049047Y-49577619D01*
X202477619Y-50387142D02*
X202477619Y-50482380D01*
X202430000Y-50577619D01*
X202382380Y-50625238D01*
X202287142Y-50672857D01*
X202096666Y-50720476D01*
X201858571Y-50720476D01*
X201668095Y-50672857D01*
X201572857Y-50625238D01*
X201525238Y-50577619D01*
X201477619Y-50482380D01*
X201477619Y-50387142D01*
X201525238Y-50291904D01*
X201572857Y-50244285D01*
X201668095Y-50196666D01*
X201858571Y-50149047D01*
X202096666Y-50149047D01*
X202287142Y-50196666D01*
X202382380Y-50244285D01*
X202430000Y-50291904D01*
X202477619Y-50387142D01*
X201477619Y-51910952D02*
X202144285Y-51910952D01*
X202049047Y-51910952D02*
X202096666Y-51958571D01*
X202144285Y-52053809D01*
X202144285Y-52196666D01*
X202096666Y-52291904D01*
X202001428Y-52339523D01*
X201477619Y-52339523D01*
X202001428Y-52339523D02*
X202096666Y-52387142D01*
X202144285Y-52482380D01*
X202144285Y-52625238D01*
X202096666Y-52720476D01*
X202001428Y-52768095D01*
X201477619Y-52768095D01*
X201477619Y-53244285D02*
X202144285Y-53244285D01*
X202049047Y-53244285D02*
X202096666Y-53291904D01*
X202144285Y-53387142D01*
X202144285Y-53530000D01*
X202096666Y-53625238D01*
X202001428Y-53672857D01*
X201477619Y-53672857D01*
X202001428Y-53672857D02*
X202096666Y-53720476D01*
X202144285Y-53815714D01*
X202144285Y-53958571D01*
X202096666Y-54053809D01*
X202001428Y-54101428D01*
X201477619Y-54101428D01*
D11*
X200660000Y86360000D02*
X200660000Y-185420000D01*
X193040000Y86360000D02*
X201246421Y86360000D01*
X193040000Y-185420000D02*
X201246421Y-185420000D01*
X200660000Y-185420000D02*
X200073579Y-184293496D01*
X200660000Y-185420000D02*
X201246421Y-184293496D01*
X200660000Y86360000D02*
X200073579Y85233496D01*
X200660000Y86360000D02*
X201246421Y85233496D01*
D10*
X97552380Y91622619D02*
X96980952Y91622619D01*
X97266666Y91622619D02*
X97266666Y92622619D01*
X97171428Y92479761D01*
X97076190Y92384523D01*
X96980952Y92336904D01*
X98123809Y92194047D02*
X98028571Y92241666D01*
X97980952Y92289285D01*
X97933333Y92384523D01*
X97933333Y92432142D01*
X97980952Y92527380D01*
X98028571Y92575000D01*
X98123809Y92622619D01*
X98314285Y92622619D01*
X98409523Y92575000D01*
X98457142Y92527380D01*
X98504761Y92432142D01*
X98504761Y92384523D01*
X98457142Y92289285D01*
X98409523Y92241666D01*
X98314285Y92194047D01*
X98123809Y92194047D01*
X98028571Y92146428D01*
X97980952Y92098809D01*
X97933333Y92003571D01*
X97933333Y91813095D01*
X97980952Y91717857D01*
X98028571Y91670238D01*
X98123809Y91622619D01*
X98314285Y91622619D01*
X98409523Y91670238D01*
X98457142Y91717857D01*
X98504761Y91813095D01*
X98504761Y92003571D01*
X98457142Y92098809D01*
X98409523Y92146428D01*
X98314285Y92194047D01*
X98885714Y92527380D02*
X98933333Y92575000D01*
X99028571Y92622619D01*
X99266666Y92622619D01*
X99361904Y92575000D01*
X99409523Y92527380D01*
X99457142Y92432142D01*
X99457142Y92336904D01*
X99409523Y92194047D01*
X98838095Y91622619D01*
X99457142Y91622619D01*
X99885714Y91717857D02*
X99933333Y91670238D01*
X99885714Y91622619D01*
X99838095Y91670238D01*
X99885714Y91717857D01*
X99885714Y91622619D01*
X100504761Y92194047D02*
X100409523Y92241666D01*
X100361904Y92289285D01*
X100314285Y92384523D01*
X100314285Y92432142D01*
X100361904Y92527380D01*
X100409523Y92575000D01*
X100504761Y92622619D01*
X100695238Y92622619D01*
X100790476Y92575000D01*
X100838095Y92527380D01*
X100885714Y92432142D01*
X100885714Y92384523D01*
X100838095Y92289285D01*
X100790476Y92241666D01*
X100695238Y92194047D01*
X100504761Y92194047D01*
X100409523Y92146428D01*
X100361904Y92098809D01*
X100314285Y92003571D01*
X100314285Y91813095D01*
X100361904Y91717857D01*
X100409523Y91670238D01*
X100504761Y91622619D01*
X100695238Y91622619D01*
X100790476Y91670238D01*
X100838095Y91717857D01*
X100885714Y91813095D01*
X100885714Y92003571D01*
X100838095Y92098809D01*
X100790476Y92146428D01*
X100695238Y92194047D01*
X101457142Y92194047D02*
X101361904Y92241666D01*
X101314285Y92289285D01*
X101266666Y92384523D01*
X101266666Y92432142D01*
X101314285Y92527380D01*
X101361904Y92575000D01*
X101457142Y92622619D01*
X101647619Y92622619D01*
X101742857Y92575000D01*
X101790476Y92527380D01*
X101838095Y92432142D01*
X101838095Y92384523D01*
X101790476Y92289285D01*
X101742857Y92241666D01*
X101647619Y92194047D01*
X101457142Y92194047D01*
X101361904Y92146428D01*
X101314285Y92098809D01*
X101266666Y92003571D01*
X101266666Y91813095D01*
X101314285Y91717857D01*
X101361904Y91670238D01*
X101457142Y91622619D01*
X101647619Y91622619D01*
X101742857Y91670238D01*
X101790476Y91717857D01*
X101838095Y91813095D01*
X101838095Y92003571D01*
X101790476Y92098809D01*
X101742857Y92146428D01*
X101647619Y92194047D01*
X102457142Y92622619D02*
X102552380Y92622619D01*
X102647619Y92575000D01*
X102695238Y92527380D01*
X102742857Y92432142D01*
X102790476Y92241666D01*
X102790476Y92003571D01*
X102742857Y91813095D01*
X102695238Y91717857D01*
X102647619Y91670238D01*
X102552380Y91622619D01*
X102457142Y91622619D01*
X102361904Y91670238D01*
X102314285Y91717857D01*
X102266666Y91813095D01*
X102219047Y92003571D01*
X102219047Y92241666D01*
X102266666Y92432142D01*
X102314285Y92527380D01*
X102361904Y92575000D01*
X102457142Y92622619D01*
X103980952Y91622619D02*
X103980952Y92289285D01*
X103980952Y92194047D02*
X104028571Y92241666D01*
X104123809Y92289285D01*
X104266666Y92289285D01*
X104361904Y92241666D01*
X104409523Y92146428D01*
X104409523Y91622619D01*
X104409523Y92146428D02*
X104457142Y92241666D01*
X104552380Y92289285D01*
X104695238Y92289285D01*
X104790476Y92241666D01*
X104838095Y92146428D01*
X104838095Y91622619D01*
X105314285Y91622619D02*
X105314285Y92289285D01*
X105314285Y92194047D02*
X105361904Y92241666D01*
X105457142Y92289285D01*
X105600000Y92289285D01*
X105695238Y92241666D01*
X105742857Y92146428D01*
X105742857Y91622619D01*
X105742857Y92146428D02*
X105790476Y92241666D01*
X105885714Y92289285D01*
X106028571Y92289285D01*
X106123809Y92241666D01*
X106171428Y92146428D01*
X106171428Y91622619D01*
D11*
X10160000Y90805000D02*
X193040000Y90805000D01*
X10160000Y86360000D02*
X10160000Y91391421D01*
X193040000Y86360000D02*
X193040000Y91391421D01*
X193040000Y90805000D02*
X191913496Y90218579D01*
X193040000Y90805000D02*
X191913496Y91391421D01*
X10160000Y90805000D02*
X11286504Y90218579D01*
X10160000Y90805000D02*
X11286504Y91391421D01*
X180975000Y62230000D02*
X176530000Y62230000D01*
X180721000Y60706000D02*
X181229000Y60706000D01*
X180975000Y62230000D02*
X180975000Y60960000D01*
X180467000Y60960000D02*
X181483000Y60960000D01*
X181102000Y60452000D02*
X180848000Y60452000D01*
X168402000Y44450000D02*
X169418000Y44450000D01*
X169037000Y43942000D02*
X168783000Y43942000D01*
X168656000Y44196000D02*
X169164000Y44196000D01*
X168910000Y44196000D02*
X168656000Y44196000D01*
X168910000Y45720000D02*
X168910000Y44450000D01*
D12*
X170878571Y44342857D02*
X172021428Y44342857D01*
X173418571Y44342857D02*
X174561428Y44342857D01*
X173990000Y43771428D02*
X173990000Y44914285D01*
X62146428Y49300000D02*
X62860714Y49300000D01*
X62003571Y48871428D02*
X62503571Y50371428D01*
X63003571Y48871428D01*
X64289285Y48871428D02*
X63432142Y48871428D01*
X63860714Y48871428D02*
X63860714Y50371428D01*
X63717857Y50157142D01*
X63575000Y50014285D01*
X63432142Y49942857D01*
X62146428Y46750000D02*
X62860714Y46750000D01*
X62003571Y46321428D02*
X62503571Y47821428D01*
X63003571Y46321428D01*
X63432142Y47678571D02*
X63503571Y47750000D01*
X63646428Y47821428D01*
X64003571Y47821428D01*
X64146428Y47750000D01*
X64217857Y47678571D01*
X64289285Y47535714D01*
X64289285Y47392857D01*
X64217857Y47178571D01*
X63360714Y46321428D01*
X64289285Y46321428D01*
X62146428Y44200000D02*
X62860714Y44200000D01*
X62003571Y43771428D02*
X62503571Y45271428D01*
X63003571Y43771428D01*
X63360714Y45271428D02*
X64289285Y45271428D01*
X63789285Y44700000D01*
X64003571Y44700000D01*
X64146428Y44628571D01*
X64217857Y44557142D01*
X64289285Y44414285D01*
X64289285Y44057142D01*
X64217857Y43914285D01*
X64146428Y43842857D01*
X64003571Y43771428D01*
X63575000Y43771428D01*
X63432142Y43842857D01*
X63360714Y43914285D01*
X62146428Y41650000D02*
X62860714Y41650000D01*
X62003571Y41221428D02*
X62503571Y42721428D01*
X63003571Y41221428D01*
X64146428Y42221428D02*
X64146428Y41221428D01*
X63789285Y42792857D02*
X63432142Y41721428D01*
X64360714Y41721428D01*
X62146428Y39100000D02*
X62860714Y39100000D01*
X62003571Y38671428D02*
X62503571Y40171428D01*
X63003571Y38671428D01*
X64217857Y40171428D02*
X63503571Y40171428D01*
X63432142Y39457142D01*
X63503571Y39528571D01*
X63646428Y39600000D01*
X64003571Y39600000D01*
X64146428Y39528571D01*
X64217857Y39457142D01*
X64289285Y39314285D01*
X64289285Y38957142D01*
X64217857Y38814285D01*
X64146428Y38742857D01*
X64003571Y38671428D01*
X63646428Y38671428D01*
X63503571Y38742857D01*
X63432142Y38814285D01*
X61146428Y73155000D02*
X61003571Y73226428D01*
X60789285Y73226428D01*
X60575000Y73155000D01*
X60432142Y73012142D01*
X60360714Y72869285D01*
X60289285Y72583571D01*
X60289285Y72369285D01*
X60360714Y72083571D01*
X60432142Y71940714D01*
X60575000Y71797857D01*
X60789285Y71726428D01*
X60932142Y71726428D01*
X61146428Y71797857D01*
X61217857Y71869285D01*
X61217857Y72369285D01*
X60932142Y72369285D01*
X61860714Y71726428D02*
X61860714Y73226428D01*
X62717857Y71726428D01*
X62717857Y73226428D01*
X63432142Y71726428D02*
X63432142Y73226428D01*
X63789285Y73226428D01*
X64003571Y73155000D01*
X64146428Y73012142D01*
X64217857Y72869285D01*
X64289285Y72583571D01*
X64289285Y72369285D01*
X64217857Y72083571D01*
X64146428Y71940714D01*
X64003571Y71797857D01*
X63789285Y71726428D01*
X63432142Y71726428D01*
X61146428Y70676428D02*
X61646428Y69176428D01*
X62146428Y70676428D01*
X62646428Y69176428D02*
X62646428Y70676428D01*
X63360714Y69176428D02*
X63360714Y70676428D01*
X64217857Y69176428D01*
X64217857Y70676428D01*
X60646428Y68126428D02*
X61575000Y68126428D01*
X61075000Y67555000D01*
X61289285Y67555000D01*
X61432142Y67483571D01*
X61503571Y67412142D01*
X61575000Y67269285D01*
X61575000Y66912142D01*
X61503571Y66769285D01*
X61432142Y66697857D01*
X61289285Y66626428D01*
X60860714Y66626428D01*
X60717857Y66697857D01*
X60646428Y66769285D01*
X62003571Y68126428D02*
X62503571Y66626428D01*
X63003571Y68126428D01*
X63360714Y68126428D02*
X64289285Y68126428D01*
X63789285Y67555000D01*
X64003571Y67555000D01*
X64146428Y67483571D01*
X64217857Y67412142D01*
X64289285Y67269285D01*
X64289285Y66912142D01*
X64217857Y66769285D01*
X64146428Y66697857D01*
X64003571Y66626428D01*
X63575000Y66626428D01*
X63432142Y66697857D01*
X63360714Y66769285D01*
X62932142Y65576428D02*
X62217857Y65576428D01*
X62146428Y64862142D01*
X62217857Y64933571D01*
X62360714Y65005000D01*
X62717857Y65005000D01*
X62860714Y64933571D01*
X62932142Y64862142D01*
X63003571Y64719285D01*
X63003571Y64362142D01*
X62932142Y64219285D01*
X62860714Y64147857D01*
X62717857Y64076428D01*
X62360714Y64076428D01*
X62217857Y64147857D01*
X62146428Y64219285D01*
X63432142Y65576428D02*
X63932142Y64076428D01*
X64432142Y65576428D01*
D11*
X158115000Y33020000D02*
X142875000Y38100000D01*
X142875000Y33020000D02*
X158115000Y33020000D01*
X158115000Y38100000D02*
X142875000Y33020000D01*
X64770000Y-137160000D02*
X64770000Y-129540000D01*
X72390000Y-137160000D02*
X64770000Y-137160000D01*
X64770000Y-129540000D02*
X72390000Y-129540000D01*
X72390000Y-137160000D02*
X72390000Y-129540000D01*
D13*
G36*
X72390000Y-133350000D02*
G01*
X68580000Y-133350000D01*
X72390000Y-129540000D01*
X72390000Y-133350000D01*
G37*
X72390000Y-133350000D02*
X68580000Y-133350000D01*
X72390000Y-129540000D01*
X72390000Y-133350000D01*
G36*
X72390000Y-137160000D02*
G01*
X64770000Y-137160000D01*
X64770000Y-129540000D01*
X72390000Y-137160000D01*
G37*
X72390000Y-137160000D02*
X64770000Y-137160000D01*
X64770000Y-129540000D01*
X72390000Y-137160000D01*
D11*
X179710457Y73275000D02*
X179710457Y71875000D01*
X179010457Y72575000D02*
X180410457Y72575000D01*
X193711000Y69294000D02*
X193711000Y67866000D01*
X193671000Y69605000D02*
X193671000Y67555000D01*
X193631000Y69842000D02*
X193631000Y67318000D01*
X193591000Y70041000D02*
X193591000Y67119000D01*
X193551000Y70216000D02*
X193551000Y66944000D01*
X193511000Y70374000D02*
X193511000Y66786000D01*
X193471000Y70518000D02*
X193471000Y66642000D01*
X193431000Y70651000D02*
X193431000Y66509000D01*
X193391000Y70776000D02*
X193391000Y66384000D01*
X193351000Y70893000D02*
X193351000Y66267000D01*
X193311000Y71005000D02*
X193311000Y66155000D01*
X193271000Y71110000D02*
X193271000Y66050000D01*
X193231000Y71212000D02*
X193231000Y65948000D01*
X193191000Y71308000D02*
X193191000Y65852000D01*
X193151000Y71401000D02*
X193151000Y65759000D01*
X193111000Y71491000D02*
X193111000Y65669000D01*
X193071000Y71577000D02*
X193071000Y65583000D01*
X193031000Y71660000D02*
X193031000Y65500000D01*
X192991000Y71741000D02*
X192991000Y65419000D01*
X192951000Y71820000D02*
X192951000Y65340000D01*
X192911000Y71895000D02*
X192911000Y65265000D01*
X192871000Y71969000D02*
X192871000Y65191000D01*
X192831000Y72041000D02*
X192831000Y65119000D01*
X192791000Y72111000D02*
X192791000Y65049000D01*
X192751000Y72179000D02*
X192751000Y64981000D01*
X192711000Y72246000D02*
X192711000Y64914000D01*
X192671000Y72310000D02*
X192671000Y64850000D01*
X192631000Y72374000D02*
X192631000Y64786000D01*
X192591000Y72436000D02*
X192591000Y64724000D01*
X192551000Y72496000D02*
X192551000Y64664000D01*
X192511000Y72555000D02*
X192511000Y64605000D01*
X192471000Y72613000D02*
X192471000Y64547000D01*
X192431000Y72670000D02*
X192431000Y64490000D01*
X192391000Y72726000D02*
X192391000Y64434000D01*
X192351000Y72780000D02*
X192351000Y64380000D01*
X192311000Y72834000D02*
X192311000Y64326000D01*
X192271000Y72886000D02*
X192271000Y64274000D01*
X192231000Y72938000D02*
X192231000Y64222000D01*
X192191000Y72988000D02*
X192191000Y64172000D01*
X192151000Y73038000D02*
X192151000Y64122000D01*
X192111000Y73086000D02*
X192111000Y64074000D01*
X192071000Y73134000D02*
X192071000Y64026000D01*
X192031000Y73181000D02*
X192031000Y63979000D01*
X191991000Y73227000D02*
X191991000Y63933000D01*
X191951000Y73273000D02*
X191951000Y63887000D01*
X191911000Y73317000D02*
X191911000Y63843000D01*
X191871000Y73361000D02*
X191871000Y63799000D01*
X191831000Y73404000D02*
X191831000Y63756000D01*
X191791000Y67140000D02*
X191791000Y63714000D01*
X191791000Y73446000D02*
X191791000Y70020000D01*
X191751000Y67140000D02*
X191751000Y63672000D01*
X191751000Y73488000D02*
X191751000Y70020000D01*
X191711000Y67140000D02*
X191711000Y63631000D01*
X191711000Y73529000D02*
X191711000Y70020000D01*
X191671000Y67140000D02*
X191671000Y63590000D01*
X191671000Y73570000D02*
X191671000Y70020000D01*
X191631000Y67140000D02*
X191631000Y63551000D01*
X191631000Y73609000D02*
X191631000Y70020000D01*
X191591000Y67140000D02*
X191591000Y63511000D01*
X191591000Y73649000D02*
X191591000Y70020000D01*
X191551000Y67140000D02*
X191551000Y63473000D01*
X191551000Y73687000D02*
X191551000Y70020000D01*
X191511000Y67140000D02*
X191511000Y63435000D01*
X191511000Y73725000D02*
X191511000Y70020000D01*
X191471000Y67140000D02*
X191471000Y63398000D01*
X191471000Y73762000D02*
X191471000Y70020000D01*
X191431000Y67140000D02*
X191431000Y63361000D01*
X191431000Y73799000D02*
X191431000Y70020000D01*
X191391000Y67140000D02*
X191391000Y63325000D01*
X191391000Y73835000D02*
X191391000Y70020000D01*
X191351000Y67140000D02*
X191351000Y63289000D01*
X191351000Y73871000D02*
X191351000Y70020000D01*
X191311000Y67140000D02*
X191311000Y63254000D01*
X191311000Y73906000D02*
X191311000Y70020000D01*
X191271000Y67140000D02*
X191271000Y63219000D01*
X191271000Y73941000D02*
X191271000Y70020000D01*
X191231000Y67140000D02*
X191231000Y63185000D01*
X191231000Y73975000D02*
X191231000Y70020000D01*
X191191000Y67140000D02*
X191191000Y63151000D01*
X191191000Y74009000D02*
X191191000Y70020000D01*
X191151000Y67140000D02*
X191151000Y63118000D01*
X191151000Y74042000D02*
X191151000Y70020000D01*
X191111000Y67140000D02*
X191111000Y63086000D01*
X191111000Y74074000D02*
X191111000Y70020000D01*
X191071000Y67140000D02*
X191071000Y63053000D01*
X191071000Y74107000D02*
X191071000Y70020000D01*
X191031000Y67140000D02*
X191031000Y63022000D01*
X191031000Y74138000D02*
X191031000Y70020000D01*
X190991000Y67140000D02*
X190991000Y62991000D01*
X190991000Y74169000D02*
X190991000Y70020000D01*
X190951000Y67140000D02*
X190951000Y62960000D01*
X190951000Y74200000D02*
X190951000Y70020000D01*
X190911000Y67140000D02*
X190911000Y62930000D01*
X190911000Y74230000D02*
X190911000Y70020000D01*
X190871000Y67140000D02*
X190871000Y62900000D01*
X190871000Y74260000D02*
X190871000Y70020000D01*
X190831000Y67140000D02*
X190831000Y62870000D01*
X190831000Y74290000D02*
X190831000Y70020000D01*
X190791000Y67140000D02*
X190791000Y62841000D01*
X190791000Y74319000D02*
X190791000Y70020000D01*
X190751000Y67140000D02*
X190751000Y62813000D01*
X190751000Y74347000D02*
X190751000Y70020000D01*
X190711000Y67140000D02*
X190711000Y62784000D01*
X190711000Y74376000D02*
X190711000Y70020000D01*
X190671000Y67140000D02*
X190671000Y62757000D01*
X190671000Y74403000D02*
X190671000Y70020000D01*
X190631000Y67140000D02*
X190631000Y62729000D01*
X190631000Y74431000D02*
X190631000Y70020000D01*
X190591000Y67140000D02*
X190591000Y62702000D01*
X190591000Y74458000D02*
X190591000Y70020000D01*
X190551000Y67140000D02*
X190551000Y62676000D01*
X190551000Y74484000D02*
X190551000Y70020000D01*
X190511000Y67140000D02*
X190511000Y62650000D01*
X190511000Y74510000D02*
X190511000Y70020000D01*
X190471000Y67140000D02*
X190471000Y62624000D01*
X190471000Y74536000D02*
X190471000Y70020000D01*
X190431000Y67140000D02*
X190431000Y62598000D01*
X190431000Y74562000D02*
X190431000Y70020000D01*
X190391000Y67140000D02*
X190391000Y62573000D01*
X190391000Y74587000D02*
X190391000Y70020000D01*
X190351000Y67140000D02*
X190351000Y62549000D01*
X190351000Y74611000D02*
X190351000Y70020000D01*
X190311000Y67140000D02*
X190311000Y62524000D01*
X190311000Y74636000D02*
X190311000Y70020000D01*
X190271000Y67140000D02*
X190271000Y62500000D01*
X190271000Y74660000D02*
X190271000Y70020000D01*
X190231000Y67140000D02*
X190231000Y62477000D01*
X190231000Y74683000D02*
X190231000Y70020000D01*
X190191000Y67140000D02*
X190191000Y62453000D01*
X190191000Y74707000D02*
X190191000Y70020000D01*
X190151000Y67140000D02*
X190151000Y62430000D01*
X190151000Y74730000D02*
X190151000Y70020000D01*
X190111000Y67140000D02*
X190111000Y62408000D01*
X190111000Y74752000D02*
X190111000Y70020000D01*
X190071000Y67140000D02*
X190071000Y62386000D01*
X190071000Y74774000D02*
X190071000Y70020000D01*
X190031000Y67140000D02*
X190031000Y62364000D01*
X190031000Y74796000D02*
X190031000Y70020000D01*
X189991000Y67140000D02*
X189991000Y62342000D01*
X189991000Y74818000D02*
X189991000Y70020000D01*
X189951000Y67140000D02*
X189951000Y62321000D01*
X189951000Y74839000D02*
X189951000Y70020000D01*
X189911000Y67140000D02*
X189911000Y62300000D01*
X189911000Y74860000D02*
X189911000Y70020000D01*
X189871000Y67140000D02*
X189871000Y62279000D01*
X189871000Y74881000D02*
X189871000Y70020000D01*
X189831000Y67140000D02*
X189831000Y62259000D01*
X189831000Y74901000D02*
X189831000Y70020000D01*
X189791000Y67140000D02*
X189791000Y62239000D01*
X189791000Y74921000D02*
X189791000Y70020000D01*
X189751000Y67140000D02*
X189751000Y62220000D01*
X189751000Y74940000D02*
X189751000Y70020000D01*
X189711000Y67140000D02*
X189711000Y62200000D01*
X189711000Y74960000D02*
X189711000Y70020000D01*
X189671000Y67140000D02*
X189671000Y62181000D01*
X189671000Y74979000D02*
X189671000Y70020000D01*
X189631000Y67140000D02*
X189631000Y62162000D01*
X189631000Y74998000D02*
X189631000Y70020000D01*
X189591000Y67140000D02*
X189591000Y62144000D01*
X189591000Y75016000D02*
X189591000Y70020000D01*
X189551000Y67140000D02*
X189551000Y62126000D01*
X189551000Y75034000D02*
X189551000Y70020000D01*
X189511000Y67140000D02*
X189511000Y62108000D01*
X189511000Y75052000D02*
X189511000Y70020000D01*
X189471000Y67140000D02*
X189471000Y62090000D01*
X189471000Y75070000D02*
X189471000Y70020000D01*
X189431000Y67140000D02*
X189431000Y62073000D01*
X189431000Y75087000D02*
X189431000Y70020000D01*
X189391000Y67140000D02*
X189391000Y62056000D01*
X189391000Y75104000D02*
X189391000Y70020000D01*
X189351000Y67140000D02*
X189351000Y62040000D01*
X189351000Y75120000D02*
X189351000Y70020000D01*
X189311000Y67140000D02*
X189311000Y62023000D01*
X189311000Y75137000D02*
X189311000Y70020000D01*
X189271000Y67140000D02*
X189271000Y62007000D01*
X189271000Y75153000D02*
X189271000Y70020000D01*
X189231000Y67140000D02*
X189231000Y61991000D01*
X189231000Y75169000D02*
X189231000Y70020000D01*
X189191000Y67140000D02*
X189191000Y61976000D01*
X189191000Y75184000D02*
X189191000Y70020000D01*
X189151000Y67140000D02*
X189151000Y61960000D01*
X189151000Y75200000D02*
X189151000Y70020000D01*
X189111000Y67140000D02*
X189111000Y61945000D01*
X189111000Y75215000D02*
X189111000Y70020000D01*
X189071000Y67140000D02*
X189071000Y61931000D01*
X189071000Y75229000D02*
X189071000Y70020000D01*
X189031000Y67140000D02*
X189031000Y61916000D01*
X189031000Y75244000D02*
X189031000Y70020000D01*
X188991000Y67140000D02*
X188991000Y61902000D01*
X188991000Y75258000D02*
X188991000Y70020000D01*
X188951000Y67140000D02*
X188951000Y61888000D01*
X188951000Y75272000D02*
X188951000Y70020000D01*
X188911000Y75286000D02*
X188911000Y61874000D01*
X188871000Y75299000D02*
X188871000Y61861000D01*
X188831000Y75312000D02*
X188831000Y61848000D01*
X188791000Y75325000D02*
X188791000Y61835000D01*
X188751000Y75338000D02*
X188751000Y61822000D01*
X188711000Y75350000D02*
X188711000Y61810000D01*
X188671000Y75362000D02*
X188671000Y61798000D01*
X188631000Y75374000D02*
X188631000Y61786000D01*
X188591000Y75385000D02*
X188591000Y61775000D01*
X188551000Y75397000D02*
X188551000Y61763000D01*
X188511000Y75408000D02*
X188511000Y61752000D01*
X188471000Y75419000D02*
X188471000Y61741000D01*
X188431000Y75429000D02*
X188431000Y61731000D01*
X188391000Y75440000D02*
X188391000Y61720000D01*
X188351000Y75450000D02*
X188351000Y61710000D01*
X188311000Y75459000D02*
X188311000Y61701000D01*
X188271000Y75469000D02*
X188271000Y61691000D01*
X188231000Y75478000D02*
X188231000Y61682000D01*
X188191000Y75487000D02*
X188191000Y61673000D01*
X188151000Y75496000D02*
X188151000Y61664000D01*
X188111000Y75505000D02*
X188111000Y61655000D01*
X188071000Y75513000D02*
X188071000Y61647000D01*
X188031000Y75522000D02*
X188031000Y61638000D01*
X187991000Y75529000D02*
X187991000Y61631000D01*
X187951000Y75537000D02*
X187951000Y61623000D01*
X187911000Y75544000D02*
X187911000Y61616000D01*
X187871000Y75552000D02*
X187871000Y61608000D01*
X187831000Y75559000D02*
X187831000Y61601000D01*
X187791000Y75565000D02*
X187791000Y61595000D01*
X187751000Y75572000D02*
X187751000Y61588000D01*
X187711000Y75578000D02*
X187711000Y61582000D01*
X187671000Y75584000D02*
X187671000Y61576000D01*
X187631000Y75590000D02*
X187631000Y61570000D01*
X187591000Y75595000D02*
X187591000Y61565000D01*
X187551000Y75601000D02*
X187551000Y61559000D01*
X187511000Y75606000D02*
X187511000Y61554000D01*
X187471000Y75611000D02*
X187471000Y61549000D01*
X187431000Y75615000D02*
X187431000Y61545000D01*
X187391000Y75620000D02*
X187391000Y61540000D01*
X187351000Y75624000D02*
X187351000Y61536000D01*
X187310000Y75628000D02*
X187310000Y61532000D01*
X187270000Y75632000D02*
X187270000Y61528000D01*
X187230000Y75635000D02*
X187230000Y61525000D01*
X187190000Y75638000D02*
X187190000Y61522000D01*
X187150000Y75641000D02*
X187150000Y61519000D01*
X187110000Y75644000D02*
X187110000Y61516000D01*
X187070000Y75647000D02*
X187070000Y61513000D01*
X187030000Y75649000D02*
X187030000Y61511000D01*
X186990000Y75651000D02*
X186990000Y61509000D01*
X186950000Y75653000D02*
X186950000Y61507000D01*
X186910000Y75655000D02*
X186910000Y61505000D01*
X186870000Y75656000D02*
X186870000Y61504000D01*
X186830000Y75658000D02*
X186830000Y61502000D01*
X186790000Y75659000D02*
X186790000Y61501000D01*
X186750000Y75659000D02*
X186750000Y61501000D01*
X186710000Y75660000D02*
X186710000Y61500000D01*
X186670000Y75660000D02*
X186670000Y61500000D01*
X186630000Y75660000D02*
X186630000Y61500000D01*
X193750000Y68580000D02*
G75*
G03X193750000Y68580000I-7120000J0D01*
G01*
X32385000Y-182245000D02*
X32385000Y-168275000D01*
X46355000Y-182245000D02*
X32385000Y-182245000D01*
X46355000Y-168275000D02*
X46355000Y-182245000D01*
X32385000Y-168275000D02*
X46355000Y-168275000D01*
X205960000Y43614000D02*
X205960000Y40205000D01*
X199510000Y43614000D02*
X199510000Y40205000D01*
X199510000Y40205000D02*
X205960000Y40205000D01*
X199510000Y43614000D02*
X205960000Y43614000D01*
X199510000Y45205000D02*
X199510000Y38615000D01*
X193160000Y45205000D02*
X193160000Y38615000D01*
X193160000Y38615000D02*
X199510000Y38615000D01*
X193160000Y45205000D02*
X199510000Y45205000D01*
X193160000Y48280000D02*
X193160000Y35540000D01*
X184090000Y48280000D02*
X184090000Y35540000D01*
X184090000Y35540000D02*
X193160000Y35540000D01*
X184090000Y48280000D02*
X193160000Y48280000D01*
X18760000Y-181420000D02*
X18760000Y-181576000D01*
X18760000Y-179104000D02*
X18760000Y-179260000D01*
X21361130Y-181419837D02*
G75*
G02X19279039Y-181420000I-1041130J1079837D01*
G01*
X21361130Y-179260163D02*
G75*
G03X19279039Y-179260000I-1041130J-1079837D01*
G01*
X21992335Y-181418608D02*
G75*
G02X18760000Y-181575516I-1672335J1078608D01*
G01*
X21992335Y-179261392D02*
G75*
G03X18760000Y-179104484I-1672335J-1078608D01*
G01*
X28285000Y-162370000D02*
X28285000Y-162526000D01*
X28285000Y-160054000D02*
X28285000Y-160210000D01*
X30886130Y-162369837D02*
G75*
G02X28804039Y-162370000I-1041130J1079837D01*
G01*
X30886130Y-160210163D02*
G75*
G03X28804039Y-160210000I-1041130J-1079837D01*
G01*
X31517335Y-162368608D02*
G75*
G02X28285000Y-162525516I-1672335J1078608D01*
G01*
X31517335Y-160211392D02*
G75*
G03X28285000Y-160054484I-1672335J-1078608D01*
G01*
X37810000Y-181420000D02*
X37810000Y-181576000D01*
X37810000Y-179104000D02*
X37810000Y-179260000D01*
X40411130Y-181419837D02*
G75*
G02X38329039Y-181420000I-1041130J1079837D01*
G01*
X40411130Y-179260163D02*
G75*
G03X38329039Y-179260000I-1041130J-1079837D01*
G01*
X41042335Y-181418608D02*
G75*
G02X37810000Y-181575516I-1672335J1078608D01*
G01*
X41042335Y-179261392D02*
G75*
G03X37810000Y-179104484I-1672335J-1078608D01*
G01*
X47335000Y-162370000D02*
X47335000Y-162526000D01*
X47335000Y-160054000D02*
X47335000Y-160210000D01*
X49936130Y-162369837D02*
G75*
G02X47854039Y-162370000I-1041130J1079837D01*
G01*
X49936130Y-160210163D02*
G75*
G03X47854039Y-160210000I-1041130J-1079837D01*
G01*
X50567335Y-162368608D02*
G75*
G02X47335000Y-162525516I-1672335J1078608D01*
G01*
X50567335Y-160211392D02*
G75*
G03X47335000Y-160054484I-1672335J-1078608D01*
G01*
X56860000Y-181420000D02*
X56860000Y-181576000D01*
X56860000Y-179104000D02*
X56860000Y-179260000D01*
X59461130Y-181419837D02*
G75*
G02X57379039Y-181420000I-1041130J1079837D01*
G01*
X59461130Y-179260163D02*
G75*
G03X57379039Y-179260000I-1041130J-1079837D01*
G01*
X60092335Y-181418608D02*
G75*
G02X56860000Y-181575516I-1672335J1078608D01*
G01*
X60092335Y-179261392D02*
G75*
G03X56860000Y-179104484I-1672335J-1078608D01*
G01*
X75910000Y-181420000D02*
X75910000Y-181576000D01*
X75910000Y-179104000D02*
X75910000Y-179260000D01*
X78511130Y-181419837D02*
G75*
G02X76429039Y-181420000I-1041130J1079837D01*
G01*
X78511130Y-179260163D02*
G75*
G03X76429039Y-179260000I-1041130J-1079837D01*
G01*
X79142335Y-181418608D02*
G75*
G02X75910000Y-181575516I-1672335J1078608D01*
G01*
X79142335Y-179261392D02*
G75*
G03X75910000Y-179104484I-1672335J-1078608D01*
G01*
X85435000Y-162370000D02*
X85435000Y-162526000D01*
X85435000Y-160054000D02*
X85435000Y-160210000D01*
X88036130Y-162369837D02*
G75*
G02X85954039Y-162370000I-1041130J1079837D01*
G01*
X88036130Y-160210163D02*
G75*
G03X85954039Y-160210000I-1041130J-1079837D01*
G01*
X88667335Y-162368608D02*
G75*
G02X85435000Y-162525516I-1672335J1078608D01*
G01*
X88667335Y-160211392D02*
G75*
G03X85435000Y-160054484I-1672335J-1078608D01*
G01*
X94960000Y-181420000D02*
X94960000Y-181576000D01*
X94960000Y-179104000D02*
X94960000Y-179260000D01*
X97561130Y-181419837D02*
G75*
G02X95479039Y-181420000I-1041130J1079837D01*
G01*
X97561130Y-179260163D02*
G75*
G03X95479039Y-179260000I-1041130J-1079837D01*
G01*
X98192335Y-181418608D02*
G75*
G02X94960000Y-181575516I-1672335J1078608D01*
G01*
X98192335Y-179261392D02*
G75*
G03X94960000Y-179104484I-1672335J-1078608D01*
G01*
X104485000Y-162370000D02*
X104485000Y-162526000D01*
X104485000Y-160054000D02*
X104485000Y-160210000D01*
X107086130Y-162369837D02*
G75*
G02X105004039Y-162370000I-1041130J1079837D01*
G01*
X107086130Y-160210163D02*
G75*
G03X105004039Y-160210000I-1041130J-1079837D01*
G01*
X107717335Y-162368608D02*
G75*
G02X104485000Y-162525516I-1672335J1078608D01*
G01*
X107717335Y-160211392D02*
G75*
G03X104485000Y-160054484I-1672335J-1078608D01*
G01*
X114010000Y-181420000D02*
X114010000Y-181576000D01*
X114010000Y-179104000D02*
X114010000Y-179260000D01*
X116611130Y-181419837D02*
G75*
G02X114529039Y-181420000I-1041130J1079837D01*
G01*
X116611130Y-179260163D02*
G75*
G03X114529039Y-179260000I-1041130J-1079837D01*
G01*
X117242335Y-181418608D02*
G75*
G02X114010000Y-181575516I-1672335J1078608D01*
G01*
X117242335Y-179261392D02*
G75*
G03X114010000Y-179104484I-1672335J-1078608D01*
G01*
X123535000Y-162370000D02*
X123535000Y-162526000D01*
X123535000Y-160054000D02*
X123535000Y-160210000D01*
X126136130Y-162369837D02*
G75*
G02X124054039Y-162370000I-1041130J1079837D01*
G01*
X126136130Y-160210163D02*
G75*
G03X124054039Y-160210000I-1041130J-1079837D01*
G01*
X126767335Y-162368608D02*
G75*
G02X123535000Y-162525516I-1672335J1078608D01*
G01*
X126767335Y-160211392D02*
G75*
G03X123535000Y-160054484I-1672335J-1078608D01*
G01*
X133060000Y-181420000D02*
X133060000Y-181576000D01*
X133060000Y-179104000D02*
X133060000Y-179260000D01*
X135661130Y-181419837D02*
G75*
G02X133579039Y-181420000I-1041130J1079837D01*
G01*
X135661130Y-179260163D02*
G75*
G03X133579039Y-179260000I-1041130J-1079837D01*
G01*
X136292335Y-181418608D02*
G75*
G02X133060000Y-181575516I-1672335J1078608D01*
G01*
X136292335Y-179261392D02*
G75*
G03X133060000Y-179104484I-1672335J-1078608D01*
G01*
X152110000Y-181420000D02*
X152110000Y-181576000D01*
X152110000Y-179104000D02*
X152110000Y-179260000D01*
X154711130Y-181419837D02*
G75*
G02X152629039Y-181420000I-1041130J1079837D01*
G01*
X154711130Y-179260163D02*
G75*
G03X152629039Y-179260000I-1041130J-1079837D01*
G01*
X155342335Y-181418608D02*
G75*
G02X152110000Y-181575516I-1672335J1078608D01*
G01*
X155342335Y-179261392D02*
G75*
G03X152110000Y-179104484I-1672335J-1078608D01*
G01*
X161635000Y-162370000D02*
X161635000Y-162526000D01*
X161635000Y-160054000D02*
X161635000Y-160210000D01*
X164236130Y-162369837D02*
G75*
G02X162154039Y-162370000I-1041130J1079837D01*
G01*
X164236130Y-160210163D02*
G75*
G03X162154039Y-160210000I-1041130J-1079837D01*
G01*
X164867335Y-162368608D02*
G75*
G02X161635000Y-162525516I-1672335J1078608D01*
G01*
X164867335Y-160211392D02*
G75*
G03X161635000Y-160054484I-1672335J-1078608D01*
G01*
X171160000Y-181420000D02*
X171160000Y-181576000D01*
X171160000Y-179104000D02*
X171160000Y-179260000D01*
X173761130Y-181419837D02*
G75*
G02X171679039Y-181420000I-1041130J1079837D01*
G01*
X173761130Y-179260163D02*
G75*
G03X171679039Y-179260000I-1041130J-1079837D01*
G01*
X174392335Y-181418608D02*
G75*
G02X171160000Y-181575516I-1672335J1078608D01*
G01*
X174392335Y-179261392D02*
G75*
G03X171160000Y-179104484I-1672335J-1078608D01*
G01*
X180685000Y-162370000D02*
X180685000Y-162526000D01*
X180685000Y-160054000D02*
X180685000Y-160210000D01*
X183286130Y-162369837D02*
G75*
G02X181204039Y-162370000I-1041130J1079837D01*
G01*
X183286130Y-160210163D02*
G75*
G03X181204039Y-160210000I-1041130J-1079837D01*
G01*
X183917335Y-162368608D02*
G75*
G02X180685000Y-162525516I-1672335J1078608D01*
G01*
X183917335Y-160211392D02*
G75*
G03X180685000Y-160054484I-1672335J-1078608D01*
G01*
X18760000Y-124270000D02*
X18760000Y-124426000D01*
X18760000Y-121954000D02*
X18760000Y-122110000D01*
X21361130Y-124269837D02*
G75*
G02X19279039Y-124270000I-1041130J1079837D01*
G01*
X21361130Y-122110163D02*
G75*
G03X19279039Y-122110000I-1041130J-1079837D01*
G01*
X21992335Y-124268608D02*
G75*
G02X18760000Y-124425516I-1672335J1078608D01*
G01*
X21992335Y-122111392D02*
G75*
G03X18760000Y-121954484I-1672335J-1078608D01*
G01*
X28285000Y-105220000D02*
X28285000Y-105376000D01*
X28285000Y-102904000D02*
X28285000Y-103060000D01*
X30886130Y-105219837D02*
G75*
G02X28804039Y-105220000I-1041130J1079837D01*
G01*
X30886130Y-103060163D02*
G75*
G03X28804039Y-103060000I-1041130J-1079837D01*
G01*
X31517335Y-105218608D02*
G75*
G02X28285000Y-105375516I-1672335J1078608D01*
G01*
X31517335Y-103061392D02*
G75*
G03X28285000Y-102904484I-1672335J-1078608D01*
G01*
X37810000Y-124270000D02*
X37810000Y-124426000D01*
X37810000Y-121954000D02*
X37810000Y-122110000D01*
X40411130Y-124269837D02*
G75*
G02X38329039Y-124270000I-1041130J1079837D01*
G01*
X40411130Y-122110163D02*
G75*
G03X38329039Y-122110000I-1041130J-1079837D01*
G01*
X41042335Y-124268608D02*
G75*
G02X37810000Y-124425516I-1672335J1078608D01*
G01*
X41042335Y-122111392D02*
G75*
G03X37810000Y-121954484I-1672335J-1078608D01*
G01*
X47335000Y-105220000D02*
X47335000Y-105376000D01*
X47335000Y-102904000D02*
X47335000Y-103060000D01*
X49936130Y-105219837D02*
G75*
G02X47854039Y-105220000I-1041130J1079837D01*
G01*
X49936130Y-103060163D02*
G75*
G03X47854039Y-103060000I-1041130J-1079837D01*
G01*
X50567335Y-105218608D02*
G75*
G02X47335000Y-105375516I-1672335J1078608D01*
G01*
X50567335Y-103061392D02*
G75*
G03X47335000Y-102904484I-1672335J-1078608D01*
G01*
X56860000Y-124270000D02*
X56860000Y-124426000D01*
X56860000Y-121954000D02*
X56860000Y-122110000D01*
X59461130Y-124269837D02*
G75*
G02X57379039Y-124270000I-1041130J1079837D01*
G01*
X59461130Y-122110163D02*
G75*
G03X57379039Y-122110000I-1041130J-1079837D01*
G01*
X60092335Y-124268608D02*
G75*
G02X56860000Y-124425516I-1672335J1078608D01*
G01*
X60092335Y-122111392D02*
G75*
G03X56860000Y-121954484I-1672335J-1078608D01*
G01*
X75910000Y-124270000D02*
X75910000Y-124426000D01*
X75910000Y-121954000D02*
X75910000Y-122110000D01*
X78511130Y-124269837D02*
G75*
G02X76429039Y-124270000I-1041130J1079837D01*
G01*
X78511130Y-122110163D02*
G75*
G03X76429039Y-122110000I-1041130J-1079837D01*
G01*
X79142335Y-124268608D02*
G75*
G02X75910000Y-124425516I-1672335J1078608D01*
G01*
X79142335Y-122111392D02*
G75*
G03X75910000Y-121954484I-1672335J-1078608D01*
G01*
X85435000Y-105220000D02*
X85435000Y-105376000D01*
X85435000Y-102904000D02*
X85435000Y-103060000D01*
X88036130Y-105219837D02*
G75*
G02X85954039Y-105220000I-1041130J1079837D01*
G01*
X88036130Y-103060163D02*
G75*
G03X85954039Y-103060000I-1041130J-1079837D01*
G01*
X88667335Y-105218608D02*
G75*
G02X85435000Y-105375516I-1672335J1078608D01*
G01*
X88667335Y-103061392D02*
G75*
G03X85435000Y-102904484I-1672335J-1078608D01*
G01*
X94960000Y-124270000D02*
X94960000Y-124426000D01*
X94960000Y-121954000D02*
X94960000Y-122110000D01*
X97561130Y-124269837D02*
G75*
G02X95479039Y-124270000I-1041130J1079837D01*
G01*
X97561130Y-122110163D02*
G75*
G03X95479039Y-122110000I-1041130J-1079837D01*
G01*
X98192335Y-124268608D02*
G75*
G02X94960000Y-124425516I-1672335J1078608D01*
G01*
X98192335Y-122111392D02*
G75*
G03X94960000Y-121954484I-1672335J-1078608D01*
G01*
X104485000Y-105220000D02*
X104485000Y-105376000D01*
X104485000Y-102904000D02*
X104485000Y-103060000D01*
X107086130Y-105219837D02*
G75*
G02X105004039Y-105220000I-1041130J1079837D01*
G01*
X107086130Y-103060163D02*
G75*
G03X105004039Y-103060000I-1041130J-1079837D01*
G01*
X107717335Y-105218608D02*
G75*
G02X104485000Y-105375516I-1672335J1078608D01*
G01*
X107717335Y-103061392D02*
G75*
G03X104485000Y-102904484I-1672335J-1078608D01*
G01*
X114010000Y-124270000D02*
X114010000Y-124426000D01*
X114010000Y-121954000D02*
X114010000Y-122110000D01*
X116611130Y-124269837D02*
G75*
G02X114529039Y-124270000I-1041130J1079837D01*
G01*
X116611130Y-122110163D02*
G75*
G03X114529039Y-122110000I-1041130J-1079837D01*
G01*
X117242335Y-124268608D02*
G75*
G02X114010000Y-124425516I-1672335J1078608D01*
G01*
X117242335Y-122111392D02*
G75*
G03X114010000Y-121954484I-1672335J-1078608D01*
G01*
X123535000Y-105220000D02*
X123535000Y-105376000D01*
X123535000Y-102904000D02*
X123535000Y-103060000D01*
X126136130Y-105219837D02*
G75*
G02X124054039Y-105220000I-1041130J1079837D01*
G01*
X126136130Y-103060163D02*
G75*
G03X124054039Y-103060000I-1041130J-1079837D01*
G01*
X126767335Y-105218608D02*
G75*
G02X123535000Y-105375516I-1672335J1078608D01*
G01*
X126767335Y-103061392D02*
G75*
G03X123535000Y-102904484I-1672335J-1078608D01*
G01*
X133060000Y-124270000D02*
X133060000Y-124426000D01*
X133060000Y-121954000D02*
X133060000Y-122110000D01*
X135661130Y-124269837D02*
G75*
G02X133579039Y-124270000I-1041130J1079837D01*
G01*
X135661130Y-122110163D02*
G75*
G03X133579039Y-122110000I-1041130J-1079837D01*
G01*
X136292335Y-124268608D02*
G75*
G02X133060000Y-124425516I-1672335J1078608D01*
G01*
X136292335Y-122111392D02*
G75*
G03X133060000Y-121954484I-1672335J-1078608D01*
G01*
X152110000Y-124270000D02*
X152110000Y-124426000D01*
X152110000Y-121954000D02*
X152110000Y-122110000D01*
X154711130Y-124269837D02*
G75*
G02X152629039Y-124270000I-1041130J1079837D01*
G01*
X154711130Y-122110163D02*
G75*
G03X152629039Y-122110000I-1041130J-1079837D01*
G01*
X155342335Y-124268608D02*
G75*
G02X152110000Y-124425516I-1672335J1078608D01*
G01*
X155342335Y-122111392D02*
G75*
G03X152110000Y-121954484I-1672335J-1078608D01*
G01*
X161635000Y-105220000D02*
X161635000Y-105376000D01*
X161635000Y-102904000D02*
X161635000Y-103060000D01*
X164236130Y-105219837D02*
G75*
G02X162154039Y-105220000I-1041130J1079837D01*
G01*
X164236130Y-103060163D02*
G75*
G03X162154039Y-103060000I-1041130J-1079837D01*
G01*
X164867335Y-105218608D02*
G75*
G02X161635000Y-105375516I-1672335J1078608D01*
G01*
X164867335Y-103061392D02*
G75*
G03X161635000Y-102904484I-1672335J-1078608D01*
G01*
X171160000Y-124270000D02*
X171160000Y-124426000D01*
X171160000Y-121954000D02*
X171160000Y-122110000D01*
X173761130Y-124269837D02*
G75*
G02X171679039Y-124270000I-1041130J1079837D01*
G01*
X173761130Y-122110163D02*
G75*
G03X171679039Y-122110000I-1041130J-1079837D01*
G01*
X174392335Y-124268608D02*
G75*
G02X171160000Y-124425516I-1672335J1078608D01*
G01*
X174392335Y-122111392D02*
G75*
G03X171160000Y-121954484I-1672335J-1078608D01*
G01*
X180685000Y-105220000D02*
X180685000Y-105376000D01*
X180685000Y-102904000D02*
X180685000Y-103060000D01*
X183286130Y-105219837D02*
G75*
G02X181204039Y-105220000I-1041130J1079837D01*
G01*
X183286130Y-103060163D02*
G75*
G03X181204039Y-103060000I-1041130J-1079837D01*
G01*
X183917335Y-105218608D02*
G75*
G02X180685000Y-105375516I-1672335J1078608D01*
G01*
X183917335Y-103061392D02*
G75*
G03X180685000Y-102904484I-1672335J-1078608D01*
G01*
X18760000Y-67120000D02*
X18760000Y-67276000D01*
X18760000Y-64804000D02*
X18760000Y-64960000D01*
X21361130Y-67119837D02*
G75*
G02X19279039Y-67120000I-1041130J1079837D01*
G01*
X21361130Y-64960163D02*
G75*
G03X19279039Y-64960000I-1041130J-1079837D01*
G01*
X21992335Y-67118608D02*
G75*
G02X18760000Y-67275516I-1672335J1078608D01*
G01*
X21992335Y-64961392D02*
G75*
G03X18760000Y-64804484I-1672335J-1078608D01*
G01*
X28285000Y-48070000D02*
X28285000Y-48226000D01*
X28285000Y-45754000D02*
X28285000Y-45910000D01*
X30886130Y-48069837D02*
G75*
G02X28804039Y-48070000I-1041130J1079837D01*
G01*
X30886130Y-45910163D02*
G75*
G03X28804039Y-45910000I-1041130J-1079837D01*
G01*
X31517335Y-48068608D02*
G75*
G02X28285000Y-48225516I-1672335J1078608D01*
G01*
X31517335Y-45911392D02*
G75*
G03X28285000Y-45754484I-1672335J-1078608D01*
G01*
X37810000Y-67120000D02*
X37810000Y-67276000D01*
X37810000Y-64804000D02*
X37810000Y-64960000D01*
X40411130Y-67119837D02*
G75*
G02X38329039Y-67120000I-1041130J1079837D01*
G01*
X40411130Y-64960163D02*
G75*
G03X38329039Y-64960000I-1041130J-1079837D01*
G01*
X41042335Y-67118608D02*
G75*
G02X37810000Y-67275516I-1672335J1078608D01*
G01*
X41042335Y-64961392D02*
G75*
G03X37810000Y-64804484I-1672335J-1078608D01*
G01*
X47335000Y-48070000D02*
X47335000Y-48226000D01*
X47335000Y-45754000D02*
X47335000Y-45910000D01*
X49936130Y-48069837D02*
G75*
G02X47854039Y-48070000I-1041130J1079837D01*
G01*
X49936130Y-45910163D02*
G75*
G03X47854039Y-45910000I-1041130J-1079837D01*
G01*
X50567335Y-48068608D02*
G75*
G02X47335000Y-48225516I-1672335J1078608D01*
G01*
X50567335Y-45911392D02*
G75*
G03X47335000Y-45754484I-1672335J-1078608D01*
G01*
X56860000Y-67120000D02*
X56860000Y-67276000D01*
X56860000Y-64804000D02*
X56860000Y-64960000D01*
X59461130Y-67119837D02*
G75*
G02X57379039Y-67120000I-1041130J1079837D01*
G01*
X59461130Y-64960163D02*
G75*
G03X57379039Y-64960000I-1041130J-1079837D01*
G01*
X60092335Y-67118608D02*
G75*
G02X56860000Y-67275516I-1672335J1078608D01*
G01*
X60092335Y-64961392D02*
G75*
G03X56860000Y-64804484I-1672335J-1078608D01*
G01*
X75910000Y-67120000D02*
X75910000Y-67276000D01*
X75910000Y-64804000D02*
X75910000Y-64960000D01*
X78511130Y-67119837D02*
G75*
G02X76429039Y-67120000I-1041130J1079837D01*
G01*
X78511130Y-64960163D02*
G75*
G03X76429039Y-64960000I-1041130J-1079837D01*
G01*
X79142335Y-67118608D02*
G75*
G02X75910000Y-67275516I-1672335J1078608D01*
G01*
X79142335Y-64961392D02*
G75*
G03X75910000Y-64804484I-1672335J-1078608D01*
G01*
X85435000Y-48070000D02*
X85435000Y-48226000D01*
X85435000Y-45754000D02*
X85435000Y-45910000D01*
X88036130Y-48069837D02*
G75*
G02X85954039Y-48070000I-1041130J1079837D01*
G01*
X88036130Y-45910163D02*
G75*
G03X85954039Y-45910000I-1041130J-1079837D01*
G01*
X88667335Y-48068608D02*
G75*
G02X85435000Y-48225516I-1672335J1078608D01*
G01*
X88667335Y-45911392D02*
G75*
G03X85435000Y-45754484I-1672335J-1078608D01*
G01*
X94960000Y-67120000D02*
X94960000Y-67276000D01*
X94960000Y-64804000D02*
X94960000Y-64960000D01*
X97561130Y-67119837D02*
G75*
G02X95479039Y-67120000I-1041130J1079837D01*
G01*
X97561130Y-64960163D02*
G75*
G03X95479039Y-64960000I-1041130J-1079837D01*
G01*
X98192335Y-67118608D02*
G75*
G02X94960000Y-67275516I-1672335J1078608D01*
G01*
X98192335Y-64961392D02*
G75*
G03X94960000Y-64804484I-1672335J-1078608D01*
G01*
X104485000Y-48070000D02*
X104485000Y-48226000D01*
X104485000Y-45754000D02*
X104485000Y-45910000D01*
X107086130Y-48069837D02*
G75*
G02X105004039Y-48070000I-1041130J1079837D01*
G01*
X107086130Y-45910163D02*
G75*
G03X105004039Y-45910000I-1041130J-1079837D01*
G01*
X107717335Y-48068608D02*
G75*
G02X104485000Y-48225516I-1672335J1078608D01*
G01*
X107717335Y-45911392D02*
G75*
G03X104485000Y-45754484I-1672335J-1078608D01*
G01*
X114010000Y-67120000D02*
X114010000Y-67276000D01*
X114010000Y-64804000D02*
X114010000Y-64960000D01*
X116611130Y-67119837D02*
G75*
G02X114529039Y-67120000I-1041130J1079837D01*
G01*
X116611130Y-64960163D02*
G75*
G03X114529039Y-64960000I-1041130J-1079837D01*
G01*
X117242335Y-67118608D02*
G75*
G02X114010000Y-67275516I-1672335J1078608D01*
G01*
X117242335Y-64961392D02*
G75*
G03X114010000Y-64804484I-1672335J-1078608D01*
G01*
X123535000Y-48070000D02*
X123535000Y-48226000D01*
X123535000Y-45754000D02*
X123535000Y-45910000D01*
X126136130Y-48069837D02*
G75*
G02X124054039Y-48070000I-1041130J1079837D01*
G01*
X126136130Y-45910163D02*
G75*
G03X124054039Y-45910000I-1041130J-1079837D01*
G01*
X126767335Y-48068608D02*
G75*
G02X123535000Y-48225516I-1672335J1078608D01*
G01*
X126767335Y-45911392D02*
G75*
G03X123535000Y-45754484I-1672335J-1078608D01*
G01*
X133060000Y-67120000D02*
X133060000Y-67276000D01*
X133060000Y-64804000D02*
X133060000Y-64960000D01*
X135661130Y-67119837D02*
G75*
G02X133579039Y-67120000I-1041130J1079837D01*
G01*
X135661130Y-64960163D02*
G75*
G03X133579039Y-64960000I-1041130J-1079837D01*
G01*
X136292335Y-67118608D02*
G75*
G02X133060000Y-67275516I-1672335J1078608D01*
G01*
X136292335Y-64961392D02*
G75*
G03X133060000Y-64804484I-1672335J-1078608D01*
G01*
X152110000Y-67120000D02*
X152110000Y-67276000D01*
X152110000Y-64804000D02*
X152110000Y-64960000D01*
X154711130Y-67119837D02*
G75*
G02X152629039Y-67120000I-1041130J1079837D01*
G01*
X154711130Y-64960163D02*
G75*
G03X152629039Y-64960000I-1041130J-1079837D01*
G01*
X155342335Y-67118608D02*
G75*
G02X152110000Y-67275516I-1672335J1078608D01*
G01*
X155342335Y-64961392D02*
G75*
G03X152110000Y-64804484I-1672335J-1078608D01*
G01*
X161635000Y-48070000D02*
X161635000Y-48226000D01*
X161635000Y-45754000D02*
X161635000Y-45910000D01*
X164236130Y-48069837D02*
G75*
G02X162154039Y-48070000I-1041130J1079837D01*
G01*
X164236130Y-45910163D02*
G75*
G03X162154039Y-45910000I-1041130J-1079837D01*
G01*
X164867335Y-48068608D02*
G75*
G02X161635000Y-48225516I-1672335J1078608D01*
G01*
X164867335Y-45911392D02*
G75*
G03X161635000Y-45754484I-1672335J-1078608D01*
G01*
X171160000Y-67120000D02*
X171160000Y-67276000D01*
X171160000Y-64804000D02*
X171160000Y-64960000D01*
X173761130Y-67119837D02*
G75*
G02X171679039Y-67120000I-1041130J1079837D01*
G01*
X173761130Y-64960163D02*
G75*
G03X171679039Y-64960000I-1041130J-1079837D01*
G01*
X174392335Y-67118608D02*
G75*
G02X171160000Y-67275516I-1672335J1078608D01*
G01*
X174392335Y-64961392D02*
G75*
G03X171160000Y-64804484I-1672335J-1078608D01*
G01*
X180685000Y-48070000D02*
X180685000Y-48226000D01*
X180685000Y-45754000D02*
X180685000Y-45910000D01*
X183286130Y-48069837D02*
G75*
G02X181204039Y-48070000I-1041130J1079837D01*
G01*
X183286130Y-45910163D02*
G75*
G03X181204039Y-45910000I-1041130J-1079837D01*
G01*
X183917335Y-48068608D02*
G75*
G02X180685000Y-48225516I-1672335J1078608D01*
G01*
X183917335Y-45911392D02*
G75*
G03X180685000Y-45754484I-1672335J-1078608D01*
G01*
X18760000Y-9970000D02*
X18760000Y-10126000D01*
X18760000Y-7654000D02*
X18760000Y-7810000D01*
X21361130Y-9969837D02*
G75*
G02X19279039Y-9970000I-1041130J1079837D01*
G01*
X21361130Y-7810163D02*
G75*
G03X19279039Y-7810000I-1041130J-1079837D01*
G01*
X21992335Y-9968608D02*
G75*
G02X18760000Y-10125516I-1672335J1078608D01*
G01*
X21992335Y-7811392D02*
G75*
G03X18760000Y-7654484I-1672335J-1078608D01*
G01*
X28285000Y9080000D02*
X28285000Y8924000D01*
X28285000Y11396000D02*
X28285000Y11240000D01*
X30886130Y9080163D02*
G75*
G02X28804039Y9080000I-1041130J1079837D01*
G01*
X30886130Y11239837D02*
G75*
G03X28804039Y11240000I-1041130J-1079837D01*
G01*
X31517335Y9081392D02*
G75*
G02X28285000Y8924484I-1672335J1078608D01*
G01*
X31517335Y11238608D02*
G75*
G03X28285000Y11395516I-1672335J-1078608D01*
G01*
X37810000Y-9970000D02*
X37810000Y-10126000D01*
X37810000Y-7654000D02*
X37810000Y-7810000D01*
X40411130Y-9969837D02*
G75*
G02X38329039Y-9970000I-1041130J1079837D01*
G01*
X40411130Y-7810163D02*
G75*
G03X38329039Y-7810000I-1041130J-1079837D01*
G01*
X41042335Y-9968608D02*
G75*
G02X37810000Y-10125516I-1672335J1078608D01*
G01*
X41042335Y-7811392D02*
G75*
G03X37810000Y-7654484I-1672335J-1078608D01*
G01*
X47335000Y9080000D02*
X47335000Y8924000D01*
X47335000Y11396000D02*
X47335000Y11240000D01*
X49936130Y9080163D02*
G75*
G02X47854039Y9080000I-1041130J1079837D01*
G01*
X49936130Y11239837D02*
G75*
G03X47854039Y11240000I-1041130J-1079837D01*
G01*
X50567335Y9081392D02*
G75*
G02X47335000Y8924484I-1672335J1078608D01*
G01*
X50567335Y11238608D02*
G75*
G03X47335000Y11395516I-1672335J-1078608D01*
G01*
X56860000Y-9970000D02*
X56860000Y-10126000D01*
X56860000Y-7654000D02*
X56860000Y-7810000D01*
X59461130Y-9969837D02*
G75*
G02X57379039Y-9970000I-1041130J1079837D01*
G01*
X59461130Y-7810163D02*
G75*
G03X57379039Y-7810000I-1041130J-1079837D01*
G01*
X60092335Y-9968608D02*
G75*
G02X56860000Y-10125516I-1672335J1078608D01*
G01*
X60092335Y-7811392D02*
G75*
G03X56860000Y-7654484I-1672335J-1078608D01*
G01*
X75910000Y-9970000D02*
X75910000Y-10126000D01*
X75910000Y-7654000D02*
X75910000Y-7810000D01*
X78511130Y-9969837D02*
G75*
G02X76429039Y-9970000I-1041130J1079837D01*
G01*
X78511130Y-7810163D02*
G75*
G03X76429039Y-7810000I-1041130J-1079837D01*
G01*
X79142335Y-9968608D02*
G75*
G02X75910000Y-10125516I-1672335J1078608D01*
G01*
X79142335Y-7811392D02*
G75*
G03X75910000Y-7654484I-1672335J-1078608D01*
G01*
X85435000Y9080000D02*
X85435000Y8924000D01*
X85435000Y11396000D02*
X85435000Y11240000D01*
X88036130Y9080163D02*
G75*
G02X85954039Y9080000I-1041130J1079837D01*
G01*
X88036130Y11239837D02*
G75*
G03X85954039Y11240000I-1041130J-1079837D01*
G01*
X88667335Y9081392D02*
G75*
G02X85435000Y8924484I-1672335J1078608D01*
G01*
X88667335Y11238608D02*
G75*
G03X85435000Y11395516I-1672335J-1078608D01*
G01*
X94960000Y-9970000D02*
X94960000Y-10126000D01*
X94960000Y-7654000D02*
X94960000Y-7810000D01*
X97561130Y-9969837D02*
G75*
G02X95479039Y-9970000I-1041130J1079837D01*
G01*
X97561130Y-7810163D02*
G75*
G03X95479039Y-7810000I-1041130J-1079837D01*
G01*
X98192335Y-9968608D02*
G75*
G02X94960000Y-10125516I-1672335J1078608D01*
G01*
X98192335Y-7811392D02*
G75*
G03X94960000Y-7654484I-1672335J-1078608D01*
G01*
X104485000Y9080000D02*
X104485000Y8924000D01*
X104485000Y11396000D02*
X104485000Y11240000D01*
X107086130Y9080163D02*
G75*
G02X105004039Y9080000I-1041130J1079837D01*
G01*
X107086130Y11239837D02*
G75*
G03X105004039Y11240000I-1041130J-1079837D01*
G01*
X107717335Y9081392D02*
G75*
G02X104485000Y8924484I-1672335J1078608D01*
G01*
X107717335Y11238608D02*
G75*
G03X104485000Y11395516I-1672335J-1078608D01*
G01*
X114010000Y-9970000D02*
X114010000Y-10126000D01*
X114010000Y-7654000D02*
X114010000Y-7810000D01*
X116611130Y-9969837D02*
G75*
G02X114529039Y-9970000I-1041130J1079837D01*
G01*
X116611130Y-7810163D02*
G75*
G03X114529039Y-7810000I-1041130J-1079837D01*
G01*
X117242335Y-9968608D02*
G75*
G02X114010000Y-10125516I-1672335J1078608D01*
G01*
X117242335Y-7811392D02*
G75*
G03X114010000Y-7654484I-1672335J-1078608D01*
G01*
X123535000Y9080000D02*
X123535000Y8924000D01*
X123535000Y11396000D02*
X123535000Y11240000D01*
X126136130Y9080163D02*
G75*
G02X124054039Y9080000I-1041130J1079837D01*
G01*
X126136130Y11239837D02*
G75*
G03X124054039Y11240000I-1041130J-1079837D01*
G01*
X126767335Y9081392D02*
G75*
G02X123535000Y8924484I-1672335J1078608D01*
G01*
X126767335Y11238608D02*
G75*
G03X123535000Y11395516I-1672335J-1078608D01*
G01*
X133060000Y-9970000D02*
X133060000Y-10126000D01*
X133060000Y-7654000D02*
X133060000Y-7810000D01*
X135661130Y-9969837D02*
G75*
G02X133579039Y-9970000I-1041130J1079837D01*
G01*
X135661130Y-7810163D02*
G75*
G03X133579039Y-7810000I-1041130J-1079837D01*
G01*
X136292335Y-9968608D02*
G75*
G02X133060000Y-10125516I-1672335J1078608D01*
G01*
X136292335Y-7811392D02*
G75*
G03X133060000Y-7654484I-1672335J-1078608D01*
G01*
X152110000Y-9970000D02*
X152110000Y-10126000D01*
X152110000Y-7654000D02*
X152110000Y-7810000D01*
X154711130Y-9969837D02*
G75*
G02X152629039Y-9970000I-1041130J1079837D01*
G01*
X154711130Y-7810163D02*
G75*
G03X152629039Y-7810000I-1041130J-1079837D01*
G01*
X155342335Y-9968608D02*
G75*
G02X152110000Y-10125516I-1672335J1078608D01*
G01*
X155342335Y-7811392D02*
G75*
G03X152110000Y-7654484I-1672335J-1078608D01*
G01*
X161635000Y9080000D02*
X161635000Y8924000D01*
X161635000Y11396000D02*
X161635000Y11240000D01*
X164236130Y9080163D02*
G75*
G02X162154039Y9080000I-1041130J1079837D01*
G01*
X164236130Y11239837D02*
G75*
G03X162154039Y11240000I-1041130J-1079837D01*
G01*
X164867335Y9081392D02*
G75*
G02X161635000Y8924484I-1672335J1078608D01*
G01*
X164867335Y11238608D02*
G75*
G03X161635000Y11395516I-1672335J-1078608D01*
G01*
X171160000Y-9970000D02*
X171160000Y-10126000D01*
X171160000Y-7654000D02*
X171160000Y-7810000D01*
X173761130Y-9969837D02*
G75*
G02X171679039Y-9970000I-1041130J1079837D01*
G01*
X173761130Y-7810163D02*
G75*
G03X171679039Y-7810000I-1041130J-1079837D01*
G01*
X174392335Y-9968608D02*
G75*
G02X171160000Y-10125516I-1672335J1078608D01*
G01*
X174392335Y-7811392D02*
G75*
G03X171160000Y-7654484I-1672335J-1078608D01*
G01*
X180685000Y9080000D02*
X180685000Y8924000D01*
X180685000Y11396000D02*
X180685000Y11240000D01*
X183286130Y9080163D02*
G75*
G02X181204039Y9080000I-1041130J1079837D01*
G01*
X183286130Y11239837D02*
G75*
G03X181204039Y11240000I-1041130J-1079837D01*
G01*
X183917335Y9081392D02*
G75*
G02X180685000Y8924484I-1672335J1078608D01*
G01*
X183917335Y11238608D02*
G75*
G03X180685000Y11395516I-1672335J-1078608D01*
G01*
X13335000Y-182245000D02*
X13335000Y-168275000D01*
X27305000Y-182245000D02*
X13335000Y-182245000D01*
X27305000Y-168275000D02*
X27305000Y-182245000D01*
X13335000Y-168275000D02*
X27305000Y-168275000D01*
X22860000Y-163195000D02*
X22860000Y-149225000D01*
X36830000Y-163195000D02*
X22860000Y-163195000D01*
X36830000Y-149225000D02*
X36830000Y-163195000D01*
X22860000Y-149225000D02*
X36830000Y-149225000D01*
X41910000Y-163195000D02*
X41910000Y-149225000D01*
X55880000Y-163195000D02*
X41910000Y-163195000D01*
X55880000Y-149225000D02*
X55880000Y-163195000D01*
X41910000Y-149225000D02*
X55880000Y-149225000D01*
X51435000Y-182245000D02*
X51435000Y-168275000D01*
X65405000Y-182245000D02*
X51435000Y-182245000D01*
X65405000Y-168275000D02*
X65405000Y-182245000D01*
X51435000Y-168275000D02*
X65405000Y-168275000D01*
X70485000Y-182245000D02*
X70485000Y-168275000D01*
X84455000Y-182245000D02*
X70485000Y-182245000D01*
X84455000Y-168275000D02*
X84455000Y-182245000D01*
X70485000Y-168275000D02*
X84455000Y-168275000D01*
X89535000Y-182245000D02*
X89535000Y-168275000D01*
X103505000Y-182245000D02*
X89535000Y-182245000D01*
X103505000Y-168275000D02*
X103505000Y-182245000D01*
X89535000Y-168275000D02*
X103505000Y-168275000D01*
X80010000Y-163195000D02*
X80010000Y-149225000D01*
X93980000Y-163195000D02*
X80010000Y-163195000D01*
X93980000Y-149225000D02*
X93980000Y-163195000D01*
X80010000Y-149225000D02*
X93980000Y-149225000D01*
X108585000Y-182245000D02*
X108585000Y-168275000D01*
X122555000Y-182245000D02*
X108585000Y-182245000D01*
X122555000Y-168275000D02*
X122555000Y-182245000D01*
X108585000Y-168275000D02*
X122555000Y-168275000D01*
X99060000Y-163195000D02*
X99060000Y-149225000D01*
X113030000Y-163195000D02*
X99060000Y-163195000D01*
X113030000Y-149225000D02*
X113030000Y-163195000D01*
X99060000Y-149225000D02*
X113030000Y-149225000D01*
X118110000Y-163195000D02*
X118110000Y-149225000D01*
X132080000Y-163195000D02*
X118110000Y-163195000D01*
X132080000Y-149225000D02*
X132080000Y-163195000D01*
X118110000Y-149225000D02*
X132080000Y-149225000D01*
X127635000Y-182245000D02*
X127635000Y-168275000D01*
X141605000Y-182245000D02*
X127635000Y-182245000D01*
X141605000Y-168275000D02*
X141605000Y-182245000D01*
X127635000Y-168275000D02*
X141605000Y-168275000D01*
X146685000Y-182245000D02*
X146685000Y-168275000D01*
X160655000Y-182245000D02*
X146685000Y-182245000D01*
X160655000Y-168275000D02*
X160655000Y-182245000D01*
X146685000Y-168275000D02*
X160655000Y-168275000D01*
X156210000Y-163195000D02*
X156210000Y-149225000D01*
X170180000Y-163195000D02*
X156210000Y-163195000D01*
X170180000Y-149225000D02*
X170180000Y-163195000D01*
X156210000Y-149225000D02*
X170180000Y-149225000D01*
X165735000Y-182245000D02*
X165735000Y-168275000D01*
X179705000Y-182245000D02*
X165735000Y-182245000D01*
X179705000Y-168275000D02*
X179705000Y-182245000D01*
X165735000Y-168275000D02*
X179705000Y-168275000D01*
X175260000Y-163195000D02*
X175260000Y-149225000D01*
X189230000Y-163195000D02*
X175260000Y-163195000D01*
X189230000Y-149225000D02*
X189230000Y-163195000D01*
X175260000Y-149225000D02*
X189230000Y-149225000D01*
X141545000Y36770000D02*
X141545000Y38100000D01*
X142875000Y36770000D02*
X141545000Y36770000D01*
X144145000Y36770000D02*
X144145000Y39430000D01*
X144145000Y39430000D02*
X159445000Y39430000D01*
X144145000Y36770000D02*
X159445000Y36770000D01*
X159445000Y36770000D02*
X159445000Y39430000D01*
X167520000Y59860000D02*
X167520000Y49360000D01*
X177920000Y59860000D02*
X167520000Y59860000D01*
X177920000Y49360000D02*
X177920000Y59860000D01*
X167520000Y49360000D02*
X177920000Y49360000D01*
X167580000Y56860000D02*
X167580000Y55610000D01*
X177860000Y56860000D02*
X167580000Y56860000D01*
X177860000Y52360000D02*
X177860000Y56860000D01*
X167580000Y52360000D02*
X177860000Y52360000D01*
X167580000Y53610000D02*
X167580000Y52360000D01*
X167580000Y55610000D02*
G75*
G02X167580000Y53610000I0J-1000000D01*
G01*
X176600000Y82110000D02*
X176600000Y86130000D01*
X176600000Y86130000D02*
X168880000Y86130000D01*
X168880000Y86130000D02*
X168880000Y82110000D01*
X168880000Y82110000D02*
X176600000Y82110000D01*
X176600000Y83820000D02*
X176100000Y83820000D01*
X176100000Y83820000D02*
X176100000Y82610000D01*
X176100000Y82610000D02*
X169380000Y82610000D01*
X169380000Y82610000D02*
X169380000Y83820000D01*
X169380000Y83820000D02*
X168880000Y83820000D01*
X176600000Y84630000D02*
X175600000Y84630000D01*
X175600000Y84630000D02*
X175600000Y86130000D01*
X168880000Y84630000D02*
X169880000Y84630000D01*
X169880000Y84630000D02*
X169880000Y86130000D01*
X176900000Y83930000D02*
X176900000Y86430000D01*
X176900000Y86430000D02*
X174400000Y86430000D01*
X132280000Y79050000D02*
X132280000Y83590000D01*
X134420000Y79050000D02*
X134420000Y83590000D01*
X132280000Y79050000D02*
X132295000Y79050000D01*
X134405000Y79050000D02*
X134420000Y79050000D01*
X132280000Y83590000D02*
X132295000Y83590000D01*
X134405000Y83590000D02*
X134420000Y83590000D01*
X177360000Y72390000D02*
G75*
G03X177360000Y72390000I-7120000J0D01*
G01*
X170240000Y65310000D02*
X170240000Y79470000D01*
X170200000Y65310000D02*
X170200000Y79470000D01*
X170160000Y65310000D02*
X170160000Y79470000D01*
X170120000Y65311000D02*
X170120000Y79469000D01*
X170080000Y65311000D02*
X170080000Y79469000D01*
X170040000Y65312000D02*
X170040000Y79468000D01*
X170000000Y65314000D02*
X170000000Y79466000D01*
X169960000Y65315000D02*
X169960000Y79465000D01*
X169920000Y65317000D02*
X169920000Y79463000D01*
X169880000Y65319000D02*
X169880000Y79461000D01*
X169840000Y65321000D02*
X169840000Y79459000D01*
X169800000Y65323000D02*
X169800000Y79457000D01*
X169760000Y65326000D02*
X169760000Y79454000D01*
X169720000Y65329000D02*
X169720000Y79451000D01*
X169680000Y65332000D02*
X169680000Y79448000D01*
X169640000Y65335000D02*
X169640000Y79445000D01*
X169600000Y65338000D02*
X169600000Y79442000D01*
X169560000Y65342000D02*
X169560000Y79438000D01*
X169519000Y65346000D02*
X169519000Y79434000D01*
X169479000Y65350000D02*
X169479000Y79430000D01*
X169439000Y65355000D02*
X169439000Y79425000D01*
X169399000Y65359000D02*
X169399000Y79421000D01*
X169359000Y65364000D02*
X169359000Y79416000D01*
X169319000Y65369000D02*
X169319000Y79411000D01*
X169279000Y65375000D02*
X169279000Y79405000D01*
X169239000Y65380000D02*
X169239000Y79400000D01*
X169199000Y65386000D02*
X169199000Y79394000D01*
X169159000Y65392000D02*
X169159000Y79388000D01*
X169119000Y65398000D02*
X169119000Y79382000D01*
X169079000Y65405000D02*
X169079000Y79375000D01*
X169039000Y65411000D02*
X169039000Y79369000D01*
X168999000Y65418000D02*
X168999000Y79362000D01*
X168959000Y65426000D02*
X168959000Y79354000D01*
X168919000Y65433000D02*
X168919000Y79347000D01*
X168879000Y65441000D02*
X168879000Y79339000D01*
X168839000Y65448000D02*
X168839000Y79332000D01*
X168799000Y65457000D02*
X168799000Y79323000D01*
X168759000Y65465000D02*
X168759000Y79315000D01*
X168719000Y65474000D02*
X168719000Y79306000D01*
X168679000Y65483000D02*
X168679000Y79297000D01*
X168639000Y65492000D02*
X168639000Y79288000D01*
X168599000Y65501000D02*
X168599000Y79279000D01*
X168559000Y65511000D02*
X168559000Y79269000D01*
X168519000Y65520000D02*
X168519000Y79260000D01*
X168479000Y65530000D02*
X168479000Y79250000D01*
X168439000Y65541000D02*
X168439000Y79239000D01*
X168399000Y65551000D02*
X168399000Y79229000D01*
X168359000Y65562000D02*
X168359000Y79218000D01*
X168319000Y65573000D02*
X168319000Y79207000D01*
X168279000Y65585000D02*
X168279000Y79195000D01*
X168239000Y65596000D02*
X168239000Y79184000D01*
X168199000Y65608000D02*
X168199000Y79172000D01*
X168159000Y65620000D02*
X168159000Y79160000D01*
X168119000Y65632000D02*
X168119000Y79148000D01*
X168079000Y65645000D02*
X168079000Y79135000D01*
X168039000Y65658000D02*
X168039000Y79122000D01*
X167999000Y65671000D02*
X167999000Y79109000D01*
X167959000Y65684000D02*
X167959000Y79096000D01*
X167919000Y65698000D02*
X167919000Y70950000D01*
X167919000Y73830000D02*
X167919000Y79082000D01*
X167879000Y65712000D02*
X167879000Y70950000D01*
X167879000Y73830000D02*
X167879000Y79068000D01*
X167839000Y65726000D02*
X167839000Y70950000D01*
X167839000Y73830000D02*
X167839000Y79054000D01*
X167799000Y65741000D02*
X167799000Y70950000D01*
X167799000Y73830000D02*
X167799000Y79039000D01*
X167759000Y65755000D02*
X167759000Y70950000D01*
X167759000Y73830000D02*
X167759000Y79025000D01*
X167719000Y65770000D02*
X167719000Y70950000D01*
X167719000Y73830000D02*
X167719000Y79010000D01*
X167679000Y65786000D02*
X167679000Y70950000D01*
X167679000Y73830000D02*
X167679000Y78994000D01*
X167639000Y65801000D02*
X167639000Y70950000D01*
X167639000Y73830000D02*
X167639000Y78979000D01*
X167599000Y65817000D02*
X167599000Y70950000D01*
X167599000Y73830000D02*
X167599000Y78963000D01*
X167559000Y65833000D02*
X167559000Y70950000D01*
X167559000Y73830000D02*
X167559000Y78947000D01*
X167519000Y65850000D02*
X167519000Y70950000D01*
X167519000Y73830000D02*
X167519000Y78930000D01*
X167479000Y65866000D02*
X167479000Y70950000D01*
X167479000Y73830000D02*
X167479000Y78914000D01*
X167439000Y65883000D02*
X167439000Y70950000D01*
X167439000Y73830000D02*
X167439000Y78897000D01*
X167399000Y65900000D02*
X167399000Y70950000D01*
X167399000Y73830000D02*
X167399000Y78880000D01*
X167359000Y65918000D02*
X167359000Y70950000D01*
X167359000Y73830000D02*
X167359000Y78862000D01*
X167319000Y65936000D02*
X167319000Y70950000D01*
X167319000Y73830000D02*
X167319000Y78844000D01*
X167279000Y65954000D02*
X167279000Y70950000D01*
X167279000Y73830000D02*
X167279000Y78826000D01*
X167239000Y65972000D02*
X167239000Y70950000D01*
X167239000Y73830000D02*
X167239000Y78808000D01*
X167199000Y65991000D02*
X167199000Y70950000D01*
X167199000Y73830000D02*
X167199000Y78789000D01*
X167159000Y66010000D02*
X167159000Y70950000D01*
X167159000Y73830000D02*
X167159000Y78770000D01*
X167119000Y66030000D02*
X167119000Y70950000D01*
X167119000Y73830000D02*
X167119000Y78750000D01*
X167079000Y66049000D02*
X167079000Y70950000D01*
X167079000Y73830000D02*
X167079000Y78731000D01*
X167039000Y66069000D02*
X167039000Y70950000D01*
X167039000Y73830000D02*
X167039000Y78711000D01*
X166999000Y66089000D02*
X166999000Y70950000D01*
X166999000Y73830000D02*
X166999000Y78691000D01*
X166959000Y66110000D02*
X166959000Y70950000D01*
X166959000Y73830000D02*
X166959000Y78670000D01*
X166919000Y66131000D02*
X166919000Y70950000D01*
X166919000Y73830000D02*
X166919000Y78649000D01*
X166879000Y66152000D02*
X166879000Y70950000D01*
X166879000Y73830000D02*
X166879000Y78628000D01*
X166839000Y66174000D02*
X166839000Y70950000D01*
X166839000Y73830000D02*
X166839000Y78606000D01*
X166799000Y66196000D02*
X166799000Y70950000D01*
X166799000Y73830000D02*
X166799000Y78584000D01*
X166759000Y66218000D02*
X166759000Y70950000D01*
X166759000Y73830000D02*
X166759000Y78562000D01*
X166719000Y66240000D02*
X166719000Y70950000D01*
X166719000Y73830000D02*
X166719000Y78540000D01*
X166679000Y66263000D02*
X166679000Y70950000D01*
X166679000Y73830000D02*
X166679000Y78517000D01*
X166639000Y66287000D02*
X166639000Y70950000D01*
X166639000Y73830000D02*
X166639000Y78493000D01*
X166599000Y66310000D02*
X166599000Y70950000D01*
X166599000Y73830000D02*
X166599000Y78470000D01*
X166559000Y66334000D02*
X166559000Y70950000D01*
X166559000Y73830000D02*
X166559000Y78446000D01*
X166519000Y66359000D02*
X166519000Y70950000D01*
X166519000Y73830000D02*
X166519000Y78421000D01*
X166479000Y66383000D02*
X166479000Y70950000D01*
X166479000Y73830000D02*
X166479000Y78397000D01*
X166439000Y66408000D02*
X166439000Y70950000D01*
X166439000Y73830000D02*
X166439000Y78372000D01*
X166399000Y66434000D02*
X166399000Y70950000D01*
X166399000Y73830000D02*
X166399000Y78346000D01*
X166359000Y66460000D02*
X166359000Y70950000D01*
X166359000Y73830000D02*
X166359000Y78320000D01*
X166319000Y66486000D02*
X166319000Y70950000D01*
X166319000Y73830000D02*
X166319000Y78294000D01*
X166279000Y66512000D02*
X166279000Y70950000D01*
X166279000Y73830000D02*
X166279000Y78268000D01*
X166239000Y66539000D02*
X166239000Y70950000D01*
X166239000Y73830000D02*
X166239000Y78241000D01*
X166199000Y66567000D02*
X166199000Y70950000D01*
X166199000Y73830000D02*
X166199000Y78213000D01*
X166159000Y66594000D02*
X166159000Y70950000D01*
X166159000Y73830000D02*
X166159000Y78186000D01*
X166119000Y66623000D02*
X166119000Y70950000D01*
X166119000Y73830000D02*
X166119000Y78157000D01*
X166079000Y66651000D02*
X166079000Y70950000D01*
X166079000Y73830000D02*
X166079000Y78129000D01*
X166039000Y66680000D02*
X166039000Y70950000D01*
X166039000Y73830000D02*
X166039000Y78100000D01*
X165999000Y66710000D02*
X165999000Y70950000D01*
X165999000Y73830000D02*
X165999000Y78070000D01*
X165959000Y66740000D02*
X165959000Y70950000D01*
X165959000Y73830000D02*
X165959000Y78040000D01*
X165919000Y66770000D02*
X165919000Y70950000D01*
X165919000Y73830000D02*
X165919000Y78010000D01*
X165879000Y66801000D02*
X165879000Y70950000D01*
X165879000Y73830000D02*
X165879000Y77979000D01*
X165839000Y66832000D02*
X165839000Y70950000D01*
X165839000Y73830000D02*
X165839000Y77948000D01*
X165799000Y66863000D02*
X165799000Y70950000D01*
X165799000Y73830000D02*
X165799000Y77917000D01*
X165759000Y66896000D02*
X165759000Y70950000D01*
X165759000Y73830000D02*
X165759000Y77884000D01*
X165719000Y66928000D02*
X165719000Y70950000D01*
X165719000Y73830000D02*
X165719000Y77852000D01*
X165679000Y66961000D02*
X165679000Y70950000D01*
X165679000Y73830000D02*
X165679000Y77819000D01*
X165639000Y66995000D02*
X165639000Y70950000D01*
X165639000Y73830000D02*
X165639000Y77785000D01*
X165599000Y67029000D02*
X165599000Y70950000D01*
X165599000Y73830000D02*
X165599000Y77751000D01*
X165559000Y67064000D02*
X165559000Y70950000D01*
X165559000Y73830000D02*
X165559000Y77716000D01*
X165519000Y67099000D02*
X165519000Y70950000D01*
X165519000Y73830000D02*
X165519000Y77681000D01*
X165479000Y67135000D02*
X165479000Y70950000D01*
X165479000Y73830000D02*
X165479000Y77645000D01*
X165439000Y67171000D02*
X165439000Y70950000D01*
X165439000Y73830000D02*
X165439000Y77609000D01*
X165399000Y67208000D02*
X165399000Y70950000D01*
X165399000Y73830000D02*
X165399000Y77572000D01*
X165359000Y67245000D02*
X165359000Y70950000D01*
X165359000Y73830000D02*
X165359000Y77535000D01*
X165319000Y67283000D02*
X165319000Y70950000D01*
X165319000Y73830000D02*
X165319000Y77497000D01*
X165279000Y67321000D02*
X165279000Y70950000D01*
X165279000Y73830000D02*
X165279000Y77459000D01*
X165239000Y67361000D02*
X165239000Y70950000D01*
X165239000Y73830000D02*
X165239000Y77419000D01*
X165199000Y67400000D02*
X165199000Y70950000D01*
X165199000Y73830000D02*
X165199000Y77380000D01*
X165159000Y67441000D02*
X165159000Y70950000D01*
X165159000Y73830000D02*
X165159000Y77339000D01*
X165119000Y67482000D02*
X165119000Y70950000D01*
X165119000Y73830000D02*
X165119000Y77298000D01*
X165079000Y67524000D02*
X165079000Y70950000D01*
X165079000Y73830000D02*
X165079000Y77256000D01*
X165039000Y67566000D02*
X165039000Y77214000D01*
X164999000Y67609000D02*
X164999000Y77171000D01*
X164959000Y67653000D02*
X164959000Y77127000D01*
X164919000Y67697000D02*
X164919000Y77083000D01*
X164879000Y67743000D02*
X164879000Y77037000D01*
X164839000Y67789000D02*
X164839000Y76991000D01*
X164799000Y67836000D02*
X164799000Y76944000D01*
X164759000Y67884000D02*
X164759000Y76896000D01*
X164719000Y67932000D02*
X164719000Y76848000D01*
X164679000Y67982000D02*
X164679000Y76798000D01*
X164639000Y68032000D02*
X164639000Y76748000D01*
X164599000Y68084000D02*
X164599000Y76696000D01*
X164559000Y68136000D02*
X164559000Y76644000D01*
X164519000Y68190000D02*
X164519000Y76590000D01*
X164479000Y68244000D02*
X164479000Y76536000D01*
X164439000Y68300000D02*
X164439000Y76480000D01*
X164399000Y68357000D02*
X164399000Y76423000D01*
X164359000Y68415000D02*
X164359000Y76365000D01*
X164319000Y68474000D02*
X164319000Y76306000D01*
X164279000Y68534000D02*
X164279000Y76246000D01*
X164239000Y68596000D02*
X164239000Y76184000D01*
X164199000Y68660000D02*
X164199000Y76120000D01*
X164159000Y68724000D02*
X164159000Y76056000D01*
X164119000Y68791000D02*
X164119000Y75989000D01*
X164079000Y68859000D02*
X164079000Y75921000D01*
X164039000Y68929000D02*
X164039000Y75851000D01*
X163999000Y69001000D02*
X163999000Y75779000D01*
X163959000Y69075000D02*
X163959000Y75705000D01*
X163919000Y69150000D02*
X163919000Y75630000D01*
X163879000Y69229000D02*
X163879000Y75551000D01*
X163839000Y69310000D02*
X163839000Y75470000D01*
X163799000Y69393000D02*
X163799000Y75387000D01*
X163759000Y69479000D02*
X163759000Y75301000D01*
X163719000Y69569000D02*
X163719000Y75211000D01*
X163679000Y69662000D02*
X163679000Y75118000D01*
X163639000Y69758000D02*
X163639000Y75022000D01*
X163599000Y69860000D02*
X163599000Y74920000D01*
X163559000Y69965000D02*
X163559000Y74815000D01*
X163519000Y70077000D02*
X163519000Y74703000D01*
X163479000Y70194000D02*
X163479000Y74586000D01*
X163439000Y70319000D02*
X163439000Y74461000D01*
X163399000Y70452000D02*
X163399000Y74328000D01*
X163359000Y70596000D02*
X163359000Y74184000D01*
X163319000Y70754000D02*
X163319000Y74026000D01*
X163279000Y70929000D02*
X163279000Y73851000D01*
X163239000Y71128000D02*
X163239000Y73652000D01*
X163199000Y71365000D02*
X163199000Y73415000D01*
X163159000Y71676000D02*
X163159000Y73104000D01*
X177859543Y68395000D02*
X176459543Y68395000D01*
X177159543Y67695000D02*
X177159543Y69095000D01*
X143105000Y42965000D02*
X143105000Y42980000D01*
X143105000Y40840000D02*
X143105000Y40855000D01*
X147645000Y42965000D02*
X147645000Y42980000D01*
X147645000Y40840000D02*
X147645000Y40855000D01*
X147645000Y42980000D02*
X143105000Y42980000D01*
X147645000Y40840000D02*
X143105000Y40840000D01*
X174220000Y42980000D02*
X178760000Y42980000D01*
X174220000Y40840000D02*
X178760000Y40840000D01*
X174220000Y42980000D02*
X174220000Y42965000D01*
X174220000Y40855000D02*
X174220000Y40840000D01*
X178760000Y42980000D02*
X178760000Y42965000D01*
X178760000Y40855000D02*
X178760000Y40840000D01*
X179270000Y28170000D02*
X179270000Y32710000D01*
X181410000Y28170000D02*
X181410000Y32710000D01*
X179270000Y28170000D02*
X179285000Y28170000D01*
X181395000Y28170000D02*
X181410000Y28170000D01*
X179270000Y32710000D02*
X179285000Y32710000D01*
X181395000Y32710000D02*
X181410000Y32710000D01*
X175320000Y60900000D02*
X173990000Y60900000D01*
X175320000Y62230000D02*
X175320000Y60900000D01*
X175320000Y63500000D02*
X172660000Y63500000D01*
X172660000Y63500000D02*
X172660000Y63560000D01*
X175320000Y63500000D02*
X175320000Y63560000D01*
X175320000Y63560000D02*
X172660000Y63560000D01*
X162620000Y57210000D02*
X159960000Y57210000D01*
X162620000Y57150000D02*
X162620000Y57210000D01*
X159960000Y57150000D02*
X159960000Y57210000D01*
X162620000Y57150000D02*
X159960000Y57150000D01*
X162620000Y55880000D02*
X162620000Y54550000D01*
X162620000Y54550000D02*
X161290000Y54550000D01*
X177860000Y63560000D02*
X175200000Y63560000D01*
X177860000Y63500000D02*
X177860000Y63560000D01*
X175200000Y63500000D02*
X175200000Y63560000D01*
X177860000Y63500000D02*
X175200000Y63500000D01*
X177860000Y62230000D02*
X177860000Y60900000D01*
X177860000Y60900000D02*
X176530000Y60900000D01*
X168970000Y27245000D02*
X167640000Y27245000D01*
X168970000Y28575000D02*
X168970000Y27245000D01*
X168970000Y29845000D02*
X166310000Y29845000D01*
X166310000Y29845000D02*
X166310000Y29905000D01*
X168970000Y29845000D02*
X168970000Y29905000D01*
X168970000Y29905000D02*
X166310000Y29905000D01*
X162620000Y52010000D02*
X161290000Y52010000D01*
X162620000Y53340000D02*
X162620000Y52010000D01*
X162620000Y54610000D02*
X159960000Y54610000D01*
X159960000Y54610000D02*
X159960000Y54670000D01*
X162620000Y54610000D02*
X162620000Y54670000D01*
X162620000Y54670000D02*
X159960000Y54670000D01*
X162620000Y59750000D02*
X159960000Y59750000D01*
X162620000Y59690000D02*
X162620000Y59750000D01*
X159960000Y59690000D02*
X159960000Y59750000D01*
X162620000Y59690000D02*
X159960000Y59690000D01*
X162620000Y58420000D02*
X162620000Y57090000D01*
X162620000Y57090000D02*
X161290000Y57090000D01*
X190870000Y86430000D02*
X188370000Y86430000D01*
X190870000Y83930000D02*
X190870000Y86430000D01*
X183850000Y84630000D02*
X183850000Y86130000D01*
X182850000Y84630000D02*
X183850000Y84630000D01*
X189570000Y84630000D02*
X189570000Y86130000D01*
X190570000Y84630000D02*
X189570000Y84630000D01*
X183350000Y83820000D02*
X182850000Y83820000D01*
X183350000Y82610000D02*
X183350000Y83820000D01*
X190070000Y82610000D02*
X183350000Y82610000D01*
X190070000Y83820000D02*
X190070000Y82610000D01*
X190570000Y83820000D02*
X190070000Y83820000D01*
X182850000Y82110000D02*
X190570000Y82110000D01*
X182850000Y86130000D02*
X182850000Y82110000D01*
X190570000Y86130000D02*
X182850000Y86130000D01*
X190570000Y82110000D02*
X190570000Y86130000D01*
X137100000Y77640000D02*
X155000000Y77640000D01*
X155000000Y77640000D02*
X155000000Y80300000D01*
X155000000Y80300000D02*
X137100000Y80300000D01*
X137100000Y80300000D02*
X137100000Y77640000D01*
X138050000Y80300000D02*
X138050000Y86300000D01*
X138050000Y86300000D02*
X138810000Y86300000D01*
X138810000Y86300000D02*
X138810000Y80300000D01*
X138110000Y80300000D02*
X138110000Y86300000D01*
X138230000Y80300000D02*
X138230000Y86300000D01*
X138350000Y80300000D02*
X138350000Y86300000D01*
X138470000Y80300000D02*
X138470000Y86300000D01*
X138590000Y80300000D02*
X138590000Y86300000D01*
X138710000Y80300000D02*
X138710000Y86300000D01*
X138050000Y77310000D02*
X138050000Y77640000D01*
X138810000Y77310000D02*
X138810000Y77640000D01*
X139700000Y77640000D02*
X139700000Y80300000D01*
X140590000Y80300000D02*
X140590000Y86300000D01*
X140590000Y86300000D02*
X141350000Y86300000D01*
X141350000Y86300000D02*
X141350000Y80300000D01*
X140590000Y77242929D02*
X140590000Y77640000D01*
X141350000Y77242929D02*
X141350000Y77640000D01*
X142240000Y77640000D02*
X142240000Y80300000D01*
X143130000Y80300000D02*
X143130000Y86300000D01*
X143130000Y86300000D02*
X143890000Y86300000D01*
X143890000Y86300000D02*
X143890000Y80300000D01*
X143130000Y77242929D02*
X143130000Y77640000D01*
X143890000Y77242929D02*
X143890000Y77640000D01*
X144780000Y77640000D02*
X144780000Y80300000D01*
X145670000Y80300000D02*
X145670000Y86300000D01*
X145670000Y86300000D02*
X146430000Y86300000D01*
X146430000Y86300000D02*
X146430000Y80300000D01*
X145670000Y77242929D02*
X145670000Y77640000D01*
X146430000Y77242929D02*
X146430000Y77640000D01*
X147320000Y77640000D02*
X147320000Y80300000D01*
X148210000Y80300000D02*
X148210000Y86300000D01*
X148210000Y86300000D02*
X148970000Y86300000D01*
X148970000Y86300000D02*
X148970000Y80300000D01*
X148210000Y77242929D02*
X148210000Y77640000D01*
X148970000Y77242929D02*
X148970000Y77640000D01*
X149860000Y77640000D02*
X149860000Y80300000D01*
X150750000Y80300000D02*
X150750000Y86300000D01*
X150750000Y86300000D02*
X151510000Y86300000D01*
X151510000Y86300000D02*
X151510000Y80300000D01*
X150750000Y77242929D02*
X150750000Y77640000D01*
X151510000Y77242929D02*
X151510000Y77640000D01*
X152400000Y77640000D02*
X152400000Y80300000D01*
X153290000Y80300000D02*
X153290000Y86300000D01*
X153290000Y86300000D02*
X154050000Y86300000D01*
X154050000Y86300000D02*
X154050000Y80300000D01*
X153290000Y77242929D02*
X153290000Y77640000D01*
X154050000Y77242929D02*
X154050000Y77640000D01*
X138430000Y74930000D02*
X137160000Y74930000D01*
X137160000Y74930000D02*
X137160000Y76200000D01*
X167580000Y48320000D02*
X167580000Y45660000D01*
X172720000Y48320000D02*
X167580000Y48320000D01*
X172720000Y45660000D02*
X167580000Y45660000D01*
X172720000Y48320000D02*
X172720000Y45660000D01*
X173990000Y48320000D02*
X175320000Y48320000D01*
X175320000Y48320000D02*
X175320000Y46990000D01*
X184090000Y80070000D02*
X184090000Y77410000D01*
X186690000Y80070000D02*
X184090000Y80070000D01*
X186690000Y77410000D02*
X184090000Y77410000D01*
X186690000Y80070000D02*
X186690000Y77410000D01*
X187960000Y80070000D02*
X189290000Y80070000D01*
X189290000Y80070000D02*
X189290000Y78740000D01*
X175490000Y28480000D02*
X175160000Y28480000D01*
X175160000Y28480000D02*
X175160000Y35020000D01*
X175160000Y35020000D02*
X175490000Y35020000D01*
X177570000Y28480000D02*
X177900000Y28480000D01*
X177900000Y28480000D02*
X177900000Y35020000D01*
X177900000Y35020000D02*
X177570000Y35020000D01*
X28980000Y47190000D02*
X24440000Y47190000D01*
X28980000Y49330000D02*
X24440000Y49330000D01*
X28980000Y47190000D02*
X28980000Y47205000D01*
X28980000Y49315000D02*
X28980000Y49330000D01*
X24440000Y47190000D02*
X24440000Y47205000D01*
X24440000Y49315000D02*
X24440000Y49330000D01*
X24670000Y45490000D02*
X24670000Y45820000D01*
X24670000Y45820000D02*
X31210000Y45820000D01*
X31210000Y45820000D02*
X31210000Y45490000D01*
X24670000Y43410000D02*
X24670000Y43080000D01*
X24670000Y43080000D02*
X31210000Y43080000D01*
X31210000Y43080000D02*
X31210000Y43410000D01*
X15180000Y35290000D02*
G75*
G02X15180000Y33290000I0J-1000000D01*
G01*
X15180000Y33290000D02*
X15180000Y32040000D01*
X15180000Y32040000D02*
X45780000Y32040000D01*
X45780000Y32040000D02*
X45780000Y36540000D01*
X45780000Y36540000D02*
X15180000Y36540000D01*
X15180000Y36540000D02*
X15180000Y35290000D01*
X160965000Y65205000D02*
X165505000Y65205000D01*
X160965000Y63065000D02*
X165505000Y63065000D01*
X160965000Y65205000D02*
X160965000Y65190000D01*
X160965000Y63080000D02*
X160965000Y63065000D01*
X165505000Y65205000D02*
X165505000Y65190000D01*
X165505000Y63080000D02*
X165505000Y63065000D01*
X65980000Y74870000D02*
X68640000Y74870000D01*
X65980000Y74930000D02*
X65980000Y74870000D01*
X68640000Y74930000D02*
X68640000Y74870000D01*
X65980000Y74930000D02*
X68640000Y74930000D01*
X65980000Y76200000D02*
X65980000Y77530000D01*
X65980000Y77530000D02*
X67310000Y77530000D01*
X126940000Y80070000D02*
X128270000Y80070000D01*
X126940000Y78740000D02*
X126940000Y80070000D01*
X126940000Y77470000D02*
X129600000Y77470000D01*
X129600000Y77470000D02*
X129600000Y77410000D01*
X126940000Y77470000D02*
X126940000Y77410000D01*
X126940000Y77410000D02*
X129600000Y77410000D01*
X65980000Y38040000D02*
X68640000Y38040000D01*
X65980000Y48260000D02*
X65980000Y38040000D01*
X68640000Y48260000D02*
X68640000Y38040000D01*
X65980000Y48260000D02*
X68640000Y48260000D01*
X65980000Y49530000D02*
X65980000Y50860000D01*
X65980000Y50860000D02*
X67310000Y50860000D01*
X129600000Y74990000D02*
X126940000Y74990000D01*
X129600000Y69850000D02*
X129600000Y74990000D01*
X126940000Y69850000D02*
X126940000Y74990000D01*
X129600000Y69850000D02*
X126940000Y69850000D01*
X129600000Y68580000D02*
X129600000Y67250000D01*
X129600000Y67250000D02*
X128270000Y67250000D01*
X188020000Y57845000D02*
X185360000Y57845000D01*
X188020000Y55245000D02*
X188020000Y57845000D01*
X185360000Y55245000D02*
X185360000Y57845000D01*
X188020000Y55245000D02*
X185360000Y55245000D01*
X188020000Y53975000D02*
X188020000Y52645000D01*
X188020000Y52645000D02*
X186690000Y52645000D01*
X68640000Y73720000D02*
X65980000Y73720000D01*
X68640000Y66040000D02*
X68640000Y73720000D01*
X65980000Y66040000D02*
X65980000Y73720000D01*
X68640000Y66040000D02*
X65980000Y66040000D01*
X68640000Y64770000D02*
X68640000Y63440000D01*
X68640000Y63440000D02*
X67310000Y63440000D01*
D10*
X189063333Y59332857D02*
X189015714Y59285238D01*
X188872857Y59237619D01*
X188777619Y59237619D01*
X188634761Y59285238D01*
X188539523Y59380476D01*
X188491904Y59475714D01*
X188444285Y59666190D01*
X188444285Y59809047D01*
X188491904Y59999523D01*
X188539523Y60094761D01*
X188634761Y60190000D01*
X188777619Y60237619D01*
X188872857Y60237619D01*
X189015714Y60190000D01*
X189063333Y60142380D01*
X189396666Y60237619D02*
X190063333Y60237619D01*
X189634761Y59237619D01*
X182435714Y64984285D02*
X182435714Y64317619D01*
X182197619Y65365238D02*
X181959523Y64650952D01*
X182578571Y64650952D01*
X182864285Y65317619D02*
X183530952Y65317619D01*
X183102380Y64317619D01*
X184102380Y65317619D02*
X184197619Y65317619D01*
X184292857Y65270000D01*
X184340476Y65222380D01*
X184388095Y65127142D01*
X184435714Y64936666D01*
X184435714Y64698571D01*
X184388095Y64508095D01*
X184340476Y64412857D01*
X184292857Y64365238D01*
X184197619Y64317619D01*
X184102380Y64317619D01*
X184007142Y64365238D01*
X183959523Y64412857D01*
X183911904Y64508095D01*
X183864285Y64698571D01*
X183864285Y64936666D01*
X183911904Y65127142D01*
X183959523Y65222380D01*
X184007142Y65270000D01*
X184102380Y65317619D01*
X184864285Y64984285D02*
X184864285Y63984285D01*
X185340476Y64460476D02*
X185388095Y64365238D01*
X185483333Y64317619D01*
X184864285Y64460476D02*
X184911904Y64365238D01*
X185007142Y64317619D01*
X185197619Y64317619D01*
X185292857Y64365238D01*
X185340476Y64460476D01*
X185340476Y64984285D01*
X186245238Y64841428D02*
X185911904Y64841428D01*
X185911904Y64317619D02*
X185911904Y65317619D01*
X186388095Y65317619D01*
X38036666Y-167790761D02*
X38179523Y-167838380D01*
X38417619Y-167838380D01*
X38512857Y-167790761D01*
X38560476Y-167743142D01*
X38608095Y-167647904D01*
X38608095Y-167552666D01*
X38560476Y-167457428D01*
X38512857Y-167409809D01*
X38417619Y-167362190D01*
X38227142Y-167314571D01*
X38131904Y-167266952D01*
X38084285Y-167219333D01*
X38036666Y-167124095D01*
X38036666Y-167028857D01*
X38084285Y-166933619D01*
X38131904Y-166886000D01*
X38227142Y-166838380D01*
X38465238Y-166838380D01*
X38608095Y-166886000D01*
X38941428Y-166838380D02*
X39179523Y-167838380D01*
X39370000Y-167124095D01*
X39560476Y-167838380D01*
X39798571Y-166838380D01*
X40084285Y-166838380D02*
X40703333Y-166838380D01*
X40370000Y-167219333D01*
X40512857Y-167219333D01*
X40608095Y-167266952D01*
X40655714Y-167314571D01*
X40703333Y-167409809D01*
X40703333Y-167647904D01*
X40655714Y-167743142D01*
X40608095Y-167790761D01*
X40512857Y-167838380D01*
X40227142Y-167838380D01*
X40131904Y-167790761D01*
X40084285Y-167743142D01*
X187364761Y46537619D02*
X187031428Y47013809D01*
X186793333Y46537619D02*
X186793333Y47537619D01*
X187174285Y47537619D01*
X187269523Y47490000D01*
X187317142Y47442380D01*
X187364761Y47347142D01*
X187364761Y47204285D01*
X187317142Y47109047D01*
X187269523Y47061428D01*
X187174285Y47013809D01*
X186793333Y47013809D01*
X187650476Y47537619D02*
X187983809Y46537619D01*
X188317142Y47537619D01*
X189174285Y46537619D02*
X188602857Y46537619D01*
X188888571Y46537619D02*
X188888571Y47537619D01*
X188793333Y47394761D01*
X188698095Y47299523D01*
X188602857Y47251904D01*
X22915714Y-179102380D02*
X22915714Y-178102380D01*
X23153809Y-178102380D01*
X23296666Y-178150000D01*
X23391904Y-178245238D01*
X23439523Y-178340476D01*
X23487142Y-178530952D01*
X23487142Y-178673809D01*
X23439523Y-178864285D01*
X23391904Y-178959523D01*
X23296666Y-179054761D01*
X23153809Y-179102380D01*
X22915714Y-179102380D01*
X24439523Y-179102380D02*
X23868095Y-179102380D01*
X24153809Y-179102380D02*
X24153809Y-178102380D01*
X24058571Y-178245238D01*
X23963333Y-178340476D01*
X23868095Y-178388095D01*
X24772857Y-178102380D02*
X25439523Y-178102380D01*
X25010952Y-179102380D01*
X32440714Y-160052380D02*
X32440714Y-159052380D01*
X32678809Y-159052380D01*
X32821666Y-159100000D01*
X32916904Y-159195238D01*
X32964523Y-159290476D01*
X33012142Y-159480952D01*
X33012142Y-159623809D01*
X32964523Y-159814285D01*
X32916904Y-159909523D01*
X32821666Y-160004761D01*
X32678809Y-160052380D01*
X32440714Y-160052380D01*
X33964523Y-160052380D02*
X33393095Y-160052380D01*
X33678809Y-160052380D02*
X33678809Y-159052380D01*
X33583571Y-159195238D01*
X33488333Y-159290476D01*
X33393095Y-159338095D01*
X34535952Y-159480952D02*
X34440714Y-159433333D01*
X34393095Y-159385714D01*
X34345476Y-159290476D01*
X34345476Y-159242857D01*
X34393095Y-159147619D01*
X34440714Y-159100000D01*
X34535952Y-159052380D01*
X34726428Y-159052380D01*
X34821666Y-159100000D01*
X34869285Y-159147619D01*
X34916904Y-159242857D01*
X34916904Y-159290476D01*
X34869285Y-159385714D01*
X34821666Y-159433333D01*
X34726428Y-159480952D01*
X34535952Y-159480952D01*
X34440714Y-159528571D01*
X34393095Y-159576190D01*
X34345476Y-159671428D01*
X34345476Y-159861904D01*
X34393095Y-159957142D01*
X34440714Y-160004761D01*
X34535952Y-160052380D01*
X34726428Y-160052380D01*
X34821666Y-160004761D01*
X34869285Y-159957142D01*
X34916904Y-159861904D01*
X34916904Y-159671428D01*
X34869285Y-159576190D01*
X34821666Y-159528571D01*
X34726428Y-159480952D01*
X41965714Y-179102380D02*
X41965714Y-178102380D01*
X42203809Y-178102380D01*
X42346666Y-178150000D01*
X42441904Y-178245238D01*
X42489523Y-178340476D01*
X42537142Y-178530952D01*
X42537142Y-178673809D01*
X42489523Y-178864285D01*
X42441904Y-178959523D01*
X42346666Y-179054761D01*
X42203809Y-179102380D01*
X41965714Y-179102380D01*
X43489523Y-179102380D02*
X42918095Y-179102380D01*
X43203809Y-179102380D02*
X43203809Y-178102380D01*
X43108571Y-178245238D01*
X43013333Y-178340476D01*
X42918095Y-178388095D01*
X43965714Y-179102380D02*
X44156190Y-179102380D01*
X44251428Y-179054761D01*
X44299047Y-179007142D01*
X44394285Y-178864285D01*
X44441904Y-178673809D01*
X44441904Y-178292857D01*
X44394285Y-178197619D01*
X44346666Y-178150000D01*
X44251428Y-178102380D01*
X44060952Y-178102380D01*
X43965714Y-178150000D01*
X43918095Y-178197619D01*
X43870476Y-178292857D01*
X43870476Y-178530952D01*
X43918095Y-178626190D01*
X43965714Y-178673809D01*
X44060952Y-178721428D01*
X44251428Y-178721428D01*
X44346666Y-178673809D01*
X44394285Y-178626190D01*
X44441904Y-178530952D01*
X51490714Y-160052380D02*
X51490714Y-159052380D01*
X51728809Y-159052380D01*
X51871666Y-159100000D01*
X51966904Y-159195238D01*
X52014523Y-159290476D01*
X52062142Y-159480952D01*
X52062142Y-159623809D01*
X52014523Y-159814285D01*
X51966904Y-159909523D01*
X51871666Y-160004761D01*
X51728809Y-160052380D01*
X51490714Y-160052380D01*
X52443095Y-159147619D02*
X52490714Y-159100000D01*
X52585952Y-159052380D01*
X52824047Y-159052380D01*
X52919285Y-159100000D01*
X52966904Y-159147619D01*
X53014523Y-159242857D01*
X53014523Y-159338095D01*
X52966904Y-159480952D01*
X52395476Y-160052380D01*
X53014523Y-160052380D01*
X53633571Y-159052380D02*
X53728809Y-159052380D01*
X53824047Y-159100000D01*
X53871666Y-159147619D01*
X53919285Y-159242857D01*
X53966904Y-159433333D01*
X53966904Y-159671428D01*
X53919285Y-159861904D01*
X53871666Y-159957142D01*
X53824047Y-160004761D01*
X53728809Y-160052380D01*
X53633571Y-160052380D01*
X53538333Y-160004761D01*
X53490714Y-159957142D01*
X53443095Y-159861904D01*
X53395476Y-159671428D01*
X53395476Y-159433333D01*
X53443095Y-159242857D01*
X53490714Y-159147619D01*
X53538333Y-159100000D01*
X53633571Y-159052380D01*
X61015714Y-179102380D02*
X61015714Y-178102380D01*
X61253809Y-178102380D01*
X61396666Y-178150000D01*
X61491904Y-178245238D01*
X61539523Y-178340476D01*
X61587142Y-178530952D01*
X61587142Y-178673809D01*
X61539523Y-178864285D01*
X61491904Y-178959523D01*
X61396666Y-179054761D01*
X61253809Y-179102380D01*
X61015714Y-179102380D01*
X61968095Y-178197619D02*
X62015714Y-178150000D01*
X62110952Y-178102380D01*
X62349047Y-178102380D01*
X62444285Y-178150000D01*
X62491904Y-178197619D01*
X62539523Y-178292857D01*
X62539523Y-178388095D01*
X62491904Y-178530952D01*
X61920476Y-179102380D01*
X62539523Y-179102380D01*
X63491904Y-179102380D02*
X62920476Y-179102380D01*
X63206190Y-179102380D02*
X63206190Y-178102380D01*
X63110952Y-178245238D01*
X63015714Y-178340476D01*
X62920476Y-178388095D01*
X80065714Y-179102380D02*
X80065714Y-178102380D01*
X80303809Y-178102380D01*
X80446666Y-178150000D01*
X80541904Y-178245238D01*
X80589523Y-178340476D01*
X80637142Y-178530952D01*
X80637142Y-178673809D01*
X80589523Y-178864285D01*
X80541904Y-178959523D01*
X80446666Y-179054761D01*
X80303809Y-179102380D01*
X80065714Y-179102380D01*
X81018095Y-178197619D02*
X81065714Y-178150000D01*
X81160952Y-178102380D01*
X81399047Y-178102380D01*
X81494285Y-178150000D01*
X81541904Y-178197619D01*
X81589523Y-178292857D01*
X81589523Y-178388095D01*
X81541904Y-178530952D01*
X80970476Y-179102380D01*
X81589523Y-179102380D01*
X81970476Y-178197619D02*
X82018095Y-178150000D01*
X82113333Y-178102380D01*
X82351428Y-178102380D01*
X82446666Y-178150000D01*
X82494285Y-178197619D01*
X82541904Y-178292857D01*
X82541904Y-178388095D01*
X82494285Y-178530952D01*
X81922857Y-179102380D01*
X82541904Y-179102380D01*
X89590714Y-160052380D02*
X89590714Y-159052380D01*
X89828809Y-159052380D01*
X89971666Y-159100000D01*
X90066904Y-159195238D01*
X90114523Y-159290476D01*
X90162142Y-159480952D01*
X90162142Y-159623809D01*
X90114523Y-159814285D01*
X90066904Y-159909523D01*
X89971666Y-160004761D01*
X89828809Y-160052380D01*
X89590714Y-160052380D01*
X90543095Y-159147619D02*
X90590714Y-159100000D01*
X90685952Y-159052380D01*
X90924047Y-159052380D01*
X91019285Y-159100000D01*
X91066904Y-159147619D01*
X91114523Y-159242857D01*
X91114523Y-159338095D01*
X91066904Y-159480952D01*
X90495476Y-160052380D01*
X91114523Y-160052380D01*
X91447857Y-159052380D02*
X92066904Y-159052380D01*
X91733571Y-159433333D01*
X91876428Y-159433333D01*
X91971666Y-159480952D01*
X92019285Y-159528571D01*
X92066904Y-159623809D01*
X92066904Y-159861904D01*
X92019285Y-159957142D01*
X91971666Y-160004761D01*
X91876428Y-160052380D01*
X91590714Y-160052380D01*
X91495476Y-160004761D01*
X91447857Y-159957142D01*
X99115714Y-179102380D02*
X99115714Y-178102380D01*
X99353809Y-178102380D01*
X99496666Y-178150000D01*
X99591904Y-178245238D01*
X99639523Y-178340476D01*
X99687142Y-178530952D01*
X99687142Y-178673809D01*
X99639523Y-178864285D01*
X99591904Y-178959523D01*
X99496666Y-179054761D01*
X99353809Y-179102380D01*
X99115714Y-179102380D01*
X100068095Y-178197619D02*
X100115714Y-178150000D01*
X100210952Y-178102380D01*
X100449047Y-178102380D01*
X100544285Y-178150000D01*
X100591904Y-178197619D01*
X100639523Y-178292857D01*
X100639523Y-178388095D01*
X100591904Y-178530952D01*
X100020476Y-179102380D01*
X100639523Y-179102380D01*
X101496666Y-178435714D02*
X101496666Y-179102380D01*
X101258571Y-178054761D02*
X101020476Y-178769047D01*
X101639523Y-178769047D01*
X108640714Y-160052380D02*
X108640714Y-159052380D01*
X108878809Y-159052380D01*
X109021666Y-159100000D01*
X109116904Y-159195238D01*
X109164523Y-159290476D01*
X109212142Y-159480952D01*
X109212142Y-159623809D01*
X109164523Y-159814285D01*
X109116904Y-159909523D01*
X109021666Y-160004761D01*
X108878809Y-160052380D01*
X108640714Y-160052380D01*
X109593095Y-159147619D02*
X109640714Y-159100000D01*
X109735952Y-159052380D01*
X109974047Y-159052380D01*
X110069285Y-159100000D01*
X110116904Y-159147619D01*
X110164523Y-159242857D01*
X110164523Y-159338095D01*
X110116904Y-159480952D01*
X109545476Y-160052380D01*
X110164523Y-160052380D01*
X111069285Y-159052380D02*
X110593095Y-159052380D01*
X110545476Y-159528571D01*
X110593095Y-159480952D01*
X110688333Y-159433333D01*
X110926428Y-159433333D01*
X111021666Y-159480952D01*
X111069285Y-159528571D01*
X111116904Y-159623809D01*
X111116904Y-159861904D01*
X111069285Y-159957142D01*
X111021666Y-160004761D01*
X110926428Y-160052380D01*
X110688333Y-160052380D01*
X110593095Y-160004761D01*
X110545476Y-159957142D01*
X118165714Y-179102380D02*
X118165714Y-178102380D01*
X118403809Y-178102380D01*
X118546666Y-178150000D01*
X118641904Y-178245238D01*
X118689523Y-178340476D01*
X118737142Y-178530952D01*
X118737142Y-178673809D01*
X118689523Y-178864285D01*
X118641904Y-178959523D01*
X118546666Y-179054761D01*
X118403809Y-179102380D01*
X118165714Y-179102380D01*
X119118095Y-178197619D02*
X119165714Y-178150000D01*
X119260952Y-178102380D01*
X119499047Y-178102380D01*
X119594285Y-178150000D01*
X119641904Y-178197619D01*
X119689523Y-178292857D01*
X119689523Y-178388095D01*
X119641904Y-178530952D01*
X119070476Y-179102380D01*
X119689523Y-179102380D01*
X120546666Y-178102380D02*
X120356190Y-178102380D01*
X120260952Y-178150000D01*
X120213333Y-178197619D01*
X120118095Y-178340476D01*
X120070476Y-178530952D01*
X120070476Y-178911904D01*
X120118095Y-179007142D01*
X120165714Y-179054761D01*
X120260952Y-179102380D01*
X120451428Y-179102380D01*
X120546666Y-179054761D01*
X120594285Y-179007142D01*
X120641904Y-178911904D01*
X120641904Y-178673809D01*
X120594285Y-178578571D01*
X120546666Y-178530952D01*
X120451428Y-178483333D01*
X120260952Y-178483333D01*
X120165714Y-178530952D01*
X120118095Y-178578571D01*
X120070476Y-178673809D01*
X127690714Y-160052380D02*
X127690714Y-159052380D01*
X127928809Y-159052380D01*
X128071666Y-159100000D01*
X128166904Y-159195238D01*
X128214523Y-159290476D01*
X128262142Y-159480952D01*
X128262142Y-159623809D01*
X128214523Y-159814285D01*
X128166904Y-159909523D01*
X128071666Y-160004761D01*
X127928809Y-160052380D01*
X127690714Y-160052380D01*
X128643095Y-159147619D02*
X128690714Y-159100000D01*
X128785952Y-159052380D01*
X129024047Y-159052380D01*
X129119285Y-159100000D01*
X129166904Y-159147619D01*
X129214523Y-159242857D01*
X129214523Y-159338095D01*
X129166904Y-159480952D01*
X128595476Y-160052380D01*
X129214523Y-160052380D01*
X129547857Y-159052380D02*
X130214523Y-159052380D01*
X129785952Y-160052380D01*
X137215714Y-179102380D02*
X137215714Y-178102380D01*
X137453809Y-178102380D01*
X137596666Y-178150000D01*
X137691904Y-178245238D01*
X137739523Y-178340476D01*
X137787142Y-178530952D01*
X137787142Y-178673809D01*
X137739523Y-178864285D01*
X137691904Y-178959523D01*
X137596666Y-179054761D01*
X137453809Y-179102380D01*
X137215714Y-179102380D01*
X138168095Y-178197619D02*
X138215714Y-178150000D01*
X138310952Y-178102380D01*
X138549047Y-178102380D01*
X138644285Y-178150000D01*
X138691904Y-178197619D01*
X138739523Y-178292857D01*
X138739523Y-178388095D01*
X138691904Y-178530952D01*
X138120476Y-179102380D01*
X138739523Y-179102380D01*
X139310952Y-178530952D02*
X139215714Y-178483333D01*
X139168095Y-178435714D01*
X139120476Y-178340476D01*
X139120476Y-178292857D01*
X139168095Y-178197619D01*
X139215714Y-178150000D01*
X139310952Y-178102380D01*
X139501428Y-178102380D01*
X139596666Y-178150000D01*
X139644285Y-178197619D01*
X139691904Y-178292857D01*
X139691904Y-178340476D01*
X139644285Y-178435714D01*
X139596666Y-178483333D01*
X139501428Y-178530952D01*
X139310952Y-178530952D01*
X139215714Y-178578571D01*
X139168095Y-178626190D01*
X139120476Y-178721428D01*
X139120476Y-178911904D01*
X139168095Y-179007142D01*
X139215714Y-179054761D01*
X139310952Y-179102380D01*
X139501428Y-179102380D01*
X139596666Y-179054761D01*
X139644285Y-179007142D01*
X139691904Y-178911904D01*
X139691904Y-178721428D01*
X139644285Y-178626190D01*
X139596666Y-178578571D01*
X139501428Y-178530952D01*
X156265714Y-179102380D02*
X156265714Y-178102380D01*
X156503809Y-178102380D01*
X156646666Y-178150000D01*
X156741904Y-178245238D01*
X156789523Y-178340476D01*
X156837142Y-178530952D01*
X156837142Y-178673809D01*
X156789523Y-178864285D01*
X156741904Y-178959523D01*
X156646666Y-179054761D01*
X156503809Y-179102380D01*
X156265714Y-179102380D01*
X157218095Y-178197619D02*
X157265714Y-178150000D01*
X157360952Y-178102380D01*
X157599047Y-178102380D01*
X157694285Y-178150000D01*
X157741904Y-178197619D01*
X157789523Y-178292857D01*
X157789523Y-178388095D01*
X157741904Y-178530952D01*
X157170476Y-179102380D01*
X157789523Y-179102380D01*
X158265714Y-179102380D02*
X158456190Y-179102380D01*
X158551428Y-179054761D01*
X158599047Y-179007142D01*
X158694285Y-178864285D01*
X158741904Y-178673809D01*
X158741904Y-178292857D01*
X158694285Y-178197619D01*
X158646666Y-178150000D01*
X158551428Y-178102380D01*
X158360952Y-178102380D01*
X158265714Y-178150000D01*
X158218095Y-178197619D01*
X158170476Y-178292857D01*
X158170476Y-178530952D01*
X158218095Y-178626190D01*
X158265714Y-178673809D01*
X158360952Y-178721428D01*
X158551428Y-178721428D01*
X158646666Y-178673809D01*
X158694285Y-178626190D01*
X158741904Y-178530952D01*
X165790714Y-160052380D02*
X165790714Y-159052380D01*
X166028809Y-159052380D01*
X166171666Y-159100000D01*
X166266904Y-159195238D01*
X166314523Y-159290476D01*
X166362142Y-159480952D01*
X166362142Y-159623809D01*
X166314523Y-159814285D01*
X166266904Y-159909523D01*
X166171666Y-160004761D01*
X166028809Y-160052380D01*
X165790714Y-160052380D01*
X166695476Y-159052380D02*
X167314523Y-159052380D01*
X166981190Y-159433333D01*
X167124047Y-159433333D01*
X167219285Y-159480952D01*
X167266904Y-159528571D01*
X167314523Y-159623809D01*
X167314523Y-159861904D01*
X167266904Y-159957142D01*
X167219285Y-160004761D01*
X167124047Y-160052380D01*
X166838333Y-160052380D01*
X166743095Y-160004761D01*
X166695476Y-159957142D01*
X167933571Y-159052380D02*
X168028809Y-159052380D01*
X168124047Y-159100000D01*
X168171666Y-159147619D01*
X168219285Y-159242857D01*
X168266904Y-159433333D01*
X168266904Y-159671428D01*
X168219285Y-159861904D01*
X168171666Y-159957142D01*
X168124047Y-160004761D01*
X168028809Y-160052380D01*
X167933571Y-160052380D01*
X167838333Y-160004761D01*
X167790714Y-159957142D01*
X167743095Y-159861904D01*
X167695476Y-159671428D01*
X167695476Y-159433333D01*
X167743095Y-159242857D01*
X167790714Y-159147619D01*
X167838333Y-159100000D01*
X167933571Y-159052380D01*
X175315714Y-179102380D02*
X175315714Y-178102380D01*
X175553809Y-178102380D01*
X175696666Y-178150000D01*
X175791904Y-178245238D01*
X175839523Y-178340476D01*
X175887142Y-178530952D01*
X175887142Y-178673809D01*
X175839523Y-178864285D01*
X175791904Y-178959523D01*
X175696666Y-179054761D01*
X175553809Y-179102380D01*
X175315714Y-179102380D01*
X176220476Y-178102380D02*
X176839523Y-178102380D01*
X176506190Y-178483333D01*
X176649047Y-178483333D01*
X176744285Y-178530952D01*
X176791904Y-178578571D01*
X176839523Y-178673809D01*
X176839523Y-178911904D01*
X176791904Y-179007142D01*
X176744285Y-179054761D01*
X176649047Y-179102380D01*
X176363333Y-179102380D01*
X176268095Y-179054761D01*
X176220476Y-179007142D01*
X177791904Y-179102380D02*
X177220476Y-179102380D01*
X177506190Y-179102380D02*
X177506190Y-178102380D01*
X177410952Y-178245238D01*
X177315714Y-178340476D01*
X177220476Y-178388095D01*
X184840714Y-160052380D02*
X184840714Y-159052380D01*
X185078809Y-159052380D01*
X185221666Y-159100000D01*
X185316904Y-159195238D01*
X185364523Y-159290476D01*
X185412142Y-159480952D01*
X185412142Y-159623809D01*
X185364523Y-159814285D01*
X185316904Y-159909523D01*
X185221666Y-160004761D01*
X185078809Y-160052380D01*
X184840714Y-160052380D01*
X185745476Y-159052380D02*
X186364523Y-159052380D01*
X186031190Y-159433333D01*
X186174047Y-159433333D01*
X186269285Y-159480952D01*
X186316904Y-159528571D01*
X186364523Y-159623809D01*
X186364523Y-159861904D01*
X186316904Y-159957142D01*
X186269285Y-160004761D01*
X186174047Y-160052380D01*
X185888333Y-160052380D01*
X185793095Y-160004761D01*
X185745476Y-159957142D01*
X186745476Y-159147619D02*
X186793095Y-159100000D01*
X186888333Y-159052380D01*
X187126428Y-159052380D01*
X187221666Y-159100000D01*
X187269285Y-159147619D01*
X187316904Y-159242857D01*
X187316904Y-159338095D01*
X187269285Y-159480952D01*
X186697857Y-160052380D01*
X187316904Y-160052380D01*
X19105714Y-120682380D02*
X19105714Y-119682380D01*
X19343809Y-119682380D01*
X19486666Y-119730000D01*
X19581904Y-119825238D01*
X19629523Y-119920476D01*
X19677142Y-120110952D01*
X19677142Y-120253809D01*
X19629523Y-120444285D01*
X19581904Y-120539523D01*
X19486666Y-120634761D01*
X19343809Y-120682380D01*
X19105714Y-120682380D01*
X20010476Y-119682380D02*
X20629523Y-119682380D01*
X20296190Y-120063333D01*
X20439047Y-120063333D01*
X20534285Y-120110952D01*
X20581904Y-120158571D01*
X20629523Y-120253809D01*
X20629523Y-120491904D01*
X20581904Y-120587142D01*
X20534285Y-120634761D01*
X20439047Y-120682380D01*
X20153333Y-120682380D01*
X20058095Y-120634761D01*
X20010476Y-120587142D01*
X20962857Y-119682380D02*
X21581904Y-119682380D01*
X21248571Y-120063333D01*
X21391428Y-120063333D01*
X21486666Y-120110952D01*
X21534285Y-120158571D01*
X21581904Y-120253809D01*
X21581904Y-120491904D01*
X21534285Y-120587142D01*
X21486666Y-120634761D01*
X21391428Y-120682380D01*
X21105714Y-120682380D01*
X21010476Y-120634761D01*
X20962857Y-120587142D01*
X28630714Y-101632380D02*
X28630714Y-100632380D01*
X28868809Y-100632380D01*
X29011666Y-100680000D01*
X29106904Y-100775238D01*
X29154523Y-100870476D01*
X29202142Y-101060952D01*
X29202142Y-101203809D01*
X29154523Y-101394285D01*
X29106904Y-101489523D01*
X29011666Y-101584761D01*
X28868809Y-101632380D01*
X28630714Y-101632380D01*
X29535476Y-100632380D02*
X30154523Y-100632380D01*
X29821190Y-101013333D01*
X29964047Y-101013333D01*
X30059285Y-101060952D01*
X30106904Y-101108571D01*
X30154523Y-101203809D01*
X30154523Y-101441904D01*
X30106904Y-101537142D01*
X30059285Y-101584761D01*
X29964047Y-101632380D01*
X29678333Y-101632380D01*
X29583095Y-101584761D01*
X29535476Y-101537142D01*
X31011666Y-100965714D02*
X31011666Y-101632380D01*
X30773571Y-100584761D02*
X30535476Y-101299047D01*
X31154523Y-101299047D01*
X38155714Y-120682380D02*
X38155714Y-119682380D01*
X38393809Y-119682380D01*
X38536666Y-119730000D01*
X38631904Y-119825238D01*
X38679523Y-119920476D01*
X38727142Y-120110952D01*
X38727142Y-120253809D01*
X38679523Y-120444285D01*
X38631904Y-120539523D01*
X38536666Y-120634761D01*
X38393809Y-120682380D01*
X38155714Y-120682380D01*
X39060476Y-119682380D02*
X39679523Y-119682380D01*
X39346190Y-120063333D01*
X39489047Y-120063333D01*
X39584285Y-120110952D01*
X39631904Y-120158571D01*
X39679523Y-120253809D01*
X39679523Y-120491904D01*
X39631904Y-120587142D01*
X39584285Y-120634761D01*
X39489047Y-120682380D01*
X39203333Y-120682380D01*
X39108095Y-120634761D01*
X39060476Y-120587142D01*
X40584285Y-119682380D02*
X40108095Y-119682380D01*
X40060476Y-120158571D01*
X40108095Y-120110952D01*
X40203333Y-120063333D01*
X40441428Y-120063333D01*
X40536666Y-120110952D01*
X40584285Y-120158571D01*
X40631904Y-120253809D01*
X40631904Y-120491904D01*
X40584285Y-120587142D01*
X40536666Y-120634761D01*
X40441428Y-120682380D01*
X40203333Y-120682380D01*
X40108095Y-120634761D01*
X40060476Y-120587142D01*
X47680714Y-101632380D02*
X47680714Y-100632380D01*
X47918809Y-100632380D01*
X48061666Y-100680000D01*
X48156904Y-100775238D01*
X48204523Y-100870476D01*
X48252142Y-101060952D01*
X48252142Y-101203809D01*
X48204523Y-101394285D01*
X48156904Y-101489523D01*
X48061666Y-101584761D01*
X47918809Y-101632380D01*
X47680714Y-101632380D01*
X48585476Y-100632380D02*
X49204523Y-100632380D01*
X48871190Y-101013333D01*
X49014047Y-101013333D01*
X49109285Y-101060952D01*
X49156904Y-101108571D01*
X49204523Y-101203809D01*
X49204523Y-101441904D01*
X49156904Y-101537142D01*
X49109285Y-101584761D01*
X49014047Y-101632380D01*
X48728333Y-101632380D01*
X48633095Y-101584761D01*
X48585476Y-101537142D01*
X50061666Y-100632380D02*
X49871190Y-100632380D01*
X49775952Y-100680000D01*
X49728333Y-100727619D01*
X49633095Y-100870476D01*
X49585476Y-101060952D01*
X49585476Y-101441904D01*
X49633095Y-101537142D01*
X49680714Y-101584761D01*
X49775952Y-101632380D01*
X49966428Y-101632380D01*
X50061666Y-101584761D01*
X50109285Y-101537142D01*
X50156904Y-101441904D01*
X50156904Y-101203809D01*
X50109285Y-101108571D01*
X50061666Y-101060952D01*
X49966428Y-101013333D01*
X49775952Y-101013333D01*
X49680714Y-101060952D01*
X49633095Y-101108571D01*
X49585476Y-101203809D01*
X57205714Y-120682380D02*
X57205714Y-119682380D01*
X57443809Y-119682380D01*
X57586666Y-119730000D01*
X57681904Y-119825238D01*
X57729523Y-119920476D01*
X57777142Y-120110952D01*
X57777142Y-120253809D01*
X57729523Y-120444285D01*
X57681904Y-120539523D01*
X57586666Y-120634761D01*
X57443809Y-120682380D01*
X57205714Y-120682380D01*
X58110476Y-119682380D02*
X58729523Y-119682380D01*
X58396190Y-120063333D01*
X58539047Y-120063333D01*
X58634285Y-120110952D01*
X58681904Y-120158571D01*
X58729523Y-120253809D01*
X58729523Y-120491904D01*
X58681904Y-120587142D01*
X58634285Y-120634761D01*
X58539047Y-120682380D01*
X58253333Y-120682380D01*
X58158095Y-120634761D01*
X58110476Y-120587142D01*
X59062857Y-119682380D02*
X59729523Y-119682380D01*
X59300952Y-120682380D01*
X76255714Y-120682380D02*
X76255714Y-119682380D01*
X76493809Y-119682380D01*
X76636666Y-119730000D01*
X76731904Y-119825238D01*
X76779523Y-119920476D01*
X76827142Y-120110952D01*
X76827142Y-120253809D01*
X76779523Y-120444285D01*
X76731904Y-120539523D01*
X76636666Y-120634761D01*
X76493809Y-120682380D01*
X76255714Y-120682380D01*
X77160476Y-119682380D02*
X77779523Y-119682380D01*
X77446190Y-120063333D01*
X77589047Y-120063333D01*
X77684285Y-120110952D01*
X77731904Y-120158571D01*
X77779523Y-120253809D01*
X77779523Y-120491904D01*
X77731904Y-120587142D01*
X77684285Y-120634761D01*
X77589047Y-120682380D01*
X77303333Y-120682380D01*
X77208095Y-120634761D01*
X77160476Y-120587142D01*
X78350952Y-120110952D02*
X78255714Y-120063333D01*
X78208095Y-120015714D01*
X78160476Y-119920476D01*
X78160476Y-119872857D01*
X78208095Y-119777619D01*
X78255714Y-119730000D01*
X78350952Y-119682380D01*
X78541428Y-119682380D01*
X78636666Y-119730000D01*
X78684285Y-119777619D01*
X78731904Y-119872857D01*
X78731904Y-119920476D01*
X78684285Y-120015714D01*
X78636666Y-120063333D01*
X78541428Y-120110952D01*
X78350952Y-120110952D01*
X78255714Y-120158571D01*
X78208095Y-120206190D01*
X78160476Y-120301428D01*
X78160476Y-120491904D01*
X78208095Y-120587142D01*
X78255714Y-120634761D01*
X78350952Y-120682380D01*
X78541428Y-120682380D01*
X78636666Y-120634761D01*
X78684285Y-120587142D01*
X78731904Y-120491904D01*
X78731904Y-120301428D01*
X78684285Y-120206190D01*
X78636666Y-120158571D01*
X78541428Y-120110952D01*
X85780714Y-101632380D02*
X85780714Y-100632380D01*
X86018809Y-100632380D01*
X86161666Y-100680000D01*
X86256904Y-100775238D01*
X86304523Y-100870476D01*
X86352142Y-101060952D01*
X86352142Y-101203809D01*
X86304523Y-101394285D01*
X86256904Y-101489523D01*
X86161666Y-101584761D01*
X86018809Y-101632380D01*
X85780714Y-101632380D01*
X86685476Y-100632380D02*
X87304523Y-100632380D01*
X86971190Y-101013333D01*
X87114047Y-101013333D01*
X87209285Y-101060952D01*
X87256904Y-101108571D01*
X87304523Y-101203809D01*
X87304523Y-101441904D01*
X87256904Y-101537142D01*
X87209285Y-101584761D01*
X87114047Y-101632380D01*
X86828333Y-101632380D01*
X86733095Y-101584761D01*
X86685476Y-101537142D01*
X87780714Y-101632380D02*
X87971190Y-101632380D01*
X88066428Y-101584761D01*
X88114047Y-101537142D01*
X88209285Y-101394285D01*
X88256904Y-101203809D01*
X88256904Y-100822857D01*
X88209285Y-100727619D01*
X88161666Y-100680000D01*
X88066428Y-100632380D01*
X87875952Y-100632380D01*
X87780714Y-100680000D01*
X87733095Y-100727619D01*
X87685476Y-100822857D01*
X87685476Y-101060952D01*
X87733095Y-101156190D01*
X87780714Y-101203809D01*
X87875952Y-101251428D01*
X88066428Y-101251428D01*
X88161666Y-101203809D01*
X88209285Y-101156190D01*
X88256904Y-101060952D01*
X95305714Y-120682380D02*
X95305714Y-119682380D01*
X95543809Y-119682380D01*
X95686666Y-119730000D01*
X95781904Y-119825238D01*
X95829523Y-119920476D01*
X95877142Y-120110952D01*
X95877142Y-120253809D01*
X95829523Y-120444285D01*
X95781904Y-120539523D01*
X95686666Y-120634761D01*
X95543809Y-120682380D01*
X95305714Y-120682380D01*
X96734285Y-120015714D02*
X96734285Y-120682380D01*
X96496190Y-119634761D02*
X96258095Y-120349047D01*
X96877142Y-120349047D01*
X97448571Y-119682380D02*
X97543809Y-119682380D01*
X97639047Y-119730000D01*
X97686666Y-119777619D01*
X97734285Y-119872857D01*
X97781904Y-120063333D01*
X97781904Y-120301428D01*
X97734285Y-120491904D01*
X97686666Y-120587142D01*
X97639047Y-120634761D01*
X97543809Y-120682380D01*
X97448571Y-120682380D01*
X97353333Y-120634761D01*
X97305714Y-120587142D01*
X97258095Y-120491904D01*
X97210476Y-120301428D01*
X97210476Y-120063333D01*
X97258095Y-119872857D01*
X97305714Y-119777619D01*
X97353333Y-119730000D01*
X97448571Y-119682380D01*
X104830714Y-101632380D02*
X104830714Y-100632380D01*
X105068809Y-100632380D01*
X105211666Y-100680000D01*
X105306904Y-100775238D01*
X105354523Y-100870476D01*
X105402142Y-101060952D01*
X105402142Y-101203809D01*
X105354523Y-101394285D01*
X105306904Y-101489523D01*
X105211666Y-101584761D01*
X105068809Y-101632380D01*
X104830714Y-101632380D01*
X106259285Y-100965714D02*
X106259285Y-101632380D01*
X106021190Y-100584761D02*
X105783095Y-101299047D01*
X106402142Y-101299047D01*
X107306904Y-101632380D02*
X106735476Y-101632380D01*
X107021190Y-101632380D02*
X107021190Y-100632380D01*
X106925952Y-100775238D01*
X106830714Y-100870476D01*
X106735476Y-100918095D01*
X114355714Y-120682380D02*
X114355714Y-119682380D01*
X114593809Y-119682380D01*
X114736666Y-119730000D01*
X114831904Y-119825238D01*
X114879523Y-119920476D01*
X114927142Y-120110952D01*
X114927142Y-120253809D01*
X114879523Y-120444285D01*
X114831904Y-120539523D01*
X114736666Y-120634761D01*
X114593809Y-120682380D01*
X114355714Y-120682380D01*
X115784285Y-120015714D02*
X115784285Y-120682380D01*
X115546190Y-119634761D02*
X115308095Y-120349047D01*
X115927142Y-120349047D01*
X116260476Y-119777619D02*
X116308095Y-119730000D01*
X116403333Y-119682380D01*
X116641428Y-119682380D01*
X116736666Y-119730000D01*
X116784285Y-119777619D01*
X116831904Y-119872857D01*
X116831904Y-119968095D01*
X116784285Y-120110952D01*
X116212857Y-120682380D01*
X116831904Y-120682380D01*
X123880714Y-101632380D02*
X123880714Y-100632380D01*
X124118809Y-100632380D01*
X124261666Y-100680000D01*
X124356904Y-100775238D01*
X124404523Y-100870476D01*
X124452142Y-101060952D01*
X124452142Y-101203809D01*
X124404523Y-101394285D01*
X124356904Y-101489523D01*
X124261666Y-101584761D01*
X124118809Y-101632380D01*
X123880714Y-101632380D01*
X125309285Y-100965714D02*
X125309285Y-101632380D01*
X125071190Y-100584761D02*
X124833095Y-101299047D01*
X125452142Y-101299047D01*
X125737857Y-100632380D02*
X126356904Y-100632380D01*
X126023571Y-101013333D01*
X126166428Y-101013333D01*
X126261666Y-101060952D01*
X126309285Y-101108571D01*
X126356904Y-101203809D01*
X126356904Y-101441904D01*
X126309285Y-101537142D01*
X126261666Y-101584761D01*
X126166428Y-101632380D01*
X125880714Y-101632380D01*
X125785476Y-101584761D01*
X125737857Y-101537142D01*
X133405714Y-120682380D02*
X133405714Y-119682380D01*
X133643809Y-119682380D01*
X133786666Y-119730000D01*
X133881904Y-119825238D01*
X133929523Y-119920476D01*
X133977142Y-120110952D01*
X133977142Y-120253809D01*
X133929523Y-120444285D01*
X133881904Y-120539523D01*
X133786666Y-120634761D01*
X133643809Y-120682380D01*
X133405714Y-120682380D01*
X134834285Y-120015714D02*
X134834285Y-120682380D01*
X134596190Y-119634761D02*
X134358095Y-120349047D01*
X134977142Y-120349047D01*
X135786666Y-120015714D02*
X135786666Y-120682380D01*
X135548571Y-119634761D02*
X135310476Y-120349047D01*
X135929523Y-120349047D01*
X152455714Y-120682380D02*
X152455714Y-119682380D01*
X152693809Y-119682380D01*
X152836666Y-119730000D01*
X152931904Y-119825238D01*
X152979523Y-119920476D01*
X153027142Y-120110952D01*
X153027142Y-120253809D01*
X152979523Y-120444285D01*
X152931904Y-120539523D01*
X152836666Y-120634761D01*
X152693809Y-120682380D01*
X152455714Y-120682380D01*
X153884285Y-120015714D02*
X153884285Y-120682380D01*
X153646190Y-119634761D02*
X153408095Y-120349047D01*
X154027142Y-120349047D01*
X154884285Y-119682380D02*
X154408095Y-119682380D01*
X154360476Y-120158571D01*
X154408095Y-120110952D01*
X154503333Y-120063333D01*
X154741428Y-120063333D01*
X154836666Y-120110952D01*
X154884285Y-120158571D01*
X154931904Y-120253809D01*
X154931904Y-120491904D01*
X154884285Y-120587142D01*
X154836666Y-120634761D01*
X154741428Y-120682380D01*
X154503333Y-120682380D01*
X154408095Y-120634761D01*
X154360476Y-120587142D01*
X161980714Y-101632380D02*
X161980714Y-100632380D01*
X162218809Y-100632380D01*
X162361666Y-100680000D01*
X162456904Y-100775238D01*
X162504523Y-100870476D01*
X162552142Y-101060952D01*
X162552142Y-101203809D01*
X162504523Y-101394285D01*
X162456904Y-101489523D01*
X162361666Y-101584761D01*
X162218809Y-101632380D01*
X161980714Y-101632380D01*
X163409285Y-100965714D02*
X163409285Y-101632380D01*
X163171190Y-100584761D02*
X162933095Y-101299047D01*
X163552142Y-101299047D01*
X164361666Y-100632380D02*
X164171190Y-100632380D01*
X164075952Y-100680000D01*
X164028333Y-100727619D01*
X163933095Y-100870476D01*
X163885476Y-101060952D01*
X163885476Y-101441904D01*
X163933095Y-101537142D01*
X163980714Y-101584761D01*
X164075952Y-101632380D01*
X164266428Y-101632380D01*
X164361666Y-101584761D01*
X164409285Y-101537142D01*
X164456904Y-101441904D01*
X164456904Y-101203809D01*
X164409285Y-101108571D01*
X164361666Y-101060952D01*
X164266428Y-101013333D01*
X164075952Y-101013333D01*
X163980714Y-101060952D01*
X163933095Y-101108571D01*
X163885476Y-101203809D01*
X171505714Y-120682380D02*
X171505714Y-119682380D01*
X171743809Y-119682380D01*
X171886666Y-119730000D01*
X171981904Y-119825238D01*
X172029523Y-119920476D01*
X172077142Y-120110952D01*
X172077142Y-120253809D01*
X172029523Y-120444285D01*
X171981904Y-120539523D01*
X171886666Y-120634761D01*
X171743809Y-120682380D01*
X171505714Y-120682380D01*
X172934285Y-120015714D02*
X172934285Y-120682380D01*
X172696190Y-119634761D02*
X172458095Y-120349047D01*
X173077142Y-120349047D01*
X173362857Y-119682380D02*
X174029523Y-119682380D01*
X173600952Y-120682380D01*
X181030714Y-101632380D02*
X181030714Y-100632380D01*
X181268809Y-100632380D01*
X181411666Y-100680000D01*
X181506904Y-100775238D01*
X181554523Y-100870476D01*
X181602142Y-101060952D01*
X181602142Y-101203809D01*
X181554523Y-101394285D01*
X181506904Y-101489523D01*
X181411666Y-101584761D01*
X181268809Y-101632380D01*
X181030714Y-101632380D01*
X182459285Y-100965714D02*
X182459285Y-101632380D01*
X182221190Y-100584761D02*
X181983095Y-101299047D01*
X182602142Y-101299047D01*
X183125952Y-101060952D02*
X183030714Y-101013333D01*
X182983095Y-100965714D01*
X182935476Y-100870476D01*
X182935476Y-100822857D01*
X182983095Y-100727619D01*
X183030714Y-100680000D01*
X183125952Y-100632380D01*
X183316428Y-100632380D01*
X183411666Y-100680000D01*
X183459285Y-100727619D01*
X183506904Y-100822857D01*
X183506904Y-100870476D01*
X183459285Y-100965714D01*
X183411666Y-101013333D01*
X183316428Y-101060952D01*
X183125952Y-101060952D01*
X183030714Y-101108571D01*
X182983095Y-101156190D01*
X182935476Y-101251428D01*
X182935476Y-101441904D01*
X182983095Y-101537142D01*
X183030714Y-101584761D01*
X183125952Y-101632380D01*
X183316428Y-101632380D01*
X183411666Y-101584761D01*
X183459285Y-101537142D01*
X183506904Y-101441904D01*
X183506904Y-101251428D01*
X183459285Y-101156190D01*
X183411666Y-101108571D01*
X183316428Y-101060952D01*
X19105714Y-63532380D02*
X19105714Y-62532380D01*
X19343809Y-62532380D01*
X19486666Y-62580000D01*
X19581904Y-62675238D01*
X19629523Y-62770476D01*
X19677142Y-62960952D01*
X19677142Y-63103809D01*
X19629523Y-63294285D01*
X19581904Y-63389523D01*
X19486666Y-63484761D01*
X19343809Y-63532380D01*
X19105714Y-63532380D01*
X20534285Y-62865714D02*
X20534285Y-63532380D01*
X20296190Y-62484761D02*
X20058095Y-63199047D01*
X20677142Y-63199047D01*
X21105714Y-63532380D02*
X21296190Y-63532380D01*
X21391428Y-63484761D01*
X21439047Y-63437142D01*
X21534285Y-63294285D01*
X21581904Y-63103809D01*
X21581904Y-62722857D01*
X21534285Y-62627619D01*
X21486666Y-62580000D01*
X21391428Y-62532380D01*
X21200952Y-62532380D01*
X21105714Y-62580000D01*
X21058095Y-62627619D01*
X21010476Y-62722857D01*
X21010476Y-62960952D01*
X21058095Y-63056190D01*
X21105714Y-63103809D01*
X21200952Y-63151428D01*
X21391428Y-63151428D01*
X21486666Y-63103809D01*
X21534285Y-63056190D01*
X21581904Y-62960952D01*
X28630714Y-44482380D02*
X28630714Y-43482380D01*
X28868809Y-43482380D01*
X29011666Y-43530000D01*
X29106904Y-43625238D01*
X29154523Y-43720476D01*
X29202142Y-43910952D01*
X29202142Y-44053809D01*
X29154523Y-44244285D01*
X29106904Y-44339523D01*
X29011666Y-44434761D01*
X28868809Y-44482380D01*
X28630714Y-44482380D01*
X30106904Y-43482380D02*
X29630714Y-43482380D01*
X29583095Y-43958571D01*
X29630714Y-43910952D01*
X29725952Y-43863333D01*
X29964047Y-43863333D01*
X30059285Y-43910952D01*
X30106904Y-43958571D01*
X30154523Y-44053809D01*
X30154523Y-44291904D01*
X30106904Y-44387142D01*
X30059285Y-44434761D01*
X29964047Y-44482380D01*
X29725952Y-44482380D01*
X29630714Y-44434761D01*
X29583095Y-44387142D01*
X30773571Y-43482380D02*
X30868809Y-43482380D01*
X30964047Y-43530000D01*
X31011666Y-43577619D01*
X31059285Y-43672857D01*
X31106904Y-43863333D01*
X31106904Y-44101428D01*
X31059285Y-44291904D01*
X31011666Y-44387142D01*
X30964047Y-44434761D01*
X30868809Y-44482380D01*
X30773571Y-44482380D01*
X30678333Y-44434761D01*
X30630714Y-44387142D01*
X30583095Y-44291904D01*
X30535476Y-44101428D01*
X30535476Y-43863333D01*
X30583095Y-43672857D01*
X30630714Y-43577619D01*
X30678333Y-43530000D01*
X30773571Y-43482380D01*
X38155714Y-63532380D02*
X38155714Y-62532380D01*
X38393809Y-62532380D01*
X38536666Y-62580000D01*
X38631904Y-62675238D01*
X38679523Y-62770476D01*
X38727142Y-62960952D01*
X38727142Y-63103809D01*
X38679523Y-63294285D01*
X38631904Y-63389523D01*
X38536666Y-63484761D01*
X38393809Y-63532380D01*
X38155714Y-63532380D01*
X39631904Y-62532380D02*
X39155714Y-62532380D01*
X39108095Y-63008571D01*
X39155714Y-62960952D01*
X39250952Y-62913333D01*
X39489047Y-62913333D01*
X39584285Y-62960952D01*
X39631904Y-63008571D01*
X39679523Y-63103809D01*
X39679523Y-63341904D01*
X39631904Y-63437142D01*
X39584285Y-63484761D01*
X39489047Y-63532380D01*
X39250952Y-63532380D01*
X39155714Y-63484761D01*
X39108095Y-63437142D01*
X40631904Y-63532380D02*
X40060476Y-63532380D01*
X40346190Y-63532380D02*
X40346190Y-62532380D01*
X40250952Y-62675238D01*
X40155714Y-62770476D01*
X40060476Y-62818095D01*
X47680714Y-44482380D02*
X47680714Y-43482380D01*
X47918809Y-43482380D01*
X48061666Y-43530000D01*
X48156904Y-43625238D01*
X48204523Y-43720476D01*
X48252142Y-43910952D01*
X48252142Y-44053809D01*
X48204523Y-44244285D01*
X48156904Y-44339523D01*
X48061666Y-44434761D01*
X47918809Y-44482380D01*
X47680714Y-44482380D01*
X49156904Y-43482380D02*
X48680714Y-43482380D01*
X48633095Y-43958571D01*
X48680714Y-43910952D01*
X48775952Y-43863333D01*
X49014047Y-43863333D01*
X49109285Y-43910952D01*
X49156904Y-43958571D01*
X49204523Y-44053809D01*
X49204523Y-44291904D01*
X49156904Y-44387142D01*
X49109285Y-44434761D01*
X49014047Y-44482380D01*
X48775952Y-44482380D01*
X48680714Y-44434761D01*
X48633095Y-44387142D01*
X49585476Y-43577619D02*
X49633095Y-43530000D01*
X49728333Y-43482380D01*
X49966428Y-43482380D01*
X50061666Y-43530000D01*
X50109285Y-43577619D01*
X50156904Y-43672857D01*
X50156904Y-43768095D01*
X50109285Y-43910952D01*
X49537857Y-44482380D01*
X50156904Y-44482380D01*
X57205714Y-63532380D02*
X57205714Y-62532380D01*
X57443809Y-62532380D01*
X57586666Y-62580000D01*
X57681904Y-62675238D01*
X57729523Y-62770476D01*
X57777142Y-62960952D01*
X57777142Y-63103809D01*
X57729523Y-63294285D01*
X57681904Y-63389523D01*
X57586666Y-63484761D01*
X57443809Y-63532380D01*
X57205714Y-63532380D01*
X58681904Y-62532380D02*
X58205714Y-62532380D01*
X58158095Y-63008571D01*
X58205714Y-62960952D01*
X58300952Y-62913333D01*
X58539047Y-62913333D01*
X58634285Y-62960952D01*
X58681904Y-63008571D01*
X58729523Y-63103809D01*
X58729523Y-63341904D01*
X58681904Y-63437142D01*
X58634285Y-63484761D01*
X58539047Y-63532380D01*
X58300952Y-63532380D01*
X58205714Y-63484761D01*
X58158095Y-63437142D01*
X59062857Y-62532380D02*
X59681904Y-62532380D01*
X59348571Y-62913333D01*
X59491428Y-62913333D01*
X59586666Y-62960952D01*
X59634285Y-63008571D01*
X59681904Y-63103809D01*
X59681904Y-63341904D01*
X59634285Y-63437142D01*
X59586666Y-63484761D01*
X59491428Y-63532380D01*
X59205714Y-63532380D01*
X59110476Y-63484761D01*
X59062857Y-63437142D01*
X76255714Y-63532380D02*
X76255714Y-62532380D01*
X76493809Y-62532380D01*
X76636666Y-62580000D01*
X76731904Y-62675238D01*
X76779523Y-62770476D01*
X76827142Y-62960952D01*
X76827142Y-63103809D01*
X76779523Y-63294285D01*
X76731904Y-63389523D01*
X76636666Y-63484761D01*
X76493809Y-63532380D01*
X76255714Y-63532380D01*
X77731904Y-62532380D02*
X77255714Y-62532380D01*
X77208095Y-63008571D01*
X77255714Y-62960952D01*
X77350952Y-62913333D01*
X77589047Y-62913333D01*
X77684285Y-62960952D01*
X77731904Y-63008571D01*
X77779523Y-63103809D01*
X77779523Y-63341904D01*
X77731904Y-63437142D01*
X77684285Y-63484761D01*
X77589047Y-63532380D01*
X77350952Y-63532380D01*
X77255714Y-63484761D01*
X77208095Y-63437142D01*
X78636666Y-62865714D02*
X78636666Y-63532380D01*
X78398571Y-62484761D02*
X78160476Y-63199047D01*
X78779523Y-63199047D01*
X85780714Y-44482380D02*
X85780714Y-43482380D01*
X86018809Y-43482380D01*
X86161666Y-43530000D01*
X86256904Y-43625238D01*
X86304523Y-43720476D01*
X86352142Y-43910952D01*
X86352142Y-44053809D01*
X86304523Y-44244285D01*
X86256904Y-44339523D01*
X86161666Y-44434761D01*
X86018809Y-44482380D01*
X85780714Y-44482380D01*
X87256904Y-43482380D02*
X86780714Y-43482380D01*
X86733095Y-43958571D01*
X86780714Y-43910952D01*
X86875952Y-43863333D01*
X87114047Y-43863333D01*
X87209285Y-43910952D01*
X87256904Y-43958571D01*
X87304523Y-44053809D01*
X87304523Y-44291904D01*
X87256904Y-44387142D01*
X87209285Y-44434761D01*
X87114047Y-44482380D01*
X86875952Y-44482380D01*
X86780714Y-44434761D01*
X86733095Y-44387142D01*
X88209285Y-43482380D02*
X87733095Y-43482380D01*
X87685476Y-43958571D01*
X87733095Y-43910952D01*
X87828333Y-43863333D01*
X88066428Y-43863333D01*
X88161666Y-43910952D01*
X88209285Y-43958571D01*
X88256904Y-44053809D01*
X88256904Y-44291904D01*
X88209285Y-44387142D01*
X88161666Y-44434761D01*
X88066428Y-44482380D01*
X87828333Y-44482380D01*
X87733095Y-44434761D01*
X87685476Y-44387142D01*
X95305714Y-63532380D02*
X95305714Y-62532380D01*
X95543809Y-62532380D01*
X95686666Y-62580000D01*
X95781904Y-62675238D01*
X95829523Y-62770476D01*
X95877142Y-62960952D01*
X95877142Y-63103809D01*
X95829523Y-63294285D01*
X95781904Y-63389523D01*
X95686666Y-63484761D01*
X95543809Y-63532380D01*
X95305714Y-63532380D01*
X96781904Y-62532380D02*
X96305714Y-62532380D01*
X96258095Y-63008571D01*
X96305714Y-62960952D01*
X96400952Y-62913333D01*
X96639047Y-62913333D01*
X96734285Y-62960952D01*
X96781904Y-63008571D01*
X96829523Y-63103809D01*
X96829523Y-63341904D01*
X96781904Y-63437142D01*
X96734285Y-63484761D01*
X96639047Y-63532380D01*
X96400952Y-63532380D01*
X96305714Y-63484761D01*
X96258095Y-63437142D01*
X97686666Y-62532380D02*
X97496190Y-62532380D01*
X97400952Y-62580000D01*
X97353333Y-62627619D01*
X97258095Y-62770476D01*
X97210476Y-62960952D01*
X97210476Y-63341904D01*
X97258095Y-63437142D01*
X97305714Y-63484761D01*
X97400952Y-63532380D01*
X97591428Y-63532380D01*
X97686666Y-63484761D01*
X97734285Y-63437142D01*
X97781904Y-63341904D01*
X97781904Y-63103809D01*
X97734285Y-63008571D01*
X97686666Y-62960952D01*
X97591428Y-62913333D01*
X97400952Y-62913333D01*
X97305714Y-62960952D01*
X97258095Y-63008571D01*
X97210476Y-63103809D01*
X104830714Y-44482380D02*
X104830714Y-43482380D01*
X105068809Y-43482380D01*
X105211666Y-43530000D01*
X105306904Y-43625238D01*
X105354523Y-43720476D01*
X105402142Y-43910952D01*
X105402142Y-44053809D01*
X105354523Y-44244285D01*
X105306904Y-44339523D01*
X105211666Y-44434761D01*
X105068809Y-44482380D01*
X104830714Y-44482380D01*
X106306904Y-43482380D02*
X105830714Y-43482380D01*
X105783095Y-43958571D01*
X105830714Y-43910952D01*
X105925952Y-43863333D01*
X106164047Y-43863333D01*
X106259285Y-43910952D01*
X106306904Y-43958571D01*
X106354523Y-44053809D01*
X106354523Y-44291904D01*
X106306904Y-44387142D01*
X106259285Y-44434761D01*
X106164047Y-44482380D01*
X105925952Y-44482380D01*
X105830714Y-44434761D01*
X105783095Y-44387142D01*
X106687857Y-43482380D02*
X107354523Y-43482380D01*
X106925952Y-44482380D01*
X114355714Y-63532380D02*
X114355714Y-62532380D01*
X114593809Y-62532380D01*
X114736666Y-62580000D01*
X114831904Y-62675238D01*
X114879523Y-62770476D01*
X114927142Y-62960952D01*
X114927142Y-63103809D01*
X114879523Y-63294285D01*
X114831904Y-63389523D01*
X114736666Y-63484761D01*
X114593809Y-63532380D01*
X114355714Y-63532380D01*
X115831904Y-62532380D02*
X115355714Y-62532380D01*
X115308095Y-63008571D01*
X115355714Y-62960952D01*
X115450952Y-62913333D01*
X115689047Y-62913333D01*
X115784285Y-62960952D01*
X115831904Y-63008571D01*
X115879523Y-63103809D01*
X115879523Y-63341904D01*
X115831904Y-63437142D01*
X115784285Y-63484761D01*
X115689047Y-63532380D01*
X115450952Y-63532380D01*
X115355714Y-63484761D01*
X115308095Y-63437142D01*
X116450952Y-62960952D02*
X116355714Y-62913333D01*
X116308095Y-62865714D01*
X116260476Y-62770476D01*
X116260476Y-62722857D01*
X116308095Y-62627619D01*
X116355714Y-62580000D01*
X116450952Y-62532380D01*
X116641428Y-62532380D01*
X116736666Y-62580000D01*
X116784285Y-62627619D01*
X116831904Y-62722857D01*
X116831904Y-62770476D01*
X116784285Y-62865714D01*
X116736666Y-62913333D01*
X116641428Y-62960952D01*
X116450952Y-62960952D01*
X116355714Y-63008571D01*
X116308095Y-63056190D01*
X116260476Y-63151428D01*
X116260476Y-63341904D01*
X116308095Y-63437142D01*
X116355714Y-63484761D01*
X116450952Y-63532380D01*
X116641428Y-63532380D01*
X116736666Y-63484761D01*
X116784285Y-63437142D01*
X116831904Y-63341904D01*
X116831904Y-63151428D01*
X116784285Y-63056190D01*
X116736666Y-63008571D01*
X116641428Y-62960952D01*
X123880714Y-44482380D02*
X123880714Y-43482380D01*
X124118809Y-43482380D01*
X124261666Y-43530000D01*
X124356904Y-43625238D01*
X124404523Y-43720476D01*
X124452142Y-43910952D01*
X124452142Y-44053809D01*
X124404523Y-44244285D01*
X124356904Y-44339523D01*
X124261666Y-44434761D01*
X124118809Y-44482380D01*
X123880714Y-44482380D01*
X125356904Y-43482380D02*
X124880714Y-43482380D01*
X124833095Y-43958571D01*
X124880714Y-43910952D01*
X124975952Y-43863333D01*
X125214047Y-43863333D01*
X125309285Y-43910952D01*
X125356904Y-43958571D01*
X125404523Y-44053809D01*
X125404523Y-44291904D01*
X125356904Y-44387142D01*
X125309285Y-44434761D01*
X125214047Y-44482380D01*
X124975952Y-44482380D01*
X124880714Y-44434761D01*
X124833095Y-44387142D01*
X125880714Y-44482380D02*
X126071190Y-44482380D01*
X126166428Y-44434761D01*
X126214047Y-44387142D01*
X126309285Y-44244285D01*
X126356904Y-44053809D01*
X126356904Y-43672857D01*
X126309285Y-43577619D01*
X126261666Y-43530000D01*
X126166428Y-43482380D01*
X125975952Y-43482380D01*
X125880714Y-43530000D01*
X125833095Y-43577619D01*
X125785476Y-43672857D01*
X125785476Y-43910952D01*
X125833095Y-44006190D01*
X125880714Y-44053809D01*
X125975952Y-44101428D01*
X126166428Y-44101428D01*
X126261666Y-44053809D01*
X126309285Y-44006190D01*
X126356904Y-43910952D01*
X133405714Y-63532380D02*
X133405714Y-62532380D01*
X133643809Y-62532380D01*
X133786666Y-62580000D01*
X133881904Y-62675238D01*
X133929523Y-62770476D01*
X133977142Y-62960952D01*
X133977142Y-63103809D01*
X133929523Y-63294285D01*
X133881904Y-63389523D01*
X133786666Y-63484761D01*
X133643809Y-63532380D01*
X133405714Y-63532380D01*
X134834285Y-62532380D02*
X134643809Y-62532380D01*
X134548571Y-62580000D01*
X134500952Y-62627619D01*
X134405714Y-62770476D01*
X134358095Y-62960952D01*
X134358095Y-63341904D01*
X134405714Y-63437142D01*
X134453333Y-63484761D01*
X134548571Y-63532380D01*
X134739047Y-63532380D01*
X134834285Y-63484761D01*
X134881904Y-63437142D01*
X134929523Y-63341904D01*
X134929523Y-63103809D01*
X134881904Y-63008571D01*
X134834285Y-62960952D01*
X134739047Y-62913333D01*
X134548571Y-62913333D01*
X134453333Y-62960952D01*
X134405714Y-63008571D01*
X134358095Y-63103809D01*
X135548571Y-62532380D02*
X135643809Y-62532380D01*
X135739047Y-62580000D01*
X135786666Y-62627619D01*
X135834285Y-62722857D01*
X135881904Y-62913333D01*
X135881904Y-63151428D01*
X135834285Y-63341904D01*
X135786666Y-63437142D01*
X135739047Y-63484761D01*
X135643809Y-63532380D01*
X135548571Y-63532380D01*
X135453333Y-63484761D01*
X135405714Y-63437142D01*
X135358095Y-63341904D01*
X135310476Y-63151428D01*
X135310476Y-62913333D01*
X135358095Y-62722857D01*
X135405714Y-62627619D01*
X135453333Y-62580000D01*
X135548571Y-62532380D01*
X152455714Y-63532380D02*
X152455714Y-62532380D01*
X152693809Y-62532380D01*
X152836666Y-62580000D01*
X152931904Y-62675238D01*
X152979523Y-62770476D01*
X153027142Y-62960952D01*
X153027142Y-63103809D01*
X152979523Y-63294285D01*
X152931904Y-63389523D01*
X152836666Y-63484761D01*
X152693809Y-63532380D01*
X152455714Y-63532380D01*
X153884285Y-62532380D02*
X153693809Y-62532380D01*
X153598571Y-62580000D01*
X153550952Y-62627619D01*
X153455714Y-62770476D01*
X153408095Y-62960952D01*
X153408095Y-63341904D01*
X153455714Y-63437142D01*
X153503333Y-63484761D01*
X153598571Y-63532380D01*
X153789047Y-63532380D01*
X153884285Y-63484761D01*
X153931904Y-63437142D01*
X153979523Y-63341904D01*
X153979523Y-63103809D01*
X153931904Y-63008571D01*
X153884285Y-62960952D01*
X153789047Y-62913333D01*
X153598571Y-62913333D01*
X153503333Y-62960952D01*
X153455714Y-63008571D01*
X153408095Y-63103809D01*
X154931904Y-63532380D02*
X154360476Y-63532380D01*
X154646190Y-63532380D02*
X154646190Y-62532380D01*
X154550952Y-62675238D01*
X154455714Y-62770476D01*
X154360476Y-62818095D01*
X161980714Y-44482380D02*
X161980714Y-43482380D01*
X162218809Y-43482380D01*
X162361666Y-43530000D01*
X162456904Y-43625238D01*
X162504523Y-43720476D01*
X162552142Y-43910952D01*
X162552142Y-44053809D01*
X162504523Y-44244285D01*
X162456904Y-44339523D01*
X162361666Y-44434761D01*
X162218809Y-44482380D01*
X161980714Y-44482380D01*
X163409285Y-43482380D02*
X163218809Y-43482380D01*
X163123571Y-43530000D01*
X163075952Y-43577619D01*
X162980714Y-43720476D01*
X162933095Y-43910952D01*
X162933095Y-44291904D01*
X162980714Y-44387142D01*
X163028333Y-44434761D01*
X163123571Y-44482380D01*
X163314047Y-44482380D01*
X163409285Y-44434761D01*
X163456904Y-44387142D01*
X163504523Y-44291904D01*
X163504523Y-44053809D01*
X163456904Y-43958571D01*
X163409285Y-43910952D01*
X163314047Y-43863333D01*
X163123571Y-43863333D01*
X163028333Y-43910952D01*
X162980714Y-43958571D01*
X162933095Y-44053809D01*
X163885476Y-43577619D02*
X163933095Y-43530000D01*
X164028333Y-43482380D01*
X164266428Y-43482380D01*
X164361666Y-43530000D01*
X164409285Y-43577619D01*
X164456904Y-43672857D01*
X164456904Y-43768095D01*
X164409285Y-43910952D01*
X163837857Y-44482380D01*
X164456904Y-44482380D01*
X171505714Y-63532380D02*
X171505714Y-62532380D01*
X171743809Y-62532380D01*
X171886666Y-62580000D01*
X171981904Y-62675238D01*
X172029523Y-62770476D01*
X172077142Y-62960952D01*
X172077142Y-63103809D01*
X172029523Y-63294285D01*
X171981904Y-63389523D01*
X171886666Y-63484761D01*
X171743809Y-63532380D01*
X171505714Y-63532380D01*
X172934285Y-62532380D02*
X172743809Y-62532380D01*
X172648571Y-62580000D01*
X172600952Y-62627619D01*
X172505714Y-62770476D01*
X172458095Y-62960952D01*
X172458095Y-63341904D01*
X172505714Y-63437142D01*
X172553333Y-63484761D01*
X172648571Y-63532380D01*
X172839047Y-63532380D01*
X172934285Y-63484761D01*
X172981904Y-63437142D01*
X173029523Y-63341904D01*
X173029523Y-63103809D01*
X172981904Y-63008571D01*
X172934285Y-62960952D01*
X172839047Y-62913333D01*
X172648571Y-62913333D01*
X172553333Y-62960952D01*
X172505714Y-63008571D01*
X172458095Y-63103809D01*
X173362857Y-62532380D02*
X173981904Y-62532380D01*
X173648571Y-62913333D01*
X173791428Y-62913333D01*
X173886666Y-62960952D01*
X173934285Y-63008571D01*
X173981904Y-63103809D01*
X173981904Y-63341904D01*
X173934285Y-63437142D01*
X173886666Y-63484761D01*
X173791428Y-63532380D01*
X173505714Y-63532380D01*
X173410476Y-63484761D01*
X173362857Y-63437142D01*
X181030714Y-44482380D02*
X181030714Y-43482380D01*
X181268809Y-43482380D01*
X181411666Y-43530000D01*
X181506904Y-43625238D01*
X181554523Y-43720476D01*
X181602142Y-43910952D01*
X181602142Y-44053809D01*
X181554523Y-44244285D01*
X181506904Y-44339523D01*
X181411666Y-44434761D01*
X181268809Y-44482380D01*
X181030714Y-44482380D01*
X182459285Y-43482380D02*
X182268809Y-43482380D01*
X182173571Y-43530000D01*
X182125952Y-43577619D01*
X182030714Y-43720476D01*
X181983095Y-43910952D01*
X181983095Y-44291904D01*
X182030714Y-44387142D01*
X182078333Y-44434761D01*
X182173571Y-44482380D01*
X182364047Y-44482380D01*
X182459285Y-44434761D01*
X182506904Y-44387142D01*
X182554523Y-44291904D01*
X182554523Y-44053809D01*
X182506904Y-43958571D01*
X182459285Y-43910952D01*
X182364047Y-43863333D01*
X182173571Y-43863333D01*
X182078333Y-43910952D01*
X182030714Y-43958571D01*
X181983095Y-44053809D01*
X183411666Y-43815714D02*
X183411666Y-44482380D01*
X183173571Y-43434761D02*
X182935476Y-44149047D01*
X183554523Y-44149047D01*
X19105714Y-6382380D02*
X19105714Y-5382380D01*
X19343809Y-5382380D01*
X19486666Y-5430000D01*
X19581904Y-5525238D01*
X19629523Y-5620476D01*
X19677142Y-5810952D01*
X19677142Y-5953809D01*
X19629523Y-6144285D01*
X19581904Y-6239523D01*
X19486666Y-6334761D01*
X19343809Y-6382380D01*
X19105714Y-6382380D01*
X20534285Y-5382380D02*
X20343809Y-5382380D01*
X20248571Y-5430000D01*
X20200952Y-5477619D01*
X20105714Y-5620476D01*
X20058095Y-5810952D01*
X20058095Y-6191904D01*
X20105714Y-6287142D01*
X20153333Y-6334761D01*
X20248571Y-6382380D01*
X20439047Y-6382380D01*
X20534285Y-6334761D01*
X20581904Y-6287142D01*
X20629523Y-6191904D01*
X20629523Y-5953809D01*
X20581904Y-5858571D01*
X20534285Y-5810952D01*
X20439047Y-5763333D01*
X20248571Y-5763333D01*
X20153333Y-5810952D01*
X20105714Y-5858571D01*
X20058095Y-5953809D01*
X21534285Y-5382380D02*
X21058095Y-5382380D01*
X21010476Y-5858571D01*
X21058095Y-5810952D01*
X21153333Y-5763333D01*
X21391428Y-5763333D01*
X21486666Y-5810952D01*
X21534285Y-5858571D01*
X21581904Y-5953809D01*
X21581904Y-6191904D01*
X21534285Y-6287142D01*
X21486666Y-6334761D01*
X21391428Y-6382380D01*
X21153333Y-6382380D01*
X21058095Y-6334761D01*
X21010476Y-6287142D01*
X28630714Y12667619D02*
X28630714Y13667619D01*
X28868809Y13667619D01*
X29011666Y13620000D01*
X29106904Y13524761D01*
X29154523Y13429523D01*
X29202142Y13239047D01*
X29202142Y13096190D01*
X29154523Y12905714D01*
X29106904Y12810476D01*
X29011666Y12715238D01*
X28868809Y12667619D01*
X28630714Y12667619D01*
X30059285Y13667619D02*
X29868809Y13667619D01*
X29773571Y13620000D01*
X29725952Y13572380D01*
X29630714Y13429523D01*
X29583095Y13239047D01*
X29583095Y12858095D01*
X29630714Y12762857D01*
X29678333Y12715238D01*
X29773571Y12667619D01*
X29964047Y12667619D01*
X30059285Y12715238D01*
X30106904Y12762857D01*
X30154523Y12858095D01*
X30154523Y13096190D01*
X30106904Y13191428D01*
X30059285Y13239047D01*
X29964047Y13286666D01*
X29773571Y13286666D01*
X29678333Y13239047D01*
X29630714Y13191428D01*
X29583095Y13096190D01*
X31011666Y13667619D02*
X30821190Y13667619D01*
X30725952Y13620000D01*
X30678333Y13572380D01*
X30583095Y13429523D01*
X30535476Y13239047D01*
X30535476Y12858095D01*
X30583095Y12762857D01*
X30630714Y12715238D01*
X30725952Y12667619D01*
X30916428Y12667619D01*
X31011666Y12715238D01*
X31059285Y12762857D01*
X31106904Y12858095D01*
X31106904Y13096190D01*
X31059285Y13191428D01*
X31011666Y13239047D01*
X30916428Y13286666D01*
X30725952Y13286666D01*
X30630714Y13239047D01*
X30583095Y13191428D01*
X30535476Y13096190D01*
X38155714Y-6382380D02*
X38155714Y-5382380D01*
X38393809Y-5382380D01*
X38536666Y-5430000D01*
X38631904Y-5525238D01*
X38679523Y-5620476D01*
X38727142Y-5810952D01*
X38727142Y-5953809D01*
X38679523Y-6144285D01*
X38631904Y-6239523D01*
X38536666Y-6334761D01*
X38393809Y-6382380D01*
X38155714Y-6382380D01*
X39584285Y-5382380D02*
X39393809Y-5382380D01*
X39298571Y-5430000D01*
X39250952Y-5477619D01*
X39155714Y-5620476D01*
X39108095Y-5810952D01*
X39108095Y-6191904D01*
X39155714Y-6287142D01*
X39203333Y-6334761D01*
X39298571Y-6382380D01*
X39489047Y-6382380D01*
X39584285Y-6334761D01*
X39631904Y-6287142D01*
X39679523Y-6191904D01*
X39679523Y-5953809D01*
X39631904Y-5858571D01*
X39584285Y-5810952D01*
X39489047Y-5763333D01*
X39298571Y-5763333D01*
X39203333Y-5810952D01*
X39155714Y-5858571D01*
X39108095Y-5953809D01*
X40012857Y-5382380D02*
X40679523Y-5382380D01*
X40250952Y-6382380D01*
X47680714Y12667619D02*
X47680714Y13667619D01*
X47918809Y13667619D01*
X48061666Y13620000D01*
X48156904Y13524761D01*
X48204523Y13429523D01*
X48252142Y13239047D01*
X48252142Y13096190D01*
X48204523Y12905714D01*
X48156904Y12810476D01*
X48061666Y12715238D01*
X47918809Y12667619D01*
X47680714Y12667619D01*
X49109285Y13667619D02*
X48918809Y13667619D01*
X48823571Y13620000D01*
X48775952Y13572380D01*
X48680714Y13429523D01*
X48633095Y13239047D01*
X48633095Y12858095D01*
X48680714Y12762857D01*
X48728333Y12715238D01*
X48823571Y12667619D01*
X49014047Y12667619D01*
X49109285Y12715238D01*
X49156904Y12762857D01*
X49204523Y12858095D01*
X49204523Y13096190D01*
X49156904Y13191428D01*
X49109285Y13239047D01*
X49014047Y13286666D01*
X48823571Y13286666D01*
X48728333Y13239047D01*
X48680714Y13191428D01*
X48633095Y13096190D01*
X49775952Y13239047D02*
X49680714Y13286666D01*
X49633095Y13334285D01*
X49585476Y13429523D01*
X49585476Y13477142D01*
X49633095Y13572380D01*
X49680714Y13620000D01*
X49775952Y13667619D01*
X49966428Y13667619D01*
X50061666Y13620000D01*
X50109285Y13572380D01*
X50156904Y13477142D01*
X50156904Y13429523D01*
X50109285Y13334285D01*
X50061666Y13286666D01*
X49966428Y13239047D01*
X49775952Y13239047D01*
X49680714Y13191428D01*
X49633095Y13143809D01*
X49585476Y13048571D01*
X49585476Y12858095D01*
X49633095Y12762857D01*
X49680714Y12715238D01*
X49775952Y12667619D01*
X49966428Y12667619D01*
X50061666Y12715238D01*
X50109285Y12762857D01*
X50156904Y12858095D01*
X50156904Y13048571D01*
X50109285Y13143809D01*
X50061666Y13191428D01*
X49966428Y13239047D01*
X57205714Y-6382380D02*
X57205714Y-5382380D01*
X57443809Y-5382380D01*
X57586666Y-5430000D01*
X57681904Y-5525238D01*
X57729523Y-5620476D01*
X57777142Y-5810952D01*
X57777142Y-5953809D01*
X57729523Y-6144285D01*
X57681904Y-6239523D01*
X57586666Y-6334761D01*
X57443809Y-6382380D01*
X57205714Y-6382380D01*
X58634285Y-5382380D02*
X58443809Y-5382380D01*
X58348571Y-5430000D01*
X58300952Y-5477619D01*
X58205714Y-5620476D01*
X58158095Y-5810952D01*
X58158095Y-6191904D01*
X58205714Y-6287142D01*
X58253333Y-6334761D01*
X58348571Y-6382380D01*
X58539047Y-6382380D01*
X58634285Y-6334761D01*
X58681904Y-6287142D01*
X58729523Y-6191904D01*
X58729523Y-5953809D01*
X58681904Y-5858571D01*
X58634285Y-5810952D01*
X58539047Y-5763333D01*
X58348571Y-5763333D01*
X58253333Y-5810952D01*
X58205714Y-5858571D01*
X58158095Y-5953809D01*
X59205714Y-6382380D02*
X59396190Y-6382380D01*
X59491428Y-6334761D01*
X59539047Y-6287142D01*
X59634285Y-6144285D01*
X59681904Y-5953809D01*
X59681904Y-5572857D01*
X59634285Y-5477619D01*
X59586666Y-5430000D01*
X59491428Y-5382380D01*
X59300952Y-5382380D01*
X59205714Y-5430000D01*
X59158095Y-5477619D01*
X59110476Y-5572857D01*
X59110476Y-5810952D01*
X59158095Y-5906190D01*
X59205714Y-5953809D01*
X59300952Y-6001428D01*
X59491428Y-6001428D01*
X59586666Y-5953809D01*
X59634285Y-5906190D01*
X59681904Y-5810952D01*
X76255714Y-6382380D02*
X76255714Y-5382380D01*
X76493809Y-5382380D01*
X76636666Y-5430000D01*
X76731904Y-5525238D01*
X76779523Y-5620476D01*
X76827142Y-5810952D01*
X76827142Y-5953809D01*
X76779523Y-6144285D01*
X76731904Y-6239523D01*
X76636666Y-6334761D01*
X76493809Y-6382380D01*
X76255714Y-6382380D01*
X77160476Y-5382380D02*
X77827142Y-5382380D01*
X77398571Y-6382380D01*
X78398571Y-5382380D02*
X78493809Y-5382380D01*
X78589047Y-5430000D01*
X78636666Y-5477619D01*
X78684285Y-5572857D01*
X78731904Y-5763333D01*
X78731904Y-6001428D01*
X78684285Y-6191904D01*
X78636666Y-6287142D01*
X78589047Y-6334761D01*
X78493809Y-6382380D01*
X78398571Y-6382380D01*
X78303333Y-6334761D01*
X78255714Y-6287142D01*
X78208095Y-6191904D01*
X78160476Y-6001428D01*
X78160476Y-5763333D01*
X78208095Y-5572857D01*
X78255714Y-5477619D01*
X78303333Y-5430000D01*
X78398571Y-5382380D01*
X85780714Y12667619D02*
X85780714Y13667619D01*
X86018809Y13667619D01*
X86161666Y13620000D01*
X86256904Y13524761D01*
X86304523Y13429523D01*
X86352142Y13239047D01*
X86352142Y13096190D01*
X86304523Y12905714D01*
X86256904Y12810476D01*
X86161666Y12715238D01*
X86018809Y12667619D01*
X85780714Y12667619D01*
X86685476Y13667619D02*
X87352142Y13667619D01*
X86923571Y12667619D01*
X88256904Y12667619D02*
X87685476Y12667619D01*
X87971190Y12667619D02*
X87971190Y13667619D01*
X87875952Y13524761D01*
X87780714Y13429523D01*
X87685476Y13381904D01*
X95305714Y-6382380D02*
X95305714Y-5382380D01*
X95543809Y-5382380D01*
X95686666Y-5430000D01*
X95781904Y-5525238D01*
X95829523Y-5620476D01*
X95877142Y-5810952D01*
X95877142Y-5953809D01*
X95829523Y-6144285D01*
X95781904Y-6239523D01*
X95686666Y-6334761D01*
X95543809Y-6382380D01*
X95305714Y-6382380D01*
X96210476Y-5382380D02*
X96877142Y-5382380D01*
X96448571Y-6382380D01*
X97210476Y-5477619D02*
X97258095Y-5430000D01*
X97353333Y-5382380D01*
X97591428Y-5382380D01*
X97686666Y-5430000D01*
X97734285Y-5477619D01*
X97781904Y-5572857D01*
X97781904Y-5668095D01*
X97734285Y-5810952D01*
X97162857Y-6382380D01*
X97781904Y-6382380D01*
X104830714Y12667619D02*
X104830714Y13667619D01*
X105068809Y13667619D01*
X105211666Y13620000D01*
X105306904Y13524761D01*
X105354523Y13429523D01*
X105402142Y13239047D01*
X105402142Y13096190D01*
X105354523Y12905714D01*
X105306904Y12810476D01*
X105211666Y12715238D01*
X105068809Y12667619D01*
X104830714Y12667619D01*
X105735476Y13667619D02*
X106402142Y13667619D01*
X105973571Y12667619D01*
X106687857Y13667619D02*
X107306904Y13667619D01*
X106973571Y13286666D01*
X107116428Y13286666D01*
X107211666Y13239047D01*
X107259285Y13191428D01*
X107306904Y13096190D01*
X107306904Y12858095D01*
X107259285Y12762857D01*
X107211666Y12715238D01*
X107116428Y12667619D01*
X106830714Y12667619D01*
X106735476Y12715238D01*
X106687857Y12762857D01*
X114355714Y-6382380D02*
X114355714Y-5382380D01*
X114593809Y-5382380D01*
X114736666Y-5430000D01*
X114831904Y-5525238D01*
X114879523Y-5620476D01*
X114927142Y-5810952D01*
X114927142Y-5953809D01*
X114879523Y-6144285D01*
X114831904Y-6239523D01*
X114736666Y-6334761D01*
X114593809Y-6382380D01*
X114355714Y-6382380D01*
X115260476Y-5382380D02*
X115927142Y-5382380D01*
X115498571Y-6382380D01*
X116736666Y-5715714D02*
X116736666Y-6382380D01*
X116498571Y-5334761D02*
X116260476Y-6049047D01*
X116879523Y-6049047D01*
X123880714Y12667619D02*
X123880714Y13667619D01*
X124118809Y13667619D01*
X124261666Y13620000D01*
X124356904Y13524761D01*
X124404523Y13429523D01*
X124452142Y13239047D01*
X124452142Y13096190D01*
X124404523Y12905714D01*
X124356904Y12810476D01*
X124261666Y12715238D01*
X124118809Y12667619D01*
X123880714Y12667619D01*
X124785476Y13667619D02*
X125452142Y13667619D01*
X125023571Y12667619D01*
X126309285Y13667619D02*
X125833095Y13667619D01*
X125785476Y13191428D01*
X125833095Y13239047D01*
X125928333Y13286666D01*
X126166428Y13286666D01*
X126261666Y13239047D01*
X126309285Y13191428D01*
X126356904Y13096190D01*
X126356904Y12858095D01*
X126309285Y12762857D01*
X126261666Y12715238D01*
X126166428Y12667619D01*
X125928333Y12667619D01*
X125833095Y12715238D01*
X125785476Y12762857D01*
X133405714Y-6382380D02*
X133405714Y-5382380D01*
X133643809Y-5382380D01*
X133786666Y-5430000D01*
X133881904Y-5525238D01*
X133929523Y-5620476D01*
X133977142Y-5810952D01*
X133977142Y-5953809D01*
X133929523Y-6144285D01*
X133881904Y-6239523D01*
X133786666Y-6334761D01*
X133643809Y-6382380D01*
X133405714Y-6382380D01*
X134310476Y-5382380D02*
X134977142Y-5382380D01*
X134548571Y-6382380D01*
X135786666Y-5382380D02*
X135596190Y-5382380D01*
X135500952Y-5430000D01*
X135453333Y-5477619D01*
X135358095Y-5620476D01*
X135310476Y-5810952D01*
X135310476Y-6191904D01*
X135358095Y-6287142D01*
X135405714Y-6334761D01*
X135500952Y-6382380D01*
X135691428Y-6382380D01*
X135786666Y-6334761D01*
X135834285Y-6287142D01*
X135881904Y-6191904D01*
X135881904Y-5953809D01*
X135834285Y-5858571D01*
X135786666Y-5810952D01*
X135691428Y-5763333D01*
X135500952Y-5763333D01*
X135405714Y-5810952D01*
X135358095Y-5858571D01*
X135310476Y-5953809D01*
X152455714Y-6382380D02*
X152455714Y-5382380D01*
X152693809Y-5382380D01*
X152836666Y-5430000D01*
X152931904Y-5525238D01*
X152979523Y-5620476D01*
X153027142Y-5810952D01*
X153027142Y-5953809D01*
X152979523Y-6144285D01*
X152931904Y-6239523D01*
X152836666Y-6334761D01*
X152693809Y-6382380D01*
X152455714Y-6382380D01*
X153360476Y-5382380D02*
X154027142Y-5382380D01*
X153598571Y-6382380D01*
X154312857Y-5382380D02*
X154979523Y-5382380D01*
X154550952Y-6382380D01*
X161980714Y12667619D02*
X161980714Y13667619D01*
X162218809Y13667619D01*
X162361666Y13620000D01*
X162456904Y13524761D01*
X162504523Y13429523D01*
X162552142Y13239047D01*
X162552142Y13096190D01*
X162504523Y12905714D01*
X162456904Y12810476D01*
X162361666Y12715238D01*
X162218809Y12667619D01*
X161980714Y12667619D01*
X162885476Y13667619D02*
X163552142Y13667619D01*
X163123571Y12667619D01*
X164075952Y13239047D02*
X163980714Y13286666D01*
X163933095Y13334285D01*
X163885476Y13429523D01*
X163885476Y13477142D01*
X163933095Y13572380D01*
X163980714Y13620000D01*
X164075952Y13667619D01*
X164266428Y13667619D01*
X164361666Y13620000D01*
X164409285Y13572380D01*
X164456904Y13477142D01*
X164456904Y13429523D01*
X164409285Y13334285D01*
X164361666Y13286666D01*
X164266428Y13239047D01*
X164075952Y13239047D01*
X163980714Y13191428D01*
X163933095Y13143809D01*
X163885476Y13048571D01*
X163885476Y12858095D01*
X163933095Y12762857D01*
X163980714Y12715238D01*
X164075952Y12667619D01*
X164266428Y12667619D01*
X164361666Y12715238D01*
X164409285Y12762857D01*
X164456904Y12858095D01*
X164456904Y13048571D01*
X164409285Y13143809D01*
X164361666Y13191428D01*
X164266428Y13239047D01*
X171505714Y-6382380D02*
X171505714Y-5382380D01*
X171743809Y-5382380D01*
X171886666Y-5430000D01*
X171981904Y-5525238D01*
X172029523Y-5620476D01*
X172077142Y-5810952D01*
X172077142Y-5953809D01*
X172029523Y-6144285D01*
X171981904Y-6239523D01*
X171886666Y-6334761D01*
X171743809Y-6382380D01*
X171505714Y-6382380D01*
X172410476Y-5382380D02*
X173077142Y-5382380D01*
X172648571Y-6382380D01*
X173505714Y-6382380D02*
X173696190Y-6382380D01*
X173791428Y-6334761D01*
X173839047Y-6287142D01*
X173934285Y-6144285D01*
X173981904Y-5953809D01*
X173981904Y-5572857D01*
X173934285Y-5477619D01*
X173886666Y-5430000D01*
X173791428Y-5382380D01*
X173600952Y-5382380D01*
X173505714Y-5430000D01*
X173458095Y-5477619D01*
X173410476Y-5572857D01*
X173410476Y-5810952D01*
X173458095Y-5906190D01*
X173505714Y-5953809D01*
X173600952Y-6001428D01*
X173791428Y-6001428D01*
X173886666Y-5953809D01*
X173934285Y-5906190D01*
X173981904Y-5810952D01*
X181030714Y12667619D02*
X181030714Y13667619D01*
X181268809Y13667619D01*
X181411666Y13620000D01*
X181506904Y13524761D01*
X181554523Y13429523D01*
X181602142Y13239047D01*
X181602142Y13096190D01*
X181554523Y12905714D01*
X181506904Y12810476D01*
X181411666Y12715238D01*
X181268809Y12667619D01*
X181030714Y12667619D01*
X182173571Y13239047D02*
X182078333Y13286666D01*
X182030714Y13334285D01*
X181983095Y13429523D01*
X181983095Y13477142D01*
X182030714Y13572380D01*
X182078333Y13620000D01*
X182173571Y13667619D01*
X182364047Y13667619D01*
X182459285Y13620000D01*
X182506904Y13572380D01*
X182554523Y13477142D01*
X182554523Y13429523D01*
X182506904Y13334285D01*
X182459285Y13286666D01*
X182364047Y13239047D01*
X182173571Y13239047D01*
X182078333Y13191428D01*
X182030714Y13143809D01*
X181983095Y13048571D01*
X181983095Y12858095D01*
X182030714Y12762857D01*
X182078333Y12715238D01*
X182173571Y12667619D01*
X182364047Y12667619D01*
X182459285Y12715238D01*
X182506904Y12762857D01*
X182554523Y12858095D01*
X182554523Y13048571D01*
X182506904Y13143809D01*
X182459285Y13191428D01*
X182364047Y13239047D01*
X183173571Y13667619D02*
X183268809Y13667619D01*
X183364047Y13620000D01*
X183411666Y13572380D01*
X183459285Y13477142D01*
X183506904Y13286666D01*
X183506904Y13048571D01*
X183459285Y12858095D01*
X183411666Y12762857D01*
X183364047Y12715238D01*
X183268809Y12667619D01*
X183173571Y12667619D01*
X183078333Y12715238D01*
X183030714Y12762857D01*
X182983095Y12858095D01*
X182935476Y13048571D01*
X182935476Y13286666D01*
X182983095Y13477142D01*
X183030714Y13572380D01*
X183078333Y13620000D01*
X183173571Y13667619D01*
X18986666Y-167790761D02*
X19129523Y-167838380D01*
X19367619Y-167838380D01*
X19462857Y-167790761D01*
X19510476Y-167743142D01*
X19558095Y-167647904D01*
X19558095Y-167552666D01*
X19510476Y-167457428D01*
X19462857Y-167409809D01*
X19367619Y-167362190D01*
X19177142Y-167314571D01*
X19081904Y-167266952D01*
X19034285Y-167219333D01*
X18986666Y-167124095D01*
X18986666Y-167028857D01*
X19034285Y-166933619D01*
X19081904Y-166886000D01*
X19177142Y-166838380D01*
X19415238Y-166838380D01*
X19558095Y-166886000D01*
X19891428Y-166838380D02*
X20129523Y-167838380D01*
X20320000Y-167124095D01*
X20510476Y-167838380D01*
X20748571Y-166838380D01*
X21653333Y-167838380D02*
X21081904Y-167838380D01*
X21367619Y-167838380D02*
X21367619Y-166838380D01*
X21272380Y-166981238D01*
X21177142Y-167076476D01*
X21081904Y-167124095D01*
X28511666Y-148740761D02*
X28654523Y-148788380D01*
X28892619Y-148788380D01*
X28987857Y-148740761D01*
X29035476Y-148693142D01*
X29083095Y-148597904D01*
X29083095Y-148502666D01*
X29035476Y-148407428D01*
X28987857Y-148359809D01*
X28892619Y-148312190D01*
X28702142Y-148264571D01*
X28606904Y-148216952D01*
X28559285Y-148169333D01*
X28511666Y-148074095D01*
X28511666Y-147978857D01*
X28559285Y-147883619D01*
X28606904Y-147836000D01*
X28702142Y-147788380D01*
X28940238Y-147788380D01*
X29083095Y-147836000D01*
X29416428Y-147788380D02*
X29654523Y-148788380D01*
X29845000Y-148074095D01*
X30035476Y-148788380D01*
X30273571Y-147788380D01*
X30606904Y-147883619D02*
X30654523Y-147836000D01*
X30749761Y-147788380D01*
X30987857Y-147788380D01*
X31083095Y-147836000D01*
X31130714Y-147883619D01*
X31178333Y-147978857D01*
X31178333Y-148074095D01*
X31130714Y-148216952D01*
X30559285Y-148788380D01*
X31178333Y-148788380D01*
X47561666Y-148740761D02*
X47704523Y-148788380D01*
X47942619Y-148788380D01*
X48037857Y-148740761D01*
X48085476Y-148693142D01*
X48133095Y-148597904D01*
X48133095Y-148502666D01*
X48085476Y-148407428D01*
X48037857Y-148359809D01*
X47942619Y-148312190D01*
X47752142Y-148264571D01*
X47656904Y-148216952D01*
X47609285Y-148169333D01*
X47561666Y-148074095D01*
X47561666Y-147978857D01*
X47609285Y-147883619D01*
X47656904Y-147836000D01*
X47752142Y-147788380D01*
X47990238Y-147788380D01*
X48133095Y-147836000D01*
X48466428Y-147788380D02*
X48704523Y-148788380D01*
X48895000Y-148074095D01*
X49085476Y-148788380D01*
X49323571Y-147788380D01*
X50133095Y-148121714D02*
X50133095Y-148788380D01*
X49895000Y-147740761D02*
X49656904Y-148455047D01*
X50275952Y-148455047D01*
X57086666Y-167790761D02*
X57229523Y-167838380D01*
X57467619Y-167838380D01*
X57562857Y-167790761D01*
X57610476Y-167743142D01*
X57658095Y-167647904D01*
X57658095Y-167552666D01*
X57610476Y-167457428D01*
X57562857Y-167409809D01*
X57467619Y-167362190D01*
X57277142Y-167314571D01*
X57181904Y-167266952D01*
X57134285Y-167219333D01*
X57086666Y-167124095D01*
X57086666Y-167028857D01*
X57134285Y-166933619D01*
X57181904Y-166886000D01*
X57277142Y-166838380D01*
X57515238Y-166838380D01*
X57658095Y-166886000D01*
X57991428Y-166838380D02*
X58229523Y-167838380D01*
X58420000Y-167124095D01*
X58610476Y-167838380D01*
X58848571Y-166838380D01*
X59705714Y-166838380D02*
X59229523Y-166838380D01*
X59181904Y-167314571D01*
X59229523Y-167266952D01*
X59324761Y-167219333D01*
X59562857Y-167219333D01*
X59658095Y-167266952D01*
X59705714Y-167314571D01*
X59753333Y-167409809D01*
X59753333Y-167647904D01*
X59705714Y-167743142D01*
X59658095Y-167790761D01*
X59562857Y-167838380D01*
X59324761Y-167838380D01*
X59229523Y-167790761D01*
X59181904Y-167743142D01*
X76136666Y-167790761D02*
X76279523Y-167838380D01*
X76517619Y-167838380D01*
X76612857Y-167790761D01*
X76660476Y-167743142D01*
X76708095Y-167647904D01*
X76708095Y-167552666D01*
X76660476Y-167457428D01*
X76612857Y-167409809D01*
X76517619Y-167362190D01*
X76327142Y-167314571D01*
X76231904Y-167266952D01*
X76184285Y-167219333D01*
X76136666Y-167124095D01*
X76136666Y-167028857D01*
X76184285Y-166933619D01*
X76231904Y-166886000D01*
X76327142Y-166838380D01*
X76565238Y-166838380D01*
X76708095Y-166886000D01*
X77041428Y-166838380D02*
X77279523Y-167838380D01*
X77470000Y-167124095D01*
X77660476Y-167838380D01*
X77898571Y-166838380D01*
X78708095Y-166838380D02*
X78517619Y-166838380D01*
X78422380Y-166886000D01*
X78374761Y-166933619D01*
X78279523Y-167076476D01*
X78231904Y-167266952D01*
X78231904Y-167647904D01*
X78279523Y-167743142D01*
X78327142Y-167790761D01*
X78422380Y-167838380D01*
X78612857Y-167838380D01*
X78708095Y-167790761D01*
X78755714Y-167743142D01*
X78803333Y-167647904D01*
X78803333Y-167409809D01*
X78755714Y-167314571D01*
X78708095Y-167266952D01*
X78612857Y-167219333D01*
X78422380Y-167219333D01*
X78327142Y-167266952D01*
X78279523Y-167314571D01*
X78231904Y-167409809D01*
X95186666Y-167790761D02*
X95329523Y-167838380D01*
X95567619Y-167838380D01*
X95662857Y-167790761D01*
X95710476Y-167743142D01*
X95758095Y-167647904D01*
X95758095Y-167552666D01*
X95710476Y-167457428D01*
X95662857Y-167409809D01*
X95567619Y-167362190D01*
X95377142Y-167314571D01*
X95281904Y-167266952D01*
X95234285Y-167219333D01*
X95186666Y-167124095D01*
X95186666Y-167028857D01*
X95234285Y-166933619D01*
X95281904Y-166886000D01*
X95377142Y-166838380D01*
X95615238Y-166838380D01*
X95758095Y-166886000D01*
X96091428Y-166838380D02*
X96329523Y-167838380D01*
X96520000Y-167124095D01*
X96710476Y-167838380D01*
X96948571Y-166838380D01*
X97234285Y-166838380D02*
X97900952Y-166838380D01*
X97472380Y-167838380D01*
X85661666Y-148740761D02*
X85804523Y-148788380D01*
X86042619Y-148788380D01*
X86137857Y-148740761D01*
X86185476Y-148693142D01*
X86233095Y-148597904D01*
X86233095Y-148502666D01*
X86185476Y-148407428D01*
X86137857Y-148359809D01*
X86042619Y-148312190D01*
X85852142Y-148264571D01*
X85756904Y-148216952D01*
X85709285Y-148169333D01*
X85661666Y-148074095D01*
X85661666Y-147978857D01*
X85709285Y-147883619D01*
X85756904Y-147836000D01*
X85852142Y-147788380D01*
X86090238Y-147788380D01*
X86233095Y-147836000D01*
X86566428Y-147788380D02*
X86804523Y-148788380D01*
X86995000Y-148074095D01*
X87185476Y-148788380D01*
X87423571Y-147788380D01*
X87947380Y-148216952D02*
X87852142Y-148169333D01*
X87804523Y-148121714D01*
X87756904Y-148026476D01*
X87756904Y-147978857D01*
X87804523Y-147883619D01*
X87852142Y-147836000D01*
X87947380Y-147788380D01*
X88137857Y-147788380D01*
X88233095Y-147836000D01*
X88280714Y-147883619D01*
X88328333Y-147978857D01*
X88328333Y-148026476D01*
X88280714Y-148121714D01*
X88233095Y-148169333D01*
X88137857Y-148216952D01*
X87947380Y-148216952D01*
X87852142Y-148264571D01*
X87804523Y-148312190D01*
X87756904Y-148407428D01*
X87756904Y-148597904D01*
X87804523Y-148693142D01*
X87852142Y-148740761D01*
X87947380Y-148788380D01*
X88137857Y-148788380D01*
X88233095Y-148740761D01*
X88280714Y-148693142D01*
X88328333Y-148597904D01*
X88328333Y-148407428D01*
X88280714Y-148312190D01*
X88233095Y-148264571D01*
X88137857Y-148216952D01*
X114236666Y-167790761D02*
X114379523Y-167838380D01*
X114617619Y-167838380D01*
X114712857Y-167790761D01*
X114760476Y-167743142D01*
X114808095Y-167647904D01*
X114808095Y-167552666D01*
X114760476Y-167457428D01*
X114712857Y-167409809D01*
X114617619Y-167362190D01*
X114427142Y-167314571D01*
X114331904Y-167266952D01*
X114284285Y-167219333D01*
X114236666Y-167124095D01*
X114236666Y-167028857D01*
X114284285Y-166933619D01*
X114331904Y-166886000D01*
X114427142Y-166838380D01*
X114665238Y-166838380D01*
X114808095Y-166886000D01*
X115141428Y-166838380D02*
X115379523Y-167838380D01*
X115570000Y-167124095D01*
X115760476Y-167838380D01*
X115998571Y-166838380D01*
X116427142Y-167838380D02*
X116617619Y-167838380D01*
X116712857Y-167790761D01*
X116760476Y-167743142D01*
X116855714Y-167600285D01*
X116903333Y-167409809D01*
X116903333Y-167028857D01*
X116855714Y-166933619D01*
X116808095Y-166886000D01*
X116712857Y-166838380D01*
X116522380Y-166838380D01*
X116427142Y-166886000D01*
X116379523Y-166933619D01*
X116331904Y-167028857D01*
X116331904Y-167266952D01*
X116379523Y-167362190D01*
X116427142Y-167409809D01*
X116522380Y-167457428D01*
X116712857Y-167457428D01*
X116808095Y-167409809D01*
X116855714Y-167362190D01*
X116903333Y-167266952D01*
X104235476Y-148740761D02*
X104378333Y-148788380D01*
X104616428Y-148788380D01*
X104711666Y-148740761D01*
X104759285Y-148693142D01*
X104806904Y-148597904D01*
X104806904Y-148502666D01*
X104759285Y-148407428D01*
X104711666Y-148359809D01*
X104616428Y-148312190D01*
X104425952Y-148264571D01*
X104330714Y-148216952D01*
X104283095Y-148169333D01*
X104235476Y-148074095D01*
X104235476Y-147978857D01*
X104283095Y-147883619D01*
X104330714Y-147836000D01*
X104425952Y-147788380D01*
X104664047Y-147788380D01*
X104806904Y-147836000D01*
X105140238Y-147788380D02*
X105378333Y-148788380D01*
X105568809Y-148074095D01*
X105759285Y-148788380D01*
X105997380Y-147788380D01*
X106902142Y-148788380D02*
X106330714Y-148788380D01*
X106616428Y-148788380D02*
X106616428Y-147788380D01*
X106521190Y-147931238D01*
X106425952Y-148026476D01*
X106330714Y-148074095D01*
X107521190Y-147788380D02*
X107616428Y-147788380D01*
X107711666Y-147836000D01*
X107759285Y-147883619D01*
X107806904Y-147978857D01*
X107854523Y-148169333D01*
X107854523Y-148407428D01*
X107806904Y-148597904D01*
X107759285Y-148693142D01*
X107711666Y-148740761D01*
X107616428Y-148788380D01*
X107521190Y-148788380D01*
X107425952Y-148740761D01*
X107378333Y-148693142D01*
X107330714Y-148597904D01*
X107283095Y-148407428D01*
X107283095Y-148169333D01*
X107330714Y-147978857D01*
X107378333Y-147883619D01*
X107425952Y-147836000D01*
X107521190Y-147788380D01*
X123285476Y-148740761D02*
X123428333Y-148788380D01*
X123666428Y-148788380D01*
X123761666Y-148740761D01*
X123809285Y-148693142D01*
X123856904Y-148597904D01*
X123856904Y-148502666D01*
X123809285Y-148407428D01*
X123761666Y-148359809D01*
X123666428Y-148312190D01*
X123475952Y-148264571D01*
X123380714Y-148216952D01*
X123333095Y-148169333D01*
X123285476Y-148074095D01*
X123285476Y-147978857D01*
X123333095Y-147883619D01*
X123380714Y-147836000D01*
X123475952Y-147788380D01*
X123714047Y-147788380D01*
X123856904Y-147836000D01*
X124190238Y-147788380D02*
X124428333Y-148788380D01*
X124618809Y-148074095D01*
X124809285Y-148788380D01*
X125047380Y-147788380D01*
X125952142Y-148788380D02*
X125380714Y-148788380D01*
X125666428Y-148788380D02*
X125666428Y-147788380D01*
X125571190Y-147931238D01*
X125475952Y-148026476D01*
X125380714Y-148074095D01*
X126904523Y-148788380D02*
X126333095Y-148788380D01*
X126618809Y-148788380D02*
X126618809Y-147788380D01*
X126523571Y-147931238D01*
X126428333Y-148026476D01*
X126333095Y-148074095D01*
X132810476Y-167790761D02*
X132953333Y-167838380D01*
X133191428Y-167838380D01*
X133286666Y-167790761D01*
X133334285Y-167743142D01*
X133381904Y-167647904D01*
X133381904Y-167552666D01*
X133334285Y-167457428D01*
X133286666Y-167409809D01*
X133191428Y-167362190D01*
X133000952Y-167314571D01*
X132905714Y-167266952D01*
X132858095Y-167219333D01*
X132810476Y-167124095D01*
X132810476Y-167028857D01*
X132858095Y-166933619D01*
X132905714Y-166886000D01*
X133000952Y-166838380D01*
X133239047Y-166838380D01*
X133381904Y-166886000D01*
X133715238Y-166838380D02*
X133953333Y-167838380D01*
X134143809Y-167124095D01*
X134334285Y-167838380D01*
X134572380Y-166838380D01*
X135477142Y-167838380D02*
X134905714Y-167838380D01*
X135191428Y-167838380D02*
X135191428Y-166838380D01*
X135096190Y-166981238D01*
X135000952Y-167076476D01*
X134905714Y-167124095D01*
X135858095Y-166933619D02*
X135905714Y-166886000D01*
X136000952Y-166838380D01*
X136239047Y-166838380D01*
X136334285Y-166886000D01*
X136381904Y-166933619D01*
X136429523Y-167028857D01*
X136429523Y-167124095D01*
X136381904Y-167266952D01*
X135810476Y-167838380D01*
X136429523Y-167838380D01*
X151860476Y-167790761D02*
X152003333Y-167838380D01*
X152241428Y-167838380D01*
X152336666Y-167790761D01*
X152384285Y-167743142D01*
X152431904Y-167647904D01*
X152431904Y-167552666D01*
X152384285Y-167457428D01*
X152336666Y-167409809D01*
X152241428Y-167362190D01*
X152050952Y-167314571D01*
X151955714Y-167266952D01*
X151908095Y-167219333D01*
X151860476Y-167124095D01*
X151860476Y-167028857D01*
X151908095Y-166933619D01*
X151955714Y-166886000D01*
X152050952Y-166838380D01*
X152289047Y-166838380D01*
X152431904Y-166886000D01*
X152765238Y-166838380D02*
X153003333Y-167838380D01*
X153193809Y-167124095D01*
X153384285Y-167838380D01*
X153622380Y-166838380D01*
X154527142Y-167838380D02*
X153955714Y-167838380D01*
X154241428Y-167838380D02*
X154241428Y-166838380D01*
X154146190Y-166981238D01*
X154050952Y-167076476D01*
X153955714Y-167124095D01*
X154860476Y-166838380D02*
X155479523Y-166838380D01*
X155146190Y-167219333D01*
X155289047Y-167219333D01*
X155384285Y-167266952D01*
X155431904Y-167314571D01*
X155479523Y-167409809D01*
X155479523Y-167647904D01*
X155431904Y-167743142D01*
X155384285Y-167790761D01*
X155289047Y-167838380D01*
X155003333Y-167838380D01*
X154908095Y-167790761D01*
X154860476Y-167743142D01*
X161385476Y-148740761D02*
X161528333Y-148788380D01*
X161766428Y-148788380D01*
X161861666Y-148740761D01*
X161909285Y-148693142D01*
X161956904Y-148597904D01*
X161956904Y-148502666D01*
X161909285Y-148407428D01*
X161861666Y-148359809D01*
X161766428Y-148312190D01*
X161575952Y-148264571D01*
X161480714Y-148216952D01*
X161433095Y-148169333D01*
X161385476Y-148074095D01*
X161385476Y-147978857D01*
X161433095Y-147883619D01*
X161480714Y-147836000D01*
X161575952Y-147788380D01*
X161814047Y-147788380D01*
X161956904Y-147836000D01*
X162290238Y-147788380D02*
X162528333Y-148788380D01*
X162718809Y-148074095D01*
X162909285Y-148788380D01*
X163147380Y-147788380D01*
X164052142Y-148788380D02*
X163480714Y-148788380D01*
X163766428Y-148788380D02*
X163766428Y-147788380D01*
X163671190Y-147931238D01*
X163575952Y-148026476D01*
X163480714Y-148074095D01*
X164909285Y-148121714D02*
X164909285Y-148788380D01*
X164671190Y-147740761D02*
X164433095Y-148455047D01*
X165052142Y-148455047D01*
X170910476Y-167790761D02*
X171053333Y-167838380D01*
X171291428Y-167838380D01*
X171386666Y-167790761D01*
X171434285Y-167743142D01*
X171481904Y-167647904D01*
X171481904Y-167552666D01*
X171434285Y-167457428D01*
X171386666Y-167409809D01*
X171291428Y-167362190D01*
X171100952Y-167314571D01*
X171005714Y-167266952D01*
X170958095Y-167219333D01*
X170910476Y-167124095D01*
X170910476Y-167028857D01*
X170958095Y-166933619D01*
X171005714Y-166886000D01*
X171100952Y-166838380D01*
X171339047Y-166838380D01*
X171481904Y-166886000D01*
X171815238Y-166838380D02*
X172053333Y-167838380D01*
X172243809Y-167124095D01*
X172434285Y-167838380D01*
X172672380Y-166838380D01*
X173577142Y-167838380D02*
X173005714Y-167838380D01*
X173291428Y-167838380D02*
X173291428Y-166838380D01*
X173196190Y-166981238D01*
X173100952Y-167076476D01*
X173005714Y-167124095D01*
X174481904Y-166838380D02*
X174005714Y-166838380D01*
X173958095Y-167314571D01*
X174005714Y-167266952D01*
X174100952Y-167219333D01*
X174339047Y-167219333D01*
X174434285Y-167266952D01*
X174481904Y-167314571D01*
X174529523Y-167409809D01*
X174529523Y-167647904D01*
X174481904Y-167743142D01*
X174434285Y-167790761D01*
X174339047Y-167838380D01*
X174100952Y-167838380D01*
X174005714Y-167790761D01*
X173958095Y-167743142D01*
X180435476Y-148740761D02*
X180578333Y-148788380D01*
X180816428Y-148788380D01*
X180911666Y-148740761D01*
X180959285Y-148693142D01*
X181006904Y-148597904D01*
X181006904Y-148502666D01*
X180959285Y-148407428D01*
X180911666Y-148359809D01*
X180816428Y-148312190D01*
X180625952Y-148264571D01*
X180530714Y-148216952D01*
X180483095Y-148169333D01*
X180435476Y-148074095D01*
X180435476Y-147978857D01*
X180483095Y-147883619D01*
X180530714Y-147836000D01*
X180625952Y-147788380D01*
X180864047Y-147788380D01*
X181006904Y-147836000D01*
X181340238Y-147788380D02*
X181578333Y-148788380D01*
X181768809Y-148074095D01*
X181959285Y-148788380D01*
X182197380Y-147788380D01*
X183102142Y-148788380D02*
X182530714Y-148788380D01*
X182816428Y-148788380D02*
X182816428Y-147788380D01*
X182721190Y-147931238D01*
X182625952Y-148026476D01*
X182530714Y-148074095D01*
X183959285Y-147788380D02*
X183768809Y-147788380D01*
X183673571Y-147836000D01*
X183625952Y-147883619D01*
X183530714Y-148026476D01*
X183483095Y-148216952D01*
X183483095Y-148597904D01*
X183530714Y-148693142D01*
X183578333Y-148740761D01*
X183673571Y-148788380D01*
X183864047Y-148788380D01*
X183959285Y-148740761D01*
X184006904Y-148693142D01*
X184054523Y-148597904D01*
X184054523Y-148359809D01*
X184006904Y-148264571D01*
X183959285Y-148216952D01*
X183864047Y-148169333D01*
X183673571Y-148169333D01*
X183578333Y-148216952D01*
X183530714Y-148264571D01*
X183483095Y-148359809D01*
X139997380Y37338095D02*
X140806904Y37338095D01*
X140902142Y37385714D01*
X140949761Y37433333D01*
X140997380Y37528571D01*
X140997380Y37719047D01*
X140949761Y37814285D01*
X140902142Y37861904D01*
X140806904Y37909523D01*
X139997380Y37909523D01*
X140092619Y38338095D02*
X140045000Y38385714D01*
X139997380Y38480952D01*
X139997380Y38719047D01*
X140045000Y38814285D01*
X140092619Y38861904D01*
X140187857Y38909523D01*
X140283095Y38909523D01*
X140425952Y38861904D01*
X140997380Y38290476D01*
X140997380Y38909523D01*
X153567142Y41108333D02*
X154043333Y41108333D01*
X153471904Y40822619D02*
X153805238Y41822619D01*
X154138571Y40822619D01*
X154471904Y40822619D02*
X154471904Y41822619D01*
X154710000Y41822619D01*
X154852857Y41775000D01*
X154948095Y41679761D01*
X154995714Y41584523D01*
X155043333Y41394047D01*
X155043333Y41251190D01*
X154995714Y41060714D01*
X154948095Y40965476D01*
X154852857Y40870238D01*
X154710000Y40822619D01*
X154471904Y40822619D01*
X155519523Y40822619D02*
X155710000Y40822619D01*
X155805238Y40870238D01*
X155852857Y40917857D01*
X155948095Y41060714D01*
X155995714Y41251190D01*
X155995714Y41632142D01*
X155948095Y41727380D01*
X155900476Y41775000D01*
X155805238Y41822619D01*
X155614761Y41822619D01*
X155519523Y41775000D01*
X155471904Y41727380D01*
X155424285Y41632142D01*
X155424285Y41394047D01*
X155471904Y41298809D01*
X155519523Y41251190D01*
X155614761Y41203571D01*
X155805238Y41203571D01*
X155900476Y41251190D01*
X155948095Y41298809D01*
X155995714Y41394047D01*
X156567142Y41394047D02*
X156471904Y41441666D01*
X156424285Y41489285D01*
X156376666Y41584523D01*
X156376666Y41632142D01*
X156424285Y41727380D01*
X156471904Y41775000D01*
X156567142Y41822619D01*
X156757619Y41822619D01*
X156852857Y41775000D01*
X156900476Y41727380D01*
X156948095Y41632142D01*
X156948095Y41584523D01*
X156900476Y41489285D01*
X156852857Y41441666D01*
X156757619Y41394047D01*
X156567142Y41394047D01*
X156471904Y41346428D01*
X156424285Y41298809D01*
X156376666Y41203571D01*
X156376666Y41013095D01*
X156424285Y40917857D01*
X156471904Y40870238D01*
X156567142Y40822619D01*
X156757619Y40822619D01*
X156852857Y40870238D01*
X156900476Y40917857D01*
X156948095Y41013095D01*
X156948095Y41203571D01*
X156900476Y41298809D01*
X156852857Y41346428D01*
X156757619Y41394047D01*
X157281428Y41822619D02*
X157900476Y41822619D01*
X157567142Y41441666D01*
X157710000Y41441666D01*
X157805238Y41394047D01*
X157852857Y41346428D01*
X157900476Y41251190D01*
X157900476Y41013095D01*
X157852857Y40917857D01*
X157805238Y40870238D01*
X157710000Y40822619D01*
X157424285Y40822619D01*
X157329047Y40870238D01*
X157281428Y40917857D01*
X158233809Y41822619D02*
X158852857Y41822619D01*
X158519523Y41441666D01*
X158662380Y41441666D01*
X158757619Y41394047D01*
X158805238Y41346428D01*
X158852857Y41251190D01*
X158852857Y41013095D01*
X158805238Y40917857D01*
X158757619Y40870238D01*
X158662380Y40822619D01*
X158376666Y40822619D01*
X158281428Y40870238D01*
X158233809Y40917857D01*
X166032380Y53848095D02*
X166841904Y53848095D01*
X166937142Y53895714D01*
X166984761Y53943333D01*
X167032380Y54038571D01*
X167032380Y54229047D01*
X166984761Y54324285D01*
X166937142Y54371904D01*
X166841904Y54419523D01*
X166032380Y54419523D01*
X166032380Y54800476D02*
X166032380Y55419523D01*
X166413333Y55086190D01*
X166413333Y55229047D01*
X166460952Y55324285D01*
X166508571Y55371904D01*
X166603809Y55419523D01*
X166841904Y55419523D01*
X166937142Y55371904D01*
X166984761Y55324285D01*
X167032380Y55229047D01*
X167032380Y54943333D01*
X166984761Y54848095D01*
X166937142Y54800476D01*
X171954285Y81091428D02*
X172097142Y81043809D01*
X172144761Y80996190D01*
X172192380Y80900952D01*
X172192380Y80758095D01*
X172144761Y80662857D01*
X172097142Y80615238D01*
X172001904Y80567619D01*
X171620952Y80567619D01*
X171620952Y81567619D01*
X171954285Y81567619D01*
X172049523Y81520000D01*
X172097142Y81472380D01*
X172144761Y81377142D01*
X172144761Y81281904D01*
X172097142Y81186666D01*
X172049523Y81139047D01*
X171954285Y81091428D01*
X171620952Y81091428D01*
X172478095Y81567619D02*
X173049523Y81567619D01*
X172763809Y80567619D02*
X172763809Y81567619D01*
X173906666Y80567619D02*
X173335238Y80567619D01*
X173620952Y80567619D02*
X173620952Y81567619D01*
X173525714Y81424761D01*
X173430476Y81329523D01*
X173335238Y81281904D01*
X131507142Y81153333D02*
X131554761Y81105714D01*
X131602380Y80962857D01*
X131602380Y80867619D01*
X131554761Y80724761D01*
X131459523Y80629523D01*
X131364285Y80581904D01*
X131173809Y80534285D01*
X131030952Y80534285D01*
X130840476Y80581904D01*
X130745238Y80629523D01*
X130650000Y80724761D01*
X130602380Y80867619D01*
X130602380Y80962857D01*
X130650000Y81105714D01*
X130697619Y81153333D01*
X131602380Y82105714D02*
X131602380Y81534285D01*
X131602380Y81820000D02*
X130602380Y81820000D01*
X130745238Y81724761D01*
X130840476Y81629523D01*
X130888095Y81534285D01*
X161123333Y72032857D02*
X161075714Y71985238D01*
X160932857Y71937619D01*
X160837619Y71937619D01*
X160694761Y71985238D01*
X160599523Y72080476D01*
X160551904Y72175714D01*
X160504285Y72366190D01*
X160504285Y72509047D01*
X160551904Y72699523D01*
X160599523Y72794761D01*
X160694761Y72890000D01*
X160837619Y72937619D01*
X160932857Y72937619D01*
X161075714Y72890000D01*
X161123333Y72842380D01*
X161456666Y72937619D02*
X162075714Y72937619D01*
X161742380Y72556666D01*
X161885238Y72556666D01*
X161980476Y72509047D01*
X162028095Y72461428D01*
X162075714Y72366190D01*
X162075714Y72128095D01*
X162028095Y72032857D01*
X161980476Y71985238D01*
X161885238Y71937619D01*
X161599523Y71937619D01*
X161504285Y71985238D01*
X161456666Y72032857D01*
X150328333Y41552857D02*
X150280714Y41505238D01*
X150137857Y41457619D01*
X150042619Y41457619D01*
X149899761Y41505238D01*
X149804523Y41600476D01*
X149756904Y41695714D01*
X149709285Y41886190D01*
X149709285Y42029047D01*
X149756904Y42219523D01*
X149804523Y42314761D01*
X149899761Y42410000D01*
X150042619Y42457619D01*
X150137857Y42457619D01*
X150280714Y42410000D01*
X150328333Y42362380D01*
X151185476Y42124285D02*
X151185476Y41457619D01*
X150947380Y42505238D02*
X150709285Y41790952D01*
X151328333Y41790952D01*
X181443333Y41552857D02*
X181395714Y41505238D01*
X181252857Y41457619D01*
X181157619Y41457619D01*
X181014761Y41505238D01*
X180919523Y41600476D01*
X180871904Y41695714D01*
X180824285Y41886190D01*
X180824285Y42029047D01*
X180871904Y42219523D01*
X180919523Y42314761D01*
X181014761Y42410000D01*
X181157619Y42457619D01*
X181252857Y42457619D01*
X181395714Y42410000D01*
X181443333Y42362380D01*
X182300476Y42457619D02*
X182110000Y42457619D01*
X182014761Y42410000D01*
X181967142Y42362380D01*
X181871904Y42219523D01*
X181824285Y42029047D01*
X181824285Y41648095D01*
X181871904Y41552857D01*
X181919523Y41505238D01*
X182014761Y41457619D01*
X182205238Y41457619D01*
X182300476Y41505238D01*
X182348095Y41552857D01*
X182395714Y41648095D01*
X182395714Y41886190D01*
X182348095Y41981428D01*
X182300476Y42029047D01*
X182205238Y42076666D01*
X182014761Y42076666D01*
X181919523Y42029047D01*
X181871904Y41981428D01*
X181824285Y41886190D01*
X180173333Y24962857D02*
X180125714Y24915238D01*
X179982857Y24867619D01*
X179887619Y24867619D01*
X179744761Y24915238D01*
X179649523Y25010476D01*
X179601904Y25105714D01*
X179554285Y25296190D01*
X179554285Y25439047D01*
X179601904Y25629523D01*
X179649523Y25724761D01*
X179744761Y25820000D01*
X179887619Y25867619D01*
X179982857Y25867619D01*
X180125714Y25820000D01*
X180173333Y25772380D01*
X180744761Y25439047D02*
X180649523Y25486666D01*
X180601904Y25534285D01*
X180554285Y25629523D01*
X180554285Y25677142D01*
X180601904Y25772380D01*
X180649523Y25820000D01*
X180744761Y25867619D01*
X180935238Y25867619D01*
X181030476Y25820000D01*
X181078095Y25772380D01*
X181125714Y25677142D01*
X181125714Y25629523D01*
X181078095Y25534285D01*
X181030476Y25486666D01*
X180935238Y25439047D01*
X180744761Y25439047D01*
X180649523Y25391428D01*
X180601904Y25343809D01*
X180554285Y25248571D01*
X180554285Y25058095D01*
X180601904Y24962857D01*
X180649523Y24915238D01*
X180744761Y24867619D01*
X180935238Y24867619D01*
X181030476Y24915238D01*
X181078095Y24962857D01*
X181125714Y25058095D01*
X181125714Y25248571D01*
X181078095Y25343809D01*
X181030476Y25391428D01*
X180935238Y25439047D01*
X171116666Y62777619D02*
X171116666Y62063333D01*
X171069047Y61920476D01*
X170973809Y61825238D01*
X170830952Y61777619D01*
X170735714Y61777619D01*
X172021428Y62777619D02*
X171830952Y62777619D01*
X171735714Y62730000D01*
X171688095Y62682380D01*
X171592857Y62539523D01*
X171545238Y62349047D01*
X171545238Y61968095D01*
X171592857Y61872857D01*
X171640476Y61825238D01*
X171735714Y61777619D01*
X171926190Y61777619D01*
X172021428Y61825238D01*
X172069047Y61872857D01*
X172116666Y61968095D01*
X172116666Y62206190D01*
X172069047Y62301428D01*
X172021428Y62349047D01*
X171926190Y62396666D01*
X171735714Y62396666D01*
X171640476Y62349047D01*
X171592857Y62301428D01*
X171545238Y62206190D01*
X173370952Y64107619D02*
X173561428Y64107619D01*
X173656666Y64155238D01*
X173704285Y64202857D01*
X173799523Y64345714D01*
X173847142Y64536190D01*
X173847142Y64917142D01*
X173799523Y65012380D01*
X173751904Y65060000D01*
X173656666Y65107619D01*
X173466190Y65107619D01*
X173370952Y65060000D01*
X173323333Y65012380D01*
X173275714Y64917142D01*
X173275714Y64679047D01*
X173323333Y64583809D01*
X173370952Y64536190D01*
X173466190Y64488571D01*
X173656666Y64488571D01*
X173751904Y64536190D01*
X173799523Y64583809D01*
X173847142Y64679047D01*
X174132857Y65107619D02*
X174466190Y64107619D01*
X174799523Y65107619D01*
X153604880Y55951428D02*
X153747738Y55903809D01*
X153795357Y55856190D01*
X153842976Y55760952D01*
X153842976Y55618095D01*
X153795357Y55522857D01*
X153747738Y55475238D01*
X153652500Y55427619D01*
X153271547Y55427619D01*
X153271547Y56427619D01*
X153604880Y56427619D01*
X153700119Y56380000D01*
X153747738Y56332380D01*
X153795357Y56237142D01*
X153795357Y56141904D01*
X153747738Y56046666D01*
X153700119Y55999047D01*
X153604880Y55951428D01*
X153271547Y55951428D01*
X154462023Y55903809D02*
X154462023Y55427619D01*
X154128690Y56427619D02*
X154462023Y55903809D01*
X154795357Y56427619D01*
X155128690Y55427619D02*
X155128690Y56427619D01*
X155509642Y56427619D01*
X155604880Y56380000D01*
X155652500Y56332380D01*
X155700119Y56237142D01*
X155700119Y56094285D01*
X155652500Y55999047D01*
X155604880Y55951428D01*
X155509642Y55903809D01*
X155128690Y55903809D01*
X156081071Y55713333D02*
X156557261Y55713333D01*
X155985833Y55427619D02*
X156319166Y56427619D01*
X156652500Y55427619D01*
X156938214Y55475238D02*
X157081071Y55427619D01*
X157319166Y55427619D01*
X157414404Y55475238D01*
X157462023Y55522857D01*
X157509642Y55618095D01*
X157509642Y55713333D01*
X157462023Y55808571D01*
X157414404Y55856190D01*
X157319166Y55903809D01*
X157128690Y55951428D01*
X157033452Y55999047D01*
X156985833Y56046666D01*
X156938214Y56141904D01*
X156938214Y56237142D01*
X156985833Y56332380D01*
X157033452Y56380000D01*
X157128690Y56427619D01*
X157366785Y56427619D01*
X157509642Y56380000D01*
X157890595Y55475238D02*
X158033452Y55427619D01*
X158271547Y55427619D01*
X158366785Y55475238D01*
X158414404Y55522857D01*
X158462023Y55618095D01*
X158462023Y55713333D01*
X158414404Y55808571D01*
X158366785Y55856190D01*
X158271547Y55903809D01*
X158081071Y55951428D01*
X157985833Y55999047D01*
X157938214Y56046666D01*
X157890595Y56141904D01*
X157890595Y56237142D01*
X157938214Y56332380D01*
X157985833Y56380000D01*
X158081071Y56427619D01*
X158319166Y56427619D01*
X158462023Y56380000D01*
X169846666Y29122619D02*
X169846666Y28408333D01*
X169799047Y28265476D01*
X169703809Y28170238D01*
X169560952Y28122619D01*
X169465714Y28122619D01*
X170370476Y28122619D02*
X170560952Y28122619D01*
X170656190Y28170238D01*
X170703809Y28217857D01*
X170799047Y28360714D01*
X170846666Y28551190D01*
X170846666Y28932142D01*
X170799047Y29027380D01*
X170751428Y29075000D01*
X170656190Y29122619D01*
X170465714Y29122619D01*
X170370476Y29075000D01*
X170322857Y29027380D01*
X170275238Y28932142D01*
X170275238Y28694047D01*
X170322857Y28598809D01*
X170370476Y28551190D01*
X170465714Y28503571D01*
X170656190Y28503571D01*
X170751428Y28551190D01*
X170799047Y28598809D01*
X170846666Y28694047D01*
X158742619Y31583333D02*
X159218809Y31583333D01*
X158647380Y31297619D02*
X158980714Y32297619D01*
X159314047Y31297619D01*
X159647380Y31297619D02*
X159647380Y32297619D01*
X159885476Y32297619D01*
X160028333Y32250000D01*
X160123571Y32154761D01*
X160171190Y32059523D01*
X160218809Y31869047D01*
X160218809Y31726190D01*
X160171190Y31535714D01*
X160123571Y31440476D01*
X160028333Y31345238D01*
X159885476Y31297619D01*
X159647380Y31297619D01*
X160695000Y31297619D02*
X160885476Y31297619D01*
X160980714Y31345238D01*
X161028333Y31392857D01*
X161123571Y31535714D01*
X161171190Y31726190D01*
X161171190Y32107142D01*
X161123571Y32202380D01*
X161075952Y32250000D01*
X160980714Y32297619D01*
X160790238Y32297619D01*
X160695000Y32250000D01*
X160647380Y32202380D01*
X160599761Y32107142D01*
X160599761Y31869047D01*
X160647380Y31773809D01*
X160695000Y31726190D01*
X160790238Y31678571D01*
X160980714Y31678571D01*
X161075952Y31726190D01*
X161123571Y31773809D01*
X161171190Y31869047D01*
X161742619Y31869047D02*
X161647380Y31916666D01*
X161599761Y31964285D01*
X161552142Y32059523D01*
X161552142Y32107142D01*
X161599761Y32202380D01*
X161647380Y32250000D01*
X161742619Y32297619D01*
X161933095Y32297619D01*
X162028333Y32250000D01*
X162075952Y32202380D01*
X162123571Y32107142D01*
X162123571Y32059523D01*
X162075952Y31964285D01*
X162028333Y31916666D01*
X161933095Y31869047D01*
X161742619Y31869047D01*
X161647380Y31821428D01*
X161599761Y31773809D01*
X161552142Y31678571D01*
X161552142Y31488095D01*
X161599761Y31392857D01*
X161647380Y31345238D01*
X161742619Y31297619D01*
X161933095Y31297619D01*
X162028333Y31345238D01*
X162075952Y31392857D01*
X162123571Y31488095D01*
X162123571Y31678571D01*
X162075952Y31773809D01*
X162028333Y31821428D01*
X161933095Y31869047D01*
X162456904Y32297619D02*
X163075952Y32297619D01*
X162742619Y31916666D01*
X162885476Y31916666D01*
X162980714Y31869047D01*
X163028333Y31821428D01*
X163075952Y31726190D01*
X163075952Y31488095D01*
X163028333Y31392857D01*
X162980714Y31345238D01*
X162885476Y31297619D01*
X162599761Y31297619D01*
X162504523Y31345238D01*
X162456904Y31392857D01*
X163409285Y32297619D02*
X164028333Y32297619D01*
X163695000Y31916666D01*
X163837857Y31916666D01*
X163933095Y31869047D01*
X163980714Y31821428D01*
X164028333Y31726190D01*
X164028333Y31488095D01*
X163980714Y31392857D01*
X163933095Y31345238D01*
X163837857Y31297619D01*
X163552142Y31297619D01*
X163456904Y31345238D01*
X163409285Y31392857D01*
X165409285Y32297619D02*
X165599761Y32297619D01*
X165695000Y32250000D01*
X165790238Y32154761D01*
X165837857Y31964285D01*
X165837857Y31630952D01*
X165790238Y31440476D01*
X165695000Y31345238D01*
X165599761Y31297619D01*
X165409285Y31297619D01*
X165314047Y31345238D01*
X165218809Y31440476D01*
X165171190Y31630952D01*
X165171190Y31964285D01*
X165218809Y32154761D01*
X165314047Y32250000D01*
X165409285Y32297619D01*
X166266428Y32297619D02*
X166266428Y31488095D01*
X166314047Y31392857D01*
X166361666Y31345238D01*
X166456904Y31297619D01*
X166647380Y31297619D01*
X166742619Y31345238D01*
X166790238Y31392857D01*
X166837857Y31488095D01*
X166837857Y32297619D01*
X167171190Y32297619D02*
X167742619Y32297619D01*
X167456904Y31297619D02*
X167456904Y32297619D01*
X154319166Y53840000D02*
X154223928Y53887619D01*
X154081071Y53887619D01*
X153938214Y53840000D01*
X153842976Y53744761D01*
X153795357Y53649523D01*
X153747738Y53459047D01*
X153747738Y53316190D01*
X153795357Y53125714D01*
X153842976Y53030476D01*
X153938214Y52935238D01*
X154081071Y52887619D01*
X154176309Y52887619D01*
X154319166Y52935238D01*
X154366785Y52982857D01*
X154366785Y53316190D01*
X154176309Y53316190D01*
X154747738Y53173333D02*
X155223928Y53173333D01*
X154652500Y52887619D02*
X154985833Y53887619D01*
X155319166Y52887619D01*
X155652500Y52887619D02*
X155652500Y53887619D01*
X156128690Y52887619D02*
X156128690Y53887619D01*
X156700119Y52887619D01*
X156700119Y53887619D01*
X158462023Y52887619D02*
X157890595Y52887619D01*
X158176309Y52887619D02*
X158176309Y53887619D01*
X158081071Y53744761D01*
X157985833Y53649523D01*
X157890595Y53601904D01*
X154319166Y58920000D02*
X154223928Y58967619D01*
X154081071Y58967619D01*
X153938214Y58920000D01*
X153842976Y58824761D01*
X153795357Y58729523D01*
X153747738Y58539047D01*
X153747738Y58396190D01*
X153795357Y58205714D01*
X153842976Y58110476D01*
X153938214Y58015238D01*
X154081071Y57967619D01*
X154176309Y57967619D01*
X154319166Y58015238D01*
X154366785Y58062857D01*
X154366785Y58396190D01*
X154176309Y58396190D01*
X154747738Y58253333D02*
X155223928Y58253333D01*
X154652500Y57967619D02*
X154985833Y58967619D01*
X155319166Y57967619D01*
X155652500Y57967619D02*
X155652500Y58967619D01*
X156128690Y57967619D02*
X156128690Y58967619D01*
X156700119Y57967619D01*
X156700119Y58967619D01*
X158081071Y58539047D02*
X157985833Y58586666D01*
X157938214Y58634285D01*
X157890595Y58729523D01*
X157890595Y58777142D01*
X157938214Y58872380D01*
X157985833Y58920000D01*
X158081071Y58967619D01*
X158271547Y58967619D01*
X158366785Y58920000D01*
X158414404Y58872380D01*
X158462023Y58777142D01*
X158462023Y58729523D01*
X158414404Y58634285D01*
X158366785Y58586666D01*
X158271547Y58539047D01*
X158081071Y58539047D01*
X157985833Y58491428D01*
X157938214Y58443809D01*
X157890595Y58348571D01*
X157890595Y58158095D01*
X157938214Y58062857D01*
X157985833Y58015238D01*
X158081071Y57967619D01*
X158271547Y57967619D01*
X158366785Y58015238D01*
X158414404Y58062857D01*
X158462023Y58158095D01*
X158462023Y58348571D01*
X158414404Y58443809D01*
X158366785Y58491428D01*
X158271547Y58539047D01*
X189897142Y65587619D02*
X189420952Y65587619D01*
X189420952Y66587619D01*
X190182857Y65635238D02*
X190325714Y65587619D01*
X190563809Y65587619D01*
X190659047Y65635238D01*
X190706666Y65682857D01*
X190754285Y65778095D01*
X190754285Y65873333D01*
X190706666Y65968571D01*
X190659047Y66016190D01*
X190563809Y66063809D01*
X190373333Y66111428D01*
X190278095Y66159047D01*
X190230476Y66206666D01*
X190182857Y66301904D01*
X190182857Y66397142D01*
X190230476Y66492380D01*
X190278095Y66540000D01*
X190373333Y66587619D01*
X190611428Y66587619D01*
X190754285Y66540000D01*
X191706666Y65587619D02*
X191135238Y65587619D01*
X191420952Y65587619D02*
X191420952Y66587619D01*
X191325714Y66444761D01*
X191230476Y66349523D01*
X191135238Y66301904D01*
X135612380Y79823095D02*
X136421904Y79823095D01*
X136517142Y79870714D01*
X136564761Y79918333D01*
X136612380Y80013571D01*
X136612380Y80204047D01*
X136564761Y80299285D01*
X136517142Y80346904D01*
X136421904Y80394523D01*
X135612380Y80394523D01*
X136612380Y81394523D02*
X136612380Y80823095D01*
X136612380Y81108809D02*
X135612380Y81108809D01*
X135755238Y81013571D01*
X135850476Y80918333D01*
X135898095Y80823095D01*
X189742380Y77930476D02*
X190456666Y77930476D01*
X190599523Y77882857D01*
X190694761Y77787619D01*
X190742380Y77644761D01*
X190742380Y77549523D01*
X190742380Y78930476D02*
X190742380Y78359047D01*
X190742380Y78644761D02*
X189742380Y78644761D01*
X189885238Y78549523D01*
X189980476Y78454285D01*
X190028095Y78359047D01*
X189742380Y79263809D02*
X189742380Y79882857D01*
X190123333Y79549523D01*
X190123333Y79692380D01*
X190170952Y79787619D01*
X190218571Y79835238D01*
X190313809Y79882857D01*
X190551904Y79882857D01*
X190647142Y79835238D01*
X190694761Y79787619D01*
X190742380Y79692380D01*
X190742380Y79406666D01*
X190694761Y79311428D01*
X190647142Y79263809D01*
X176363333Y24947619D02*
X176030000Y25423809D01*
X175791904Y24947619D02*
X175791904Y25947619D01*
X176172857Y25947619D01*
X176268095Y25900000D01*
X176315714Y25852380D01*
X176363333Y25757142D01*
X176363333Y25614285D01*
X176315714Y25519047D01*
X176268095Y25471428D01*
X176172857Y25423809D01*
X175791904Y25423809D01*
X176744285Y25852380D02*
X176791904Y25900000D01*
X176887142Y25947619D01*
X177125238Y25947619D01*
X177220476Y25900000D01*
X177268095Y25852380D01*
X177315714Y25757142D01*
X177315714Y25661904D01*
X177268095Y25519047D01*
X176696666Y24947619D01*
X177315714Y24947619D01*
X176982380Y31559523D02*
X176982380Y30988095D01*
X176982380Y31273809D02*
X175982380Y31273809D01*
X176125238Y31178571D01*
X176220476Y31083333D01*
X176268095Y30988095D01*
X175982380Y32178571D02*
X175982380Y32273809D01*
X176030000Y32369047D01*
X176077619Y32416666D01*
X176172857Y32464285D01*
X176363333Y32511904D01*
X176601428Y32511904D01*
X176791904Y32464285D01*
X176887142Y32416666D01*
X176934761Y32369047D01*
X176982380Y32273809D01*
X176982380Y32178571D01*
X176934761Y32083333D01*
X176887142Y32035714D01*
X176791904Y31988095D01*
X176601428Y31940476D01*
X176363333Y31940476D01*
X176172857Y31988095D01*
X176077619Y32035714D01*
X176030000Y32083333D01*
X175982380Y32178571D01*
X21503333Y47902857D02*
X21455714Y47855238D01*
X21312857Y47807619D01*
X21217619Y47807619D01*
X21074761Y47855238D01*
X20979523Y47950476D01*
X20931904Y48045714D01*
X20884285Y48236190D01*
X20884285Y48379047D01*
X20931904Y48569523D01*
X20979523Y48664761D01*
X21074761Y48760000D01*
X21217619Y48807619D01*
X21312857Y48807619D01*
X21455714Y48760000D01*
X21503333Y48712380D01*
X22408095Y48807619D02*
X21931904Y48807619D01*
X21884285Y48331428D01*
X21931904Y48379047D01*
X22027142Y48426666D01*
X22265238Y48426666D01*
X22360476Y48379047D01*
X22408095Y48331428D01*
X22455714Y48236190D01*
X22455714Y47998095D01*
X22408095Y47902857D01*
X22360476Y47855238D01*
X22265238Y47807619D01*
X22027142Y47807619D01*
X21931904Y47855238D01*
X21884285Y47902857D01*
X21423333Y43997619D02*
X21090000Y44473809D01*
X20851904Y43997619D02*
X20851904Y44997619D01*
X21232857Y44997619D01*
X21328095Y44950000D01*
X21375714Y44902380D01*
X21423333Y44807142D01*
X21423333Y44664285D01*
X21375714Y44569047D01*
X21328095Y44521428D01*
X21232857Y44473809D01*
X20851904Y44473809D01*
X22375714Y43997619D02*
X21804285Y43997619D01*
X22090000Y43997619D02*
X22090000Y44997619D01*
X21994761Y44854761D01*
X21899523Y44759523D01*
X21804285Y44711904D01*
X13632380Y33528095D02*
X14441904Y33528095D01*
X14537142Y33575714D01*
X14584761Y33623333D01*
X14632380Y33718571D01*
X14632380Y33909047D01*
X14584761Y34004285D01*
X14537142Y34051904D01*
X14441904Y34099523D01*
X13632380Y34099523D01*
X13965714Y35004285D02*
X14632380Y35004285D01*
X13584761Y34766190D02*
X14299047Y34528095D01*
X14299047Y35147142D01*
X157948333Y63777857D02*
X157900714Y63730238D01*
X157757857Y63682619D01*
X157662619Y63682619D01*
X157519761Y63730238D01*
X157424523Y63825476D01*
X157376904Y63920714D01*
X157329285Y64111190D01*
X157329285Y64254047D01*
X157376904Y64444523D01*
X157424523Y64539761D01*
X157519761Y64635000D01*
X157662619Y64682619D01*
X157757857Y64682619D01*
X157900714Y64635000D01*
X157948333Y64587380D01*
X158329285Y64587380D02*
X158376904Y64635000D01*
X158472142Y64682619D01*
X158710238Y64682619D01*
X158805476Y64635000D01*
X158853095Y64587380D01*
X158900714Y64492142D01*
X158900714Y64396904D01*
X158853095Y64254047D01*
X158281666Y63682619D01*
X158900714Y63682619D01*
X64436666Y79077619D02*
X64436666Y78363333D01*
X64389047Y78220476D01*
X64293809Y78125238D01*
X64150952Y78077619D01*
X64055714Y78077619D01*
X64865238Y78982380D02*
X64912857Y79030000D01*
X65008095Y79077619D01*
X65246190Y79077619D01*
X65341428Y79030000D01*
X65389047Y78982380D01*
X65436666Y78887142D01*
X65436666Y78791904D01*
X65389047Y78649047D01*
X64817619Y78077619D01*
X65436666Y78077619D01*
X127936666Y81617619D02*
X127936666Y80903333D01*
X127889047Y80760476D01*
X127793809Y80665238D01*
X127650952Y80617619D01*
X127555714Y80617619D01*
X128317619Y81617619D02*
X128936666Y81617619D01*
X128603333Y81236666D01*
X128746190Y81236666D01*
X128841428Y81189047D01*
X128889047Y81141428D01*
X128936666Y81046190D01*
X128936666Y80808095D01*
X128889047Y80712857D01*
X128841428Y80665238D01*
X128746190Y80617619D01*
X128460476Y80617619D01*
X128365238Y80665238D01*
X128317619Y80712857D01*
X126650952Y76243333D02*
X127127142Y76243333D01*
X126555714Y75957619D02*
X126889047Y76957619D01*
X127222380Y75957619D01*
X128127142Y75957619D02*
X127793809Y76433809D01*
X127555714Y75957619D02*
X127555714Y76957619D01*
X127936666Y76957619D01*
X128031904Y76910000D01*
X128079523Y76862380D01*
X128127142Y76767142D01*
X128127142Y76624285D01*
X128079523Y76529047D01*
X128031904Y76481428D01*
X127936666Y76433809D01*
X127555714Y76433809D01*
X128555714Y76481428D02*
X128889047Y76481428D01*
X129031904Y75957619D02*
X128555714Y75957619D01*
X128555714Y76957619D01*
X129031904Y76957619D01*
X129793809Y76481428D02*
X129460476Y76481428D01*
X129460476Y75957619D02*
X129460476Y76957619D01*
X129936666Y76957619D01*
X66976666Y52407619D02*
X66976666Y51693333D01*
X66929047Y51550476D01*
X66833809Y51455238D01*
X66690952Y51407619D01*
X66595714Y51407619D01*
X67881428Y52074285D02*
X67881428Y51407619D01*
X67643333Y52455238D02*
X67405238Y51740952D01*
X68024285Y51740952D01*
X127936666Y66797619D02*
X127936666Y66083333D01*
X127889047Y65940476D01*
X127793809Y65845238D01*
X127650952Y65797619D01*
X127555714Y65797619D01*
X128889047Y66797619D02*
X128412857Y66797619D01*
X128365238Y66321428D01*
X128412857Y66369047D01*
X128508095Y66416666D01*
X128746190Y66416666D01*
X128841428Y66369047D01*
X128889047Y66321428D01*
X128936666Y66226190D01*
X128936666Y65988095D01*
X128889047Y65892857D01*
X128841428Y65845238D01*
X128746190Y65797619D01*
X128508095Y65797619D01*
X128412857Y65845238D01*
X128365238Y65892857D01*
X189666666Y55792619D02*
X189666666Y55078333D01*
X189619047Y54935476D01*
X189523809Y54840238D01*
X189380952Y54792619D01*
X189285714Y54792619D01*
X190142857Y54792619D02*
X190142857Y55792619D01*
X190523809Y55792619D01*
X190619047Y55745000D01*
X190666666Y55697380D01*
X190714285Y55602142D01*
X190714285Y55459285D01*
X190666666Y55364047D01*
X190619047Y55316428D01*
X190523809Y55268809D01*
X190142857Y55268809D01*
X191666666Y54792619D02*
X191095238Y54792619D01*
X191380952Y54792619D02*
X191380952Y55792619D01*
X191285714Y55649761D01*
X191190476Y55554523D01*
X191095238Y55506904D01*
X66976666Y62987619D02*
X66976666Y62273333D01*
X66929047Y62130476D01*
X66833809Y62035238D01*
X66690952Y61987619D01*
X66595714Y61987619D01*
X67976666Y61987619D02*
X67405238Y61987619D01*
X67690952Y61987619D02*
X67690952Y62987619D01*
X67595714Y62844761D01*
X67500476Y62749523D01*
X67405238Y62701904D01*
M02*
